{
.appVersion = "3039";
DisplayStrings = (
"/ha.base/hi-ethiopic",
"/_smart.ka/kxi-ethiopic",
"/ya.base",
"/ga.base/ge-ethiopic",
"/raa-ethiopic",
"/ra.base.cap/raa-ethiopic.etcp",
"/raa-ethiopic.etcp",
"/ge-ethiopic",
"/hha.base/the-ethiopic",
"/the-ethiopic",
"/hha.base/che-ethiopic",
"/da.base/di-ethiopic",
"/da.base/di-ethiopic/ddi-ethiopic/ji-ethiopic",
"/taa-ethiopic/me-ethiopic/sze-ethiopic/qaa-ethiopic/qhaa-ethiopic/caa-ethiopic/ke-ethiopic/xaa-ethiopic/ki-ethiopic/ki-ethiopic/ki-ethiopic/taa-ethiopic/wo-ethiopic/oPharyngeal-ethiopic/ki-ethiopic/yaa-ethiopic/gaa-ethiopic/ggaa-ethiopic/tzo-ethiopic/fu-ethiopic/paa-ethiopic/rya-ethiopic/me-ethiopic.etcp/sze-ethiopic.etcp/qaa-ethiopic.etcp/qhaa-ethiopic.etcp/oPharyngeal-ethiopic.etcp/ggaa-ethiopic.etcp/tzo-ethiopic.etcp/fu-ethiopic.etcp",
"/_smart.haa.acute/taa-ethiopic",
"/ta.base/taa-ethiopic",
"/ma.base.cap/ma-ethiopic.etcp",
"/ma.base.cap/mi-ethiopic.etcp",
"/ma.base.cap/mo-ethiopic.etcp",
"/ma.base.cap/mu-ethiopic.etcp",
"/na.base.cap/ma-ethiopic.etcp",
"/ma.base.cap/ma-ethiopic.etcp",
"/ma.base.cap/mi-ethiopic.etcp",
"/ma.base.cap/me-ethiopic.etcp",
"/ma.base.cap/mu-ethiopic.etcp",
"/ma.base.cap/ma-ethiopic.etcp",
"/ma.base.cap/ma-ethiopic.etcp",
"/_smart.eGl/eGlottal-ethiopic.etcp",
"/aGl.base.cap/eGlottal-ethiopic.etcp",
"/aglka.base/eGlottal-ethiopic",
"/_smart.eGl/eGlottal-ethiopic",
"/_smart.aGl/eGlottal-ethiopic",
"/_smart.aGl/eGlottal-ethiopic",
"/_smart.eGl/_smart.eGl/eGlottal-ethiopic",
"/she-ethiopic",
"/aPh.base/tzi-ethiopic",
"/ma.base.cap/ma-ethiopic.etcp",
"/ba.base.cap/sha-ethiopic.etcp",
"/ye-ethiopic.etcp/_smart.ye/ye-ethiopic",
"/ye-ethiopic.etcp/_smart.ye/ye-ethiopic",
"/wa.base.cap/qo-ethiopic.etcp",
"/ga.base",
"/ga.base.cap",
"/ra.base.cap",
"/re.base.cap",
"/aglka.base/eGlottal-ethiopic",
"/ba.base/so-ethiopic"
);
classes = (
{

glyphs = (
{
glyphname = .notdef;
lastChange = "2020-12-28 02:01:01 +0000";
layers = (
{
layerId = "6873DD1C-7BCD-4DE2-A211-237E2294755D";
paths = (
{
closed = 1;
nodes = (
"428 0 LINE",
"428 758 LINE",
"72 758 LINE",
"72 0 LINE"
);
},
{
closed = 1;
nodes = (
"145 685 LINE",
"355 685 LINE",
"355 73 LINE",
"145 73 LINE"
);
}
);
userData = {
assembly = "PUSHW[ ]	/* 4 values pushed */
6 5 1 4 
CALL[ ]	/* CallFunction */
PUSHW[ ]	/* 1 value pushed */
6 
SRP0[ ]	/* SetRefPoint0 */
PUSHW[ ]	/* 4 values pushed */
3 5 4 4 
CALL[ ]	/* CallFunction */
PUSHW[ ]	/* 1 value pushed */
3 
SRP0[ ]	/* SetRefPoint0 */
SVTCA[0]	/* SetFreedomAndProjectionVectorToAxis */
PUSHW[ ]	/* 1 value pushed */
0 
RCVT[ ]	/* ReadCVT */
IF[ ]	/* If */
PUSHW[ ]	/* 1 value pushed */
0 
MDAP[1]	/* MoveDirectAbsPt */
ELSE[ ]	/* Else */
PUSHW[ ]	/* 2 values pushed */
0 8 
MIAP[0]	/* MoveIndirectAbsPt */
EIF[ ]	/* EndIf */
PUSHW[ ]	/* 4 values pushed */
3 4 4 4 
CALL[ ]	/* CallFunction */
PUSHW[ ]	/* 1 value pushed */
3 
SRP0[ ]	/* SetRefPoint0 */
PUSHW[ ]	/* 1 value pushed */
0 
SRP0[ ]	/* SetRefPoint0 */
PUSHW[ ]	/* 2 values pushed */
6 4 
MIRP[11100]	/* MoveIndirectRelPt */
IUP[0]	/* InterpolateUntPts */
IUP[1]	/* InterpolateUntPts */";
};
width = 500;
}
);
note = .notdef;
},
{
glyphname = exclam;
lastChange = "2020-12-28 02:01:01 +0000";
layers = (
{
layerId = "6873DD1C-7BCD-4DE2-A211-237E2294755D";
paths = (
{
closed = 1;
nodes = (
"164 191 LINE",
"169.333 331 OFFCURVE",
"182 421.833 OFFCURVE",
"194 478.5 CURVE SMOOTH",
"202.687 519.523 OFFCURVE",
"217.354 557.063 OFFCURVE",
"219 562 CURVE",
"219 615.573 OFFCURVE",
"186.099 712 OFFCURVE",
"157 712 CURVE SMOOTH",
"125.912 712 OFFCURVE",
"93 616.188 OFFCURVE",
"93 562 CURVE",
"96.605 556.593 OFFCURVE",
"110.388 518.351 OFFCURVE",
"120 477.5 CURVE SMOOTH",
"133.333 420.833 OFFCURVE",
"146.667 329.667 OFFCURVE",
"152 191 CURVE"
);
},
{
closed = 1;
nodes = (
"191.667 0 OFFCURVE",
"216 20.333 OFFCURVE",
"216 55 CURVE SMOOTH",
"216 89.667 OFFCURVE",
"191.667 118 OFFCURVE",
"157 118 CURVE SMOOTH",
"122.333 118 OFFCURVE",
"97 91.667 OFFCURVE",
"97 57 CURVE SMOOTH",
"97 22.333 OFFCURVE",
"122.333 0 OFFCURVE",
"157 0 CURVE SMOOTH"
);
}
);
userData = {
assembly = "PUSHW[ ]	/* 4 values pushed */
0 7 10 4 
CALL[ ]	/* CallFunction */
NPUSHW[ ]	/* 13 values pushed */
6 0 22 0 38 0 54 0 70 0 86 0 6 
DELTAP1[ ]	/* DeltaExceptionP1 */
NPUSHW[ ]	/* 5 values pushed */
101 0 117 0 2 
DELTAP1[ ]	/* DeltaExceptionP1 */
PUSHW[ ]	/* 1 value pushed */
21 
MDRP[10000]	/* MoveDirectRelPt */
PUSHW[ ]	/* 1 value pushed */
21 
MDAP[1]	/* MoveDirectAbsPt */
PUSHW[ ]	/* 1 value pushed */
10 
SRP0[ ]	/* SetRefPoint0 */
PUSHW[ ]	/* 1 value pushed */
27 
MDRP[10000]	/* MoveDirectRelPt */
PUSHW[ ]	/* 1 value pushed */
27 
MDAP[1]	/* MoveDirectAbsPt */
SVTCA[0]	/* SetFreedomAndProjectionVectorToAxis */
PUSHW[ ]	/* 1 value pushed */
5 
MDAP[1]	/* MoveDirectAbsPt */
PUSHW[ ]	/* 1 value pushed */
0 
RCVT[ ]	/* ReadCVT */
IF[ ]	/* If */
PUSHW[ ]	/* 1 value pushed */
30 
MDAP[1]	/* MoveDirectAbsPt */
ELSE[ ]	/* Else */
PUSHW[ ]	/* 2 values pushed */
30 8 
MIAP[0]	/* MoveIndirectAbsPt */
EIF[ ]	/* EndIf */
PUSHW[ ]	/* 2 values pushed */
24 4 
MIRP[11100]	/* MoveIndirectRelPt */
NPUSHW[ ]	/* 13 values pushed */
7 24 23 24 39 24 55 24 71 24 87 24 6 
DELTAP1[ ]	/* DeltaExceptionP1 */
NPUSHW[ ]	/* 5 values pushed */
102 24 118 24 2 
DELTAP1[ ]	/* DeltaExceptionP1 */
IUP[0]	/* InterpolateUntPts */
IUP[1]	/* InterpolateUntPts */";
};
width = 303;
}
);
note = exclam;
unicode = 0021;
},
{
glyphname = quotedbl;
lastChange = "2020-12-28 02:01:01 +0000";
layers = (
{
layerId = "6873DD1C-7BCD-4DE2-A211-237E2294755D";
paths = (
{
closed = 1;
nodes = (
"253 424 LINE",
"261 492 OFFCURVE",
"270 550.333 OFFCURVE",
"278 593 CURVE SMOOTH",
"284.343 626.829 OFFCURVE",
"292 664.946 OFFCURVE",
"292 676 CURVE SMOOTH",
"292 704 OFFCURVE",
"267 726 OFFCURVE",
"247 726 CURVE SMOOTH",
"227 726 OFFCURVE",
"203 704.333 OFFCURVE",
"203 675 CURVE SMOOTH",
"203 662.333 OFFCURVE",
"207.5 634.5 OFFCURVE",
"216.5 591.5 CURVE SMOOTH",
"225.5 548.5 OFFCURVE",
"233.667 492.667 OFFCURVE",
"241 424 CURVE"
);
},
{
closed = 1;
nodes = (
"114 424 LINE",
"122 492 OFFCURVE",
"131 550.333 OFFCURVE",
"139 593 CURVE SMOOTH",
"145.343 626.829 OFFCURVE",
"153 664.946 OFFCURVE",
"153 676 CURVE SMOOTH",
"153 704 OFFCURVE",
"128 726 OFFCURVE",
"108 726 CURVE SMOOTH",
"88 726 OFFCURVE",
"64 704.333 OFFCURVE",
"64 675 CURVE SMOOTH",
"64 662.333 OFFCURVE",
"68.5 634.5 OFFCURVE",
"77.5 591.5 CURVE SMOOTH",
"86.5 548.5 OFFCURVE",
"94.667 492.667 OFFCURVE",
"102 424 CURVE"
);
}
);
userData = {
assembly = "SVTCA[0]	/* SetFreedomAndProjectionVectorToAxis */
PUSHW[ ]	/* 1 value pushed */
9 
MDAP[1]	/* MoveDirectAbsPt */
PUSHW[ ]	/* 1 value pushed */
24 
MDAP[1]	/* MoveDirectAbsPt */
PUSHW[ ]	/* 1 value pushed */
0 
RCVT[ ]	/* ReadCVT */
IF[ ]	/* If */
PUSHW[ ]	/* 1 value pushed */
3 
MDAP[1]	/* MoveDirectAbsPt */
ELSE[ ]	/* Else */
PUSHW[ ]	/* 2 values pushed */
3 14 
MIAP[0]	/* MoveIndirectAbsPt */
EIF[ ]	/* EndIf */
PUSHW[ ]	/* 1 value pushed */
0 
RCVT[ ]	/* ReadCVT */
IF[ ]	/* If */
PUSHW[ ]	/* 1 value pushed */
18 
MDAP[1]	/* MoveDirectAbsPt */
ELSE[ ]	/* Else */
PUSHW[ ]	/* 2 values pushed */
18 14 
MIAP[0]	/* MoveIndirectAbsPt */
EIF[ ]	/* EndIf */
IUP[0]	/* InterpolateUntPts */
IUP[1]	/* InterpolateUntPts */";
};
width = 356;
}
);
note = quotedbl;
unicode = 0022;
},
{
glyphname = numbersign;
lastChange = "2020-12-28 02:01:01 +0000";
layers = (
{
layerId = "6873DD1C-7BCD-4DE2-A211-237E2294755D";
paths = (
{
closed = 1;
nodes = (
"268 167 LINE",
"389 167 LINE",
"321 -23 LINE",
"345 -29 LINE",
"415 167 LINE",
"569 167 LINE",
"597 235 LINE",
"439 235 LINE",
"483 362 LINE",
"632 362 LINE",
"660 431 LINE",
"508 431 LINE",
"577 622 LINE",
"553 628 LINE",
"482 431 LINE",
"363 431 LINE",
"430 622 LINE",
"406 628 LINE",
"335 431 LINE",
"181 431 LINE",
"154 362 LINE",
"311 362 LINE",
"266 235 LINE",
"119 235 LINE",
"91 167 LINE",
"242 167 LINE",
"174 -23 LINE",
"198 -29 LINE"
);
},
{
closed = 1;
nodes = (
"335 362 LINE",
"460 362 LINE",
"415 235 LINE",
"288 235 LINE"
);
}
);
userData = {
assembly = "SVTCA[0]	/* SetFreedomAndProjectionVectorToAxis */
PUSHW[ ]	/* 1 value pushed */
3 
MDAP[1]	/* MoveDirectAbsPt */
PUSHW[ ]	/* 1 value pushed */
6 
MDAP[1]	/* MoveDirectAbsPt */
PUSHW[ ]	/* 1 value pushed */
17 
MDAP[1]	/* MoveDirectAbsPt */
PUSHW[ ]	/* 1 value pushed */
20 
MDAP[1]	/* MoveDirectAbsPt */
PUSHW[ ]	/* 4 values pushed */
13 3 14 4 
CALL[ ]	/* CallFunction */
PUSHW[ ]	/* 1 value pushed */
13 
SRP0[ ]	/* SetRefPoint0 */
PUSHW[ ]	/* 4 values pushed */
9 4 10 4 
CALL[ ]	/* CallFunction */
PUSHW[ ]	/* 1 value pushed */
9 
SRP0[ ]	/* SetRefPoint0 */
PUSHW[ ]	/* 1 value pushed */
0 
MDRP[10000]	/* MoveDirectRelPt */
PUSHW[ ]	/* 3 values pushed */
1 17 3 
SRP1[ ]	/* SetRefPoint1 */
SRP2[ ]	/* SetRefPoint2 */
IP[ ]	/* InterpolatePts */
PUSHW[ ]	/* 1 value pushed */
9 
SRP0[ ]	/* SetRefPoint0 */
PUSHW[ ]	/* 1 value pushed */
4 
MDRP[10000]	/* MoveDirectRelPt */
PUSHW[ ]	/* 3 values pushed */
5 17 3 
SRP1[ ]	/* SetRefPoint1 */
SRP2[ ]	/* SetRefPoint2 */
IP[ ]	/* InterpolatePts */
PUSHW[ ]	/* 1 value pushed */
14 
SRP0[ ]	/* SetRefPoint0 */
PUSHW[ ]	/* 1 value pushed */
18 
MDRP[10000]	/* MoveDirectRelPt */
PUSHW[ ]	/* 3 values pushed */
19 17 3 
SRP1[ ]	/* SetRefPoint1 */
SRP2[ ]	/* SetRefPoint2 */
IP[ ]	/* InterpolatePts */
PUSHW[ ]	/* 1 value pushed */
14 
SRP0[ ]	/* SetRefPoint0 */
PUSHW[ ]	/* 1 value pushed */
22 
MDRP[10000]	/* MoveDirectRelPt */
PUSHW[ ]	/* 1 value pushed */
13 
SRP0[ ]	/* SetRefPoint0 */
PUSHW[ ]	/* 1 value pushed */
24 
MDRP[10000]	/* MoveDirectRelPt */
PUSHW[ ]	/* 3 values pushed */
25 17 3 
SRP1[ ]	/* SetRefPoint1 */
SRP2[ ]	/* SetRefPoint2 */
IP[ ]	/* InterpolatePts */
PUSHW[ ]	/* 1 value pushed */
10 
SRP0[ ]	/* SetRefPoint0 */
PUSHW[ ]	/* 1 value pushed */
26 
MDRP[10000]	/* MoveDirectRelPt */
PUSHW[ ]	/* 1 value pushed */
10 
SRP0[ ]	/* SetRefPoint0 */
PUSHW[ ]	/* 1 value pushed */
28 
MDRP[10000]	/* MoveDirectRelPt */
PUSHW[ ]	/* 1 value pushed */
13 
SRP0[ ]	/* SetRefPoint0 */
PUSHW[ ]	/* 1 value pushed */
29 
MDRP[10000]	/* MoveDirectRelPt */
PUSHW[ ]	/* 3 values pushed */
30 17 3 
SRP1[ ]	/* SetRefPoint1 */
SRP2[ ]	/* SetRefPoint2 */
IP[ ]	/* InterpolatePts */
IUP[0]	/* InterpolateUntPts */
IUP[1]	/* InterpolateUntPts */";
};
width = 749;
}
);
note = numbersign;
unicode = 0023;
},
{
glyphname = dollar;
lastChange = "2020-12-31 21:27:39 +0000";
layers = (
{
layerId = "6873DD1C-7BCD-4DE2-A211-237E2294755D";
paths = (
{
closed = 1;
nodes = (
"223 520 OFFCURVE",
"261 520 OFFCURVE",
"284 514 CURVE SMOOTH",
"323 504 OFFCURVE",
"338 468.667 OFFCURVE",
"338 430 CURVE SMOOTH",
"338 415.333 OFFCURVE",
"336 406.667 OFFCURVE",
"332 396 CURVE",
"337.333 376 OFFCURVE",
"353.333 361 OFFCURVE",
"376 361 CURVE SMOOTH",
"404 361 OFFCURVE",
"425 385 OFFCURVE",
"425 413 CURVE SMOOTH",
"425 478.333 OFFCURVE",
"364 520 OFFCURVE",
"284 530 CURVE SMOOTH",
"259 533 OFFCURVE",
"224 534 OFFCURVE",
"199 530 CURVE SMOOTH",
"117 517 OFFCURVE",
"53 464.81 OFFCURVE",
"53 380 CURVE SMOOTH",
"53 300 OFFCURVE",
"107 261 OFFCURVE",
"177.5 240.5 CURVE SMOOTH",
"267 214 LINE SMOOTH",
"327 196 OFFCURVE",
"359 168 OFFCURVE",
"359 116 CURVE SMOOTH",
"359 68 OFFCURVE",
"334 27 OFFCURVE",
"284 14 CURVE SMOOTH",
"253 6 OFFCURVE",
"224 7 OFFCURVE",
"200 11 CURVE SMOOTH",
"147 21 OFFCURVE",
"132 58 OFFCURVE",
"132 98 CURVE SMOOTH",
"132 112.667 OFFCURVE",
"134 121.333 OFFCURVE",
"138 132 CURVE",
"132.667 152 OFFCURVE",
"114.667 167 OFFCURVE",
"92 167 CURVE SMOOTH",
"65.333 167 OFFCURVE",
"42 143 OFFCURVE",
"42 115 CURVE SMOOTH",
"42 47 OFFCURVE",
"104 3.667 OFFCURVE",
"199 -3 CURVE",
"242 -6 OFFCURVE",
"258 -5 OFFCURVE",
"284 -2 CURVE",
"376 10 OFFCURVE",
"438 69 OFFCURVE",
"438 145 CURVE SMOOTH",
"438 213 OFFCURVE",
"395 262 OFFCURVE",
"323 284 CURVE SMOOTH",
"200 321 LINE SMOOTH",
"156 334 OFFCURVE",
"127 366.333 OFFCURVE",
"127 417 CURVE SMOOTH",
"127 467.667 OFFCURVE",
"154 502 OFFCURVE",
"200 514 CURVE SMOOTH"
);
},
{
closed = 1;
nodes = (
"273 -91 LINE",
"273 610 LINE",
"233 610 LINE",
"233 -91 LINE"
);
}
);
userData = {
assembly = "PUSHW[ ]	/* 4 values pushed */
51 6 60 4 
CALL[ ]	/* CallFunction */
PUSHW[ ]	/* 1 value pushed */
51 
SRP0[ ]	/* SetRefPoint0 */
PUSHW[ ]	/* 4 values pushed */
22 5 36 4 
CALL[ ]	/* CallFunction */
PUSHW[ ]	/* 1 value pushed */
22 
SRP0[ ]	/* SetRefPoint0 */
PUSHW[ ]	/* 4 values pushed */
0 5 106 4 
CALL[ ]	/* CallFunction */
PUSHW[ ]	/* 1 value pushed */
0 
SRP0[ ]	/* SetRefPoint0 */
PUSHW[ ]	/* 1 value pushed */
22 
SRP0[ ]	/* SetRefPoint0 */
PUSHW[ ]	/* 1 value pushed */
6 
MDRP[10000]	/* MoveDirectRelPt */
PUSHW[ ]	/* 3 values pushed */
24 36 22 
SRP1[ ]	/* SetRefPoint1 */
SRP2[ ]	/* SetRefPoint2 */
IP[ ]	/* InterpolatePts */
PUSHW[ ]	/* 1 value pushed */
24 
MDAP[1]	/* MoveDirectAbsPt */
PUSHW[ ]	/* 2 values pushed */
19 7 
MIRP[11100]	/* MoveIndirectRelPt */
PUSHW[ ]	/* 3 values pushed */
7 24 19 
SRP1[ ]	/* SetRefPoint1 */
SRP2[ ]	/* SetRefPoint2 */
IP[ ]	/* InterpolatePts */
PUSHW[ ]	/* 2 values pushed */
10 6 
MIRP[11100]	/* MoveIndirectRelPt */
NPUSHW[ ]	/* 13 values pushed */
6 51 22 51 38 51 54 51 70 51 86 51 6 
DELTAP1[ ]	/* DeltaExceptionP1 */
NPUSHW[ ]	/* 5 values pushed */
101 51 117 51 2 
DELTAP1[ ]	/* DeltaExceptionP1 */
PUSHW[ ]	/* 1 value pushed */
51 
SRP0[ ]	/* SetRefPoint0 */
PUSHW[ ]	/* 2 values pushed */
41 5 
MIRP[11100]	/* MoveIndirectRelPt */
PUSHW[ ]	/* 2 values pushed */
86 7 
MIRP[11100]	/* MoveIndirectRelPt */
PUSHW[ ]	/* 1 value pushed */
33 
MDRP[10000]	/* MoveDirectRelPt */
PUSHW[ ]	/* 1 value pushed */
36 
SRP0[ ]	/* SetRefPoint0 */
PUSHW[ ]	/* 1 value pushed */
47 
MDRP[10000]	/* MoveDirectRelPt */
PUSHW[ ]	/* 1 value pushed */
36 
SRP0[ ]	/* SetRefPoint0 */
PUSHW[ ]	/* 1 value pushed */
63 
MDRP[10000]	/* MoveDirectRelPt */
PUSHW[ ]	/* 1 value pushed */
86 
SRP0[ ]	/* SetRefPoint0 */
PUSHW[ ]	/* 1 value pushed */
65 
MDRP[10000]	/* MoveDirectRelPt */
PUSHW[ ]	/* 1 value pushed */
65 
MDAP[1]	/* MoveDirectAbsPt */
PUSHW[ ]	/* 1 value pushed */
24 
SRP0[ ]	/* SetRefPoint0 */
PUSHW[ ]	/* 1 value pushed */
71 
MDRP[10000]	/* MoveDirectRelPt */
PUSHW[ ]	/* 1 value pushed */
71 
MDAP[1]	/* MoveDirectAbsPt */
PUSHW[ ]	/* 1 value pushed */
22 
SRP0[ ]	/* SetRefPoint0 */
PUSHW[ ]	/* 1 value pushed */
73 
MDRP[10000]	/* MoveDirectRelPt */
PUSHW[ ]	/* 1 value pushed */
73 
MDAP[1]	/* MoveDirectAbsPt */
PUSHW[ ]	/* 1 value pushed */
36 
SRP0[ ]	/* SetRefPoint0 */
PUSHW[ ]	/* 1 value pushed */
77 
MDRP[10000]	/* MoveDirectRelPt */
PUSHW[ ]	/* 1 value pushed */
51 
SRP0[ ]	/* SetRefPoint0 */
PUSHW[ ]	/* 1 value pushed */
80 
MDRP[10000]	/* MoveDirectRelPt */
PUSHW[ ]	/* 1 value pushed */
80 
MDAP[1]	/* MoveDirectAbsPt */
PUSHW[ ]	/* 3 values pushed */
83 41 86 
SRP1[ ]	/* SetRefPoint1 */
SRP2[ ]	/* SetRefPoint2 */
IP[ ]	/* InterpolatePts */
PUSHW[ ]	/* 1 value pushed */
24 
SRP0[ ]	/* SetRefPoint0 */
PUSHW[ ]	/* 1 value pushed */
84 
MDRP[10000]	/* MoveDirectRelPt */
PUSHW[ ]	/* 1 value pushed */
84 
MDAP[1]	/* MoveDirectAbsPt */
PUSHW[ ]	/* 1 value pushed */
24 
SRP0[ ]	/* SetRefPoint0 */
PUSHW[ ]	/* 1 value pushed */
94 
MDRP[10000]	/* MoveDirectRelPt */
PUSHW[ ]	/* 1 value pushed */
94 
MDAP[1]	/* MoveDirectAbsPt */
PUSHW[ ]	/* 1 value pushed */
86 
SRP0[ ]	/* SetRefPoint0 */
PUSHW[ ]	/* 1 value pushed */
101 
MDRP[10000]	/* MoveDirectRelPt */
NPUSHW[ ]	/* 5 values pushed */
106 106 122 106 2 
DELTAP1[ ]	/* DeltaExceptionP1 */
NPUSHW[ ]	/* 13 values pushed */
9 106 25 106 41 106 57 106 73 106 89 106 6 
DELTAP1[ ]	/* DeltaExceptionP1 */
PUSHW[ ]	/* 1 value pushed */
22 
SRP0[ ]	/* SetRefPoint0 */
PUSHW[ ]	/* 1 value pushed */
109 
MDRP[10000]	/* MoveDirectRelPt */
PUSHW[ ]	/* 3 values pushed */
110 24 19 
SRP1[ ]	/* SetRefPoint1 */
SRP2[ ]	/* SetRefPoint2 */
IP[ ]	/* InterpolatePts */
SVTCA[0]	/* SetFreedomAndProjectionVectorToAxis */
PUSHW[ ]	/* 1 value pushed */
23 
MDAP[1]	/* MoveDirectAbsPt */
PUSHW[ ]	/* 1 value pushed */
34 
MDAP[1]	/* MoveDirectAbsPt */
PUSHW[ ]	/* 1 value pushed */
64 
MDAP[1]	/* MoveDirectAbsPt */
PUSHW[ ]	/* 1 value pushed */
72 
MDAP[1]	/* MoveDirectAbsPt */
PUSHW[ ]	/* 3 values pushed */
7 64 23 
SRP1[ ]	/* SetRefPoint1 */
SRP2[ ]	/* SetRefPoint2 */
IP[ ]	/* InterpolatePts */
PUSHW[ ]	/* 3 values pushed */
77 64 23 
SRP1[ ]	/* SetRefPoint1 */
SRP2[ ]	/* SetRefPoint2 */
IP[ ]	/* InterpolatePts */
PUSHW[ ]	/* 3 values pushed */
83 64 23 
SRP1[ ]	/* SetRefPoint1 */
SRP2[ ]	/* SetRefPoint2 */
IP[ ]	/* InterpolatePts */
PUSHW[ ]	/* 3 values pushed */
84 64 23 
SRP1[ ]	/* SetRefPoint1 */
SRP2[ ]	/* SetRefPoint2 */
IP[ ]	/* InterpolatePts */
PUSHW[ ]	/* 3 values pushed */
109 64 23 
SRP1[ ]	/* SetRefPoint1 */
SRP2[ ]	/* SetRefPoint2 */
IP[ ]	/* InterpolatePts */
PUSHW[ ]	/* 3 values pushed */
110 64 23 
SRP1[ ]	/* SetRefPoint1 */
SRP2[ ]	/* SetRefPoint2 */
IP[ ]	/* InterpolatePts */
IUP[0]	/* InterpolateUntPts */
IUP[1]	/* InterpolateUntPts */";
};
width = 482;
}
);
note = dollar;
unicode = 0024;
},
{
glyphname = percent;
lastChange = "2020-12-28 02:01:01 +0000";
layers = (
{
layerId = "6873DD1C-7BCD-4DE2-A211-237E2294755D";
paths = (
{
closed = 1;
nodes = (
"550 624 LINE",
"526 640 LINE",
"101 22 LINE",
"125 7 LINE"
);
},
{
closed = 1;
nodes = (
"549.363 -2 OFFCURVE",
"607 52.496 OFFCURVE",
"607 132 CURVE SMOOTH",
"607 211.607 OFFCURVE",
"548.099 264 OFFCURVE",
"481 264 CURVE SMOOTH",
"406.981 264 OFFCURVE",
"349 204.949 OFFCURVE",
"349 134 CURVE SMOOTH",
"349 43.073 OFFCURVE",
"414.239 -2 OFFCURVE",
"480 -2 CURVE SMOOTH"
);
},
{
closed = 1;
nodes = (
"424.061 23 OFFCURVE",
"384 73.564 OFFCURVE",
"384 129 CURVE SMOOTH",
"384 185.509 OFFCURVE",
"423.46 237 OFFCURVE",
"479 237 CURVE SMOOTH",
"535.652 237 OFFCURVE",
"573 185.509 OFFCURVE",
"573 129 CURVE SMOOTH",
"573 73.15 OFFCURVE",
"536.304 23 OFFCURVE",
"480 23 CURVE SMOOTH"
);
},
{
closed = 1;
nodes = (
"249.931 390 OFFCURVE",
"308 448.545 OFFCURVE",
"308 526 CURVE SMOOTH",
"308 605.607 OFFCURVE",
"249.099 658 OFFCURVE",
"182 658 CURVE SMOOTH",
"107.981 658 OFFCURVE",
"50 598.949 OFFCURVE",
"50 528 CURVE SMOOTH",
"50 439.316 OFFCURVE",
"115.899 390 OFFCURVE",
"181 390 CURVE SMOOTH"
);
},
{
closed = 1;
nodes = (
"125.061 417 OFFCURVE",
"85 467.564 OFFCURVE",
"85 523 CURVE SMOOTH",
"85 579.509 OFFCURVE",
"124.46 631 OFFCURVE",
"180 631 CURVE SMOOTH",
"236.652 631 OFFCURVE",
"274 579.509 OFFCURVE",
"274 523 CURVE SMOOTH",
"274 467.15 OFFCURVE",
"237.304 417 OFFCURVE",
"181 417 CURVE SMOOTH"
);
}
);
userData = {
assembly = "PUSHW[ ]	/* 3 values pushed */
54 10 3 
CALL[ ]	/* CallFunction */
PUSHW[ ]	/* 1 value pushed */
54 
SRP0[ ]	/* SetRefPoint0 */
PUSHW[ ]	/* 3 values pushed */
0 44 3 
CALL[ ]	/* CallFunction */
PUSHW[ ]	/* 1 value pushed */
0 
SRP0[ ]	/* SetRefPoint0 */
PUSHW[ ]	/* 3 values pushed */
74 34 3 
CALL[ ]	/* CallFunction */
PUSHW[ ]	/* 1 value pushed */
74 
SRP0[ ]	/* SetRefPoint0 */
PUSHW[ ]	/* 3 values pushed */
24 64 3 
CALL[ ]	/* CallFunction */
PUSHW[ ]	/* 1 value pushed */
24 
SRP0[ ]	/* SetRefPoint0 */
NPUSHW[ ]	/* 27 values pushed */
6 0 22 0 38 0 54 0 70 0 86 0 102 0 118 0 134 0 150 0 166 0 182 0 198 0 13 
DELTAP1[ ]	/* DeltaExceptionP1 */
NPUSHW[ ]	/* 5 values pushed */
213 0 229 0 2 
DELTAP1[ ]	/* DeltaExceptionP1 */
NPUSHW[ ]	/* 5 values pushed */
218 34 234 34 2 
DELTAP1[ ]	/* DeltaExceptionP1 */
NPUSHW[ ]	/* 27 values pushed */
9 34 25 34 41 34 57 34 73 34 89 34 105 34 121 34 137 34 153 34 169 34 185 34 201 34 13 
DELTAP1[ ]	/* DeltaExceptionP1 */
NPUSHW[ ]	/* 27 values pushed */
6 54 22 54 38 54 54 54 70 54 86 54 102 54 118 54 134 54 150 54 166 54 182 54 198 54 13 
DELTAP1[ ]	/* DeltaExceptionP1 */
NPUSHW[ ]	/* 5 values pushed */
213 54 229 54 2 
DELTAP1[ ]	/* DeltaExceptionP1 */
NPUSHW[ ]	/* 5 values pushed */
218 64 234 64 2 
DELTAP1[ ]	/* DeltaExceptionP1 */
NPUSHW[ ]	/* 27 values pushed */
9 64 25 64 41 64 57 64 73 64 89 64 105 64 121 64 137 64 153 64 169 64 185 64 201 64 13 
DELTAP1[ ]	/* DeltaExceptionP1 */
PUSHW[ ]	/* 1 value pushed */
85 
MDRP[11100]	/* MoveDirectRelPt */
SVTCA[0]	/* SetFreedomAndProjectionVectorToAxis */
PUSHW[ ]	/* 1 value pushed */
0 
RCVT[ ]	/* ReadCVT */
IF[ ]	/* If */
PUSHW[ ]	/* 1 value pushed */
39 
MDAP[1]	/* MoveDirectAbsPt */
ELSE[ ]	/* Else */
PUSHW[ ]	/* 2 values pushed */
39 8 
MIAP[0]	/* MoveIndirectAbsPt */
EIF[ ]	/* EndIf */
PUSHW[ ]	/* 4 values pushed */
5 2 59 4 
CALL[ ]	/* CallFunction */
PUSHW[ ]	/* 1 value pushed */
5 
SRP0[ ]	/* SetRefPoint0 */
PUSHW[ ]	/* 4 values pushed */
29 2 79 4 
CALL[ ]	/* CallFunction */
PUSHW[ ]	/* 1 value pushed */
29 
SRP0[ ]	/* SetRefPoint0 */
PUSHW[ ]	/* 4 values pushed */
49 2 15 4 
CALL[ ]	/* CallFunction */
PUSHW[ ]	/* 1 value pushed */
49 
SRP0[ ]	/* SetRefPoint0 */
PUSHW[ ]	/* 1 value pushed */
39 
SRP0[ ]	/* SetRefPoint0 */
PUSHW[ ]	/* 2 values pushed */
69 2 
MIRP[11100]	/* MoveIndirectRelPt */
NPUSHW[ ]	/* 33 values pushed */
7 69 23 69 39 69 55 69 71 69 87 69 103 69 119 69 135 69 151 69 167 69 183 69 199 69 215 69 231 69 247 69 16 
DELTAP1[ ]	/* DeltaExceptionP1 */
NPUSHW[ ]	/* 33 values pushed */
7 69 23 69 39 69 55 69 71 69 87 69 103 69 119 69 135 69 151 69 167 69 183 69 199 69 215 69 231 69 247 69 16 
DELTAP2[ ]	/* DeltaExceptionP2 */
NPUSHW[ ]	/* 33 values pushed */
7 69 23 69 39 69 55 69 71 69 87 69 103 69 119 69 135 69 151 69 167 69 183 69 199 69 215 69 231 69 247 69 16 
DELTAP3[ ]	/* DeltaExceptionP3 */
IUP[0]	/* InterpolateUntPts */
IUP[1]	/* InterpolateUntPts */";
};
width = 647;
}
);
note = percent;
unicode = 0025;
},
{
glyphname = ampersand;
lastChange = "2020-12-31 21:28:48 +0000";
layers = (
{
layerId = "6873DD1C-7BCD-4DE2-A211-237E2294755D";
paths = (
{
closed = 1;
nodes = (
"764.827 -13 OFFCURVE",
"849.55 65.858 OFFCURVE",
"872 130 CURVE",
"863 134 LINE",
"842.664 99.139 OFFCURVE",
"795.082 54 OFFCURVE",
"747 54 CURVE SMOOTH",
"695 54 OFFCURVE",
"663.667 79 OFFCURVE",
"629 115 CURVE SMOOTH",
"611 133.667 OFFCURVE",
"596 150.833 OFFCURVE",
"584 166.5 CURVE SMOOTH",
"572 182.167 OFFCURVE",
"559 194 OFFCURVE",
"550 206 CURVE",
"593 255 OFFCURVE",
"659.888 342.778 OFFCURVE",
"701.5 385.5 CURVE SMOOTH",
"751.5 436.833 OFFCURVE",
"805.667 474.667 OFFCURVE",
"875 484 CURVE",
"875 496 LINE",
"526 488 LINE",
"526 476 LINE",
"590.248 473.207 OFFCURVE",
"656 471.758 OFFCURVE",
"656 414 CURVE SMOOTH",
"656 375.481 OFFCURVE",
"589 282 OFFCURVE",
"539 218 CURVE",
"526 231 OFFCURVE",
"384 403 OFFCURVE",
"343 450 CURVE",
"382.261 473.557 OFFCURVE",
"456 526.59 OFFCURVE",
"456 605 CURVE SMOOTH",
"456 686.634 OFFCURVE",
"384.863 732 OFFCURVE",
"310 732 CURVE SMOOTH",
"226.129 732 OFFCURVE",
"138 668.967 OFFCURVE",
"138 583 CURVE SMOOTH",
"138 497.229 OFFCURVE",
"183.288 464.426 OFFCURVE",
"243 402 CURVE",
"146.499 353.75 OFFCURVE",
"47 280.881 OFFCURVE",
"47 170 CURVE SMOOTH",
"47 65.804 OFFCURVE",
"124.776 -8 OFFCURVE",
"244 -8 CURVE SMOOTH",
"347.086 -8 OFFCURVE",
"442 66 OFFCURVE",
"485 128 CURVE",
"532 53 OFFCURVE",
"590.75 -13 OFFCURVE",
"676 -13 CURVE SMOOTH"
);
},
{
closed = 1;
nodes = (
"209.781 62 OFFCURVE",
"152 128.046 OFFCURVE",
"152 210 CURVE SMOOTH",
"152 287.07 OFFCURVE",
"204.663 352.37 OFFCURVE",
"254 393 CURVE",
"325 319 OFFCURVE",
"398 233 OFFCURVE",
"472 139 CURVE",
"415.735 88.093 OFFCURVE",
"373.261 62 OFFCURVE",
"293 62 CURVE SMOOTH"
);
},
{
closed = 1;
nodes = (
"298 490 OFFCURVE",
"273.667 509 OFFCURVE",
"251 541 CURVE SMOOTH",
"231 569 OFFCURVE",
"224 587.333 OFFCURVE",
"224 630 CURVE SMOOTH",
"224 666.421 OFFCURVE",
"247.627 710 OFFCURVE",
"292 710 CURVE SMOOTH",
"346.87 710 OFFCURVE",
"383 645.724 OFFCURVE",
"383 585 CURVE SMOOTH",
"383 529 OFFCURVE",
"368.667 494 OFFCURVE",
"334 458 CURVE"
);
}
);
userData = {
assembly = "PUSHW[ ]	/* 4 values pushed */
110 7 44 4 
CALL[ ]	/* CallFunction */
PUSHW[ ]	/* 1 value pushed */
110 
SRP0[ ]	/* SetRefPoint0 */
PUSHW[ ]	/* 4 values pushed */
24 5 81 4 
CALL[ ]	/* CallFunction */
PUSHW[ ]	/* 1 value pushed */
24 
SRP0[ ]	/* SetRefPoint0 */
NPUSHW[ ]	/* 13 values pushed */
6 24 22 24 38 24 54 24 70 24 86 24 6 
DELTAP1[ ]	/* DeltaExceptionP1 */
NPUSHW[ ]	/* 5 values pushed */
101 24 117 24 2 
DELTAP1[ ]	/* DeltaExceptionP1 */
PUSHW[ ]	/* 3 values pushed */
19 44 24 
SRP1[ ]	/* SetRefPoint1 */
SRP2[ ]	/* SetRefPoint2 */
IP[ ]	/* InterpolatePts */
NPUSHW[ ]	/* 13 values pushed */
6 110 22 110 38 110 54 110 70 110 86 110 6 
DELTAP1[ ]	/* DeltaExceptionP1 */
NPUSHW[ ]	/* 5 values pushed */
101 110 117 110 2 
DELTAP1[ ]	/* DeltaExceptionP1 */
PUSHW[ ]	/* 3 values pushed */
34 44 110 
SRP1[ ]	/* SetRefPoint1 */
SRP2[ ]	/* SetRefPoint2 */
IP[ ]	/* InterpolatePts */
PUSHW[ ]	/* 1 value pushed */
34 
MDAP[1]	/* MoveDirectAbsPt */
PUSHW[ ]	/* 3 values pushed */
39 44 24 
SRP1[ ]	/* SetRefPoint1 */
SRP2[ ]	/* SetRefPoint2 */
IP[ ]	/* InterpolatePts */
PUSHW[ ]	/* 2 values pushed */
90 5 
MIRP[11100]	/* MoveIndirectRelPt */
SVTCA[0]	/* SetFreedomAndProjectionVectorToAxis */
PUSHW[ ]	/* 1 value pushed */
49 
MDAP[1]	/* MoveDirectAbsPt */
PUSHW[ ]	/* 1 value pushed */
59 
MDAP[1]	/* MoveDirectAbsPt */
PUSHW[ ]	/* 1 value pushed */
0 
RCVT[ ]	/* ReadCVT */
IF[ ]	/* If */
PUSHW[ ]	/* 1 value pushed */
29 
MDAP[1]	/* MoveDirectAbsPt */
ELSE[ ]	/* Else */
PUSHW[ ]	/* 2 values pushed */
29 14 
MIAP[0]	/* MoveIndirectAbsPt */
EIF[ ]	/* EndIf */
PUSHW[ ]	/* 3 values pushed */
13 59 29 
SRP1[ ]	/* SetRefPoint1 */
SRP2[ ]	/* SetRefPoint2 */
IP[ ]	/* InterpolatePts */
PUSHW[ ]	/* 3 values pushed */
19 59 29 
SRP1[ ]	/* SetRefPoint1 */
SRP2[ ]	/* SetRefPoint2 */
IP[ ]	/* InterpolatePts */
PUSHW[ ]	/* 3 values pushed */
39 59 29 
SRP1[ ]	/* SetRefPoint1 */
SRP2[ ]	/* SetRefPoint2 */
IP[ ]	/* InterpolatePts */
PUSHW[ ]	/* 3 values pushed */
54 59 29 
SRP1[ ]	/* SetRefPoint1 */
SRP2[ ]	/* SetRefPoint2 */
IP[ ]	/* InterpolatePts */
PUSHW[ ]	/* 1 value pushed */
49 
SRP0[ ]	/* SetRefPoint0 */
PUSHW[ ]	/* 2 values pushed */
70 3 
MIRP[11100]	/* MoveIndirectRelPt */
NPUSHW[ ]	/* 33 values pushed */
7 70 23 70 39 70 55 70 71 70 87 70 103 70 119 70 135 70 151 70 167 70 183 70 199 70 215 70 231 70 247 70 16 
DELTAP1[ ]	/* DeltaExceptionP1 */
NPUSHW[ ]	/* 13 values pushed */
7 70 23 70 39 70 55 70 71 70 87 70 6 
DELTAP2[ ]	/* DeltaExceptionP2 */
NPUSHW[ ]	/* 5 values pushed */
102 70 118 70 2 
DELTAP2[ ]	/* DeltaExceptionP2 */
PUSHW[ ]	/* 1 value pushed */
29 
SRP0[ ]	/* SetRefPoint0 */
PUSHW[ ]	/* 2 values pushed */
95 1 
MIRP[11100]	/* MoveIndirectRelPt */
NPUSHW[ ]	/* 33 values pushed */
8 95 24 95 40 95 56 95 72 95 88 95 104 95 120 95 136 95 152 95 168 95 184 95 200 95 216 95 232 95 248 95 16 
DELTAP1[ ]	/* DeltaExceptionP1 */
NPUSHW[ ]	/* 33 values pushed */
8 95 24 95 40 95 56 95 72 95 88 95 104 95 120 95 136 95 152 95 168 95 184 95 200 95 216 95 232 95 248 95 16 
DELTAP2[ ]	/* DeltaExceptionP2 */
NPUSHW[ ]	/* 33 values pushed */
8 95 24 95 40 95 56 95 72 95 88 95 104 95 120 95 136 95 152 95 168 95 184 95 200 95 216 95 232 95 248 95 16 
DELTAP3[ ]	/* DeltaExceptionP3 */
PUSHW[ ]	/* 1 value pushed */
49 
SRP0[ ]	/* SetRefPoint0 */
PUSHW[ ]	/* 2 values pushed */
105 4 
MIRP[11100]	/* MoveIndirectRelPt */
NPUSHW[ ]	/* 13 values pushed */
7 105 23 105 39 105 55 105 71 105 87 105 6 
DELTAP1[ ]	/* DeltaExceptionP1 */
NPUSHW[ ]	/* 5 values pushed */
102 105 118 105 2 
DELTAP1[ ]	/* DeltaExceptionP1 */
IUP[0]	/* InterpolateUntPts */
IUP[1]	/* InterpolateUntPts */";
};
width = 854;
}
);
note = ampersand;
unicode = 0026;
},
{
glyphname = quotesingle;
lastChange = "2020-12-28 02:01:01 +0000";
layers = (
{
layerId = "6873DD1C-7BCD-4DE2-A211-237E2294755D";
paths = (
{
closed = 1;
nodes = (
"116 424 LINE",
"124 492 OFFCURVE",
"133 550.333 OFFCURVE",
"141 593 CURVE SMOOTH",
"147.343 626.829 OFFCURVE",
"155 664.946 OFFCURVE",
"155 676 CURVE SMOOTH",
"155 704 OFFCURVE",
"130 726 OFFCURVE",
"110 726 CURVE SMOOTH",
"90 726 OFFCURVE",
"66 704.333 OFFCURVE",
"66 675 CURVE SMOOTH",
"66 662.333 OFFCURVE",
"70.5 634.5 OFFCURVE",
"79.5 591.5 CURVE SMOOTH",
"88.5 548.5 OFFCURVE",
"96.667 492.667 OFFCURVE",
"104 424 CURVE"
);
}
);
userData = {
assembly = "SVTCA[0]	/* SetFreedomAndProjectionVectorToAxis */
PUSHW[ ]	/* 1 value pushed */
9 
MDAP[1]	/* MoveDirectAbsPt */
PUSHW[ ]	/* 1 value pushed */
0 
RCVT[ ]	/* ReadCVT */
IF[ ]	/* If */
PUSHW[ ]	/* 1 value pushed */
3 
MDAP[1]	/* MoveDirectAbsPt */
ELSE[ ]	/* Else */
PUSHW[ ]	/* 2 values pushed */
3 14 
MIAP[0]	/* MoveIndirectAbsPt */
EIF[ ]	/* EndIf */
IUP[0]	/* InterpolateUntPts */
IUP[1]	/* InterpolateUntPts */";
};
width = 222;
}
);
note = quotesingle;
unicode = 0027;
},
{
glyphname = parenleft;
lastChange = "2020-12-31 22:42:34 +0000";
layers = (
{
layerId = "6873DD1C-7BCD-4DE2-A211-237E2294755D";
paths = (
{
closed = 1;
nodes = (
"293 -128 LINE",
"239.667 -90.667 OFFCURVE",
"200 -39 OFFCURVE",
"158 30 CURVE SMOOTH",
"116 98 OFFCURVE",
"88 187 OFFCURVE",
"88 295 CURVE SMOOTH",
"88 402 OFFCURVE",
"114 486 OFFCURVE",
"155 555 CURVE SMOOTH",
"195 623 OFFCURVE",
"237 676.667 OFFCURVE",
"293 718 CURVE",
"279 731 LINE",
"217.667 685.667 OFFCURVE",
"157.333 632.5 OFFCURVE",
"112 562.5 CURVE SMOOTH",
"66.667 492.5 OFFCURVE",
"21 407 OFFCURVE",
"21 295 CURVE SMOOTH",
"21 179 OFFCURVE",
"68.5 91.167 OFFCURVE",
"114.5 22.5 CURVE SMOOTH",
"160.5 -46.167 OFFCURVE",
"222.667 -98.333 OFFCURVE",
"280 -141 CURVE"
);
}
);
userData = {
assembly = "PUSHW[ ]	/* 3 values pushed */
5 16 3 
CALL[ ]	/* CallFunction */
PUSHW[ ]	/* 1 value pushed */
5 
SRP0[ ]	/* SetRefPoint0 */
NPUSHW[ ]	/* 27 values pushed */
6 5 22 5 38 5 54 5 70 5 86 5 102 5 118 5 134 5 150 5 166 5 182 5 198 5 13 
DELTAP1[ ]	/* DeltaExceptionP1 */
NPUSHW[ ]	/* 5 values pushed */
213 5 229 5 2 
DELTAP1[ ]	/* DeltaExceptionP1 */
SVTCA[0]	/* SetFreedomAndProjectionVectorToAxis */
PUSHW[ ]	/* 1 value pushed */
21 
MDAP[1]	/* MoveDirectAbsPt */
PUSHW[ ]	/* 1 value pushed */
0 
RCVT[ ]	/* ReadCVT */
IF[ ]	/* If */
PUSHW[ ]	/* 1 value pushed */
11 
MDAP[1]	/* MoveDirectAbsPt */
ELSE[ ]	/* Else */
PUSHW[ ]	/* 2 values pushed */
11 14 
MIAP[0]	/* MoveIndirectAbsPt */
EIF[ ]	/* EndIf */
IUP[0]	/* InterpolateUntPts */
IUP[1]	/* InterpolateUntPts */";
};
width = 313;
}
);
note = parenleft;
unicode = 0028;
},
{
glyphname = parenright;
lastChange = "2020-12-31 22:43:02 +0000";
layers = (
{
layerId = "6873DD1C-7BCD-4DE2-A211-237E2294755D";
paths = (
{
closed = 1;
nodes = (
"91 -98 OFFCURVE",
"154 -46 OFFCURVE",
"200 23 CURVE SMOOTH",
"246 91 OFFCURVE",
"293 179 OFFCURVE",
"293 295 CURVE SMOOTH",
"293 407 OFFCURVE",
"247 493 OFFCURVE",
"202 563 CURVE SMOOTH",
"157 633 OFFCURVE",
"96 686 OFFCURVE",
"35 731 CURVE",
"21 718 LINE",
"77 677 OFFCURVE",
"119 623 OFFCURVE",
"159 555 CURVE SMOOTH",
"200 486 OFFCURVE",
"226 402 OFFCURVE",
"226 295 CURVE SMOOTH",
"226 187 OFFCURVE",
"198 98 OFFCURVE",
"156 30 CURVE SMOOTH",
"114 -39 OFFCURVE",
"74 -91 OFFCURVE",
"21 -128 CURVE",
"34 -141 LINE"
);
}
);
userData = {
assembly = "PUSHW[ ]	/* 3 values pushed */
0 11 3 
CALL[ ]	/* CallFunction */
NPUSHW[ ]	/* 5 values pushed */
218 11 234 11 2 
DELTAP1[ ]	/* DeltaExceptionP1 */
NPUSHW[ ]	/* 27 values pushed */
9 11 25 11 41 11 57 11 73 11 89 11 105 11 121 11 137 11 153 11 169 11 185 11 201 11 13 
DELTAP1[ ]	/* DeltaExceptionP1 */
SVTCA[0]	/* SetFreedomAndProjectionVectorToAxis */
PUSHW[ ]	/* 1 value pushed */
17 
MDAP[1]	/* MoveDirectAbsPt */
PUSHW[ ]	/* 1 value pushed */
0 
RCVT[ ]	/* ReadCVT */
IF[ ]	/* If */
PUSHW[ ]	/* 1 value pushed */
5 
MDAP[1]	/* MoveDirectAbsPt */
ELSE[ ]	/* Else */
PUSHW[ ]	/* 2 values pushed */
5 14 
MIAP[0]	/* MoveIndirectAbsPt */
EIF[ ]	/* EndIf */
IUP[0]	/* InterpolateUntPts */
IUP[1]	/* InterpolateUntPts */";
};
width = 313;
}
);
note = parenright;
unicode = 0029;
},
{
glyphname = asterisk;
lastChange = "2020-12-28 02:01:01 +0000";
layers = (
{
layerId = "6873DD1C-7BCD-4DE2-A211-237E2294755D";
paths = (
{
closed = 1;
nodes = (
"197 378 LINE",
"209 403.333 OFFCURVE",
"215 423 OFFCURVE",
"215 451 CURVE SMOOTH",
"215 465.667 OFFCURVE",
"212.833 479.5 OFFCURVE",
"208.5 492.5 CURVE SMOOTH",
"204.167 505.5 OFFCURVE",
"200.333 520 OFFCURVE",
"197 536 CURVE",
"207 541 LINE",
"219 530.333 OFFCURVE",
"230.167 520.167 OFFCURVE",
"240.5 510.5 CURVE SMOOTH",
"250.833 500.833 OFFCURVE",
"262.333 492.333 OFFCURVE",
"275 485 CURVE",
"297.667 470.333 OFFCURVE",
"316 465.333 OFFCURVE",
"344 464 CURVE",
"348 470 LINE",
"323.738 518.525 OFFCURVE",
"283.866 526.331 OFFCURVE",
"213 547 CURVE",
"213 560 LINE",
"228.333 565.333 OFFCURVE",
"242.167 569.333 OFFCURVE",
"254.5 572 CURVE SMOOTH",
"266.833 574.667 OFFCURVE",
"280.333 580.333 OFFCURVE",
"295 589 CURVE SMOOTH",
"321.667 605 OFFCURVE",
"333.333 615 OFFCURVE",
"348 639 CURVE",
"344 646 LINE",
"318.253 646 OFFCURVE",
"300.773 638.058 OFFCURVE",
"275 624 CURVE SMOOTH",
"247.527 607.974 OFFCURVE",
"233.361 589.654 OFFCURVE",
"209 568 CURVE",
"198 574 LINE",
"201.333 590 OFFCURVE",
"205 604.667 OFFCURVE",
"209 618 CURVE SMOOTH",
"213 631.333 OFFCURVE",
"215 645 OFFCURVE",
"215 659 CURVE SMOOTH",
"215 687 OFFCURVE",
"209 705.667 OFFCURVE",
"197 731 CURVE",
"189 731 LINE",
"177 705.667 OFFCURVE",
"172 687 OFFCURVE",
"172 659 CURVE SMOOTH",
"172 643 OFFCURVE",
"174 628.667 OFFCURVE",
"178 616 CURVE SMOOTH",
"182 603.333 OFFCURVE",
"185.667 589.333 OFFCURVE",
"189 574 CURVE",
"179 568 LINE",
"154.406 587.675 OFFCURVE",
"141.774 606.293 OFFCURVE",
"113 624 CURVE SMOOTH",
"89 638.667 OFFCURVE",
"72.333 644.667 OFFCURVE",
"43 646 CURVE",
"40 639 LINE",
"54.667 615 OFFCURVE",
"68 603.667 OFFCURVE",
"92 589 CURVE SMOOTH",
"104.667 581 OFFCURVE",
"117.833 575.5 OFFCURVE",
"131.5 572.5 CURVE SMOOTH",
"145.167 569.5 OFFCURVE",
"159.667 565.333 OFFCURVE",
"175 560 CURVE",
"175 547 LINE",
"159 542.333 OFFCURVE",
"144.833 538.833 OFFCURVE",
"132.5 536.5 CURVE SMOOTH",
"120.167 534.167 OFFCURVE",
"106.667 528.667 OFFCURVE",
"92 520 CURVE SMOOTH",
"68 506.667 OFFCURVE",
"55 496.333 OFFCURVE",
"39 471 CURVE",
"43 465 LINE",
"72.333 466.333 OFFCURVE",
"90.333 470.333 OFFCURVE",
"113 485 CURVE",
"125.667 492.333 OFFCURVE",
"136.667 500.833 OFFCURVE",
"146 510.5 CURVE SMOOTH",
"155.333 520.167 OFFCURVE",
"166.667 530 OFFCURVE",
"180 540 CURVE",
"189 536 LINE",
"185.667 519.333 OFFCURVE",
"182 505.167 OFFCURVE",
"178 493.5 CURVE SMOOTH",
"174 481.833 OFFCURVE",
"172 467.667 OFFCURVE",
"172 451 CURVE SMOOTH",
"172 423 OFFCURVE",
"177 403.333 OFFCURVE",
"189 378 CURVE"
);
}
);
userData = {
assembly = "PUSHW[ ]	/* 4 values pushed */
27 5 34 4 
CALL[ ]	/* CallFunction */
PUSHW[ ]	/* 1 value pushed */
27 
SRP0[ ]	/* SetRefPoint0 */
PUSHW[ ]	/* 1 value pushed */
5 
MDRP[10000]	/* MoveDirectRelPt */
PUSHW[ ]	/* 1 value pushed */
5 
MDAP[1]	/* MoveDirectAbsPt */
NPUSHW[ ]	/* 5 values pushed */
106 34 122 34 2 
DELTAP1[ ]	/* DeltaExceptionP1 */
NPUSHW[ ]	/* 13 values pushed */
9 34 25 34 41 34 57 34 73 34 89 34 6 
DELTAP1[ ]	/* DeltaExceptionP1 */
PUSHW[ ]	/* 1 value pushed */
34 
SRP0[ ]	/* SetRefPoint0 */
PUSHW[ ]	/* 1 value pushed */
53 
MDRP[10000]	/* MoveDirectRelPt */
PUSHW[ ]	/* 1 value pushed */
53 
MDAP[1]	/* MoveDirectAbsPt */
PUSHW[ ]	/* 1 value pushed */
34 
SRP0[ ]	/* SetRefPoint0 */
PUSHW[ ]	/* 1 value pushed */
71 
MDRP[10000]	/* MoveDirectRelPt */
PUSHW[ ]	/* 1 value pushed */
27 
SRP0[ ]	/* SetRefPoint0 */
PUSHW[ ]	/* 1 value pushed */
78 
MDRP[10000]	/* MoveDirectRelPt */
SVTCA[0]	/* SetFreedomAndProjectionVectorToAxis */
PUSHW[ ]	/* 1 value pushed */
74 
MDAP[1]	/* MoveDirectAbsPt */
PUSHW[ ]	/* 1 value pushed */
0 
RCVT[ ]	/* ReadCVT */
IF[ ]	/* If */
PUSHW[ ]	/* 1 value pushed */
30 
MDAP[1]	/* MoveDirectAbsPt */
ELSE[ ]	/* Else */
PUSHW[ ]	/* 2 values pushed */
30 14 
MIAP[0]	/* MoveIndirectAbsPt */
EIF[ ]	/* EndIf */
PUSHW[ ]	/* 4 values pushed */
46 4 61 4 
CALL[ ]	/* CallFunction */
PUSHW[ ]	/* 1 value pushed */
46 
SRP0[ ]	/* SetRefPoint0 */
PUSHW[ ]	/* 1 value pushed */
13 
MDRP[10000]	/* MoveDirectRelPt */
PUSHW[ ]	/* 1 value pushed */
61 
SRP0[ ]	/* SetRefPoint0 */
PUSHW[ ]	/* 1 value pushed */
88 
MDRP[10000]	/* MoveDirectRelPt */
PUSHW[ ]	/* 1 value pushed */
88 
MDAP[1]	/* MoveDirectAbsPt */
IUP[0]	/* InterpolateUntPts */
IUP[1]	/* InterpolateUntPts */";
};
width = 388;
}
);
note = asterisk;
unicode = 002A;
},
{
glyphname = plus;
lastChange = "2020-12-28 02:01:01 +0000";
layers = (
{
layerId = "6873DD1C-7BCD-4DE2-A211-237E2294755D";
paths = (
{
closed = 1;
nodes = (
"370 35 LINE",
"370 241 LINE",
"575 241 LINE",
"575 280 LINE",
"370 280 LINE",
"370 485 LINE",
"330 485 LINE",
"330 280 LINE",
"125 280 LINE",
"125 241 LINE",
"330 241 LINE",
"330 35 LINE"
);
}
);
userData = {
assembly = "PUSHW[ ]	/* 3 values pushed */
3 4 3 
CALL[ ]	/* CallFunction */
PUSHW[ ]	/* 1 value pushed */
3 
SRP0[ ]	/* SetRefPoint0 */
PUSHW[ ]	/* 1 value pushed */
4 
SRP0[ ]	/* SetRefPoint0 */
PUSHW[ ]	/* 1 value pushed */
8 
MDRP[10000]	/* MoveDirectRelPt */
PUSHW[ ]	/* 1 value pushed */
3 
SRP0[ ]	/* SetRefPoint0 */
PUSHW[ ]	/* 1 value pushed */
10 
MDRP[10000]	/* MoveDirectRelPt */
SVTCA[0]	/* SetFreedomAndProjectionVectorToAxis */
PUSHW[ ]	/* 1 value pushed */
9 
MDAP[1]	/* MoveDirectAbsPt */
PUSHW[ ]	/* 1 value pushed */
0 
RCVT[ ]	/* ReadCVT */
IF[ ]	/* If */
PUSHW[ ]	/* 1 value pushed */
3 
MDAP[1]	/* MoveDirectAbsPt */
ELSE[ ]	/* Else */
PUSHW[ ]	/* 2 values pushed */
3 12 
MIAP[0]	/* MoveIndirectAbsPt */
EIF[ ]	/* EndIf */
PUSHW[ ]	/* 4 values pushed */
1 3 0 4 
CALL[ ]	/* CallFunction */
PUSHW[ ]	/* 1 value pushed */
1 
SRP0[ ]	/* SetRefPoint0 */
PUSHW[ ]	/* 1 value pushed */
5 
MDRP[10000]	/* MoveDirectRelPt */
PUSHW[ ]	/* 1 value pushed */
0 
SRP0[ ]	/* SetRefPoint0 */
PUSHW[ ]	/* 1 value pushed */
7 
MDRP[10000]	/* MoveDirectRelPt */
IUP[0]	/* InterpolateUntPts */
IUP[1]	/* InterpolateUntPts */";
};
width = 700;
}
);
note = plus;
unicode = 002B;
},
{
glyphname = comma;
lastChange = "2020-12-28 02:01:01 +0000";
layers = (
{
layerId = "6873DD1C-7BCD-4DE2-A211-237E2294755D";
paths = (
{
closed = 1;
nodes = (
"162.696 -107.744 OFFCURVE",
"206 -59.497 OFFCURVE",
"206 0 CURVE SMOOTH",
"206 54.82 OFFCURVE",
"169.42 110 OFFCURVE",
"115 110 CURVE SMOOTH",
"80.333 110 OFFCURVE",
"51 88.667 OFFCURVE",
"51 50 CURVE SMOOTH",
"51 19.333 OFFCURVE",
"71 0 OFFCURVE",
"99 0 CURVE SMOOTH",
"129.667 0 OFFCURVE",
"146.333 16.333 OFFCURVE",
"149 43 CURVE",
"163.667 40.333 OFFCURVE",
"174 13.333 OFFCURVE",
"174 -8 CURVE SMOOTH",
"174 -62.667 OFFCURVE",
"148.667 -98.333 OFFCURVE",
"110 -133 CURVE",
"117 -140 LINE"
);
}
);
userData = {
assembly = "PUSHW[ ]	/* 4 values pushed */
0 7 8 4 
CALL[ ]	/* CallFunction */
NPUSHW[ ]	/* 5 values pushed */
106 8 122 8 2 
DELTAP1[ ]	/* DeltaExceptionP1 */
NPUSHW[ ]	/* 13 values pushed */
9 8 25 8 41 8 57 8 73 8 89 8 6 
DELTAP1[ ]	/* DeltaExceptionP1 */
PUSHW[ ]	/* 1 value pushed */
17 
MDRP[11100]	/* MoveDirectRelPt */
SVTCA[0]	/* SetFreedomAndProjectionVectorToAxis */
PUSHW[ ]	/* 1 value pushed */
21 
MDAP[1]	/* MoveDirectAbsPt */
PUSHW[ ]	/* 1 value pushed */
0 
RCVT[ ]	/* ReadCVT */
IF[ ]	/* If */
PUSHW[ ]	/* 1 value pushed */
0 
MDAP[1]	/* MoveDirectAbsPt */
ELSE[ ]	/* Else */
PUSHW[ ]	/* 2 values pushed */
0 8 
MIAP[0]	/* MoveIndirectAbsPt */
EIF[ ]	/* EndIf */
PUSHW[ ]	/* 1 value pushed */
0 
RCVT[ ]	/* ReadCVT */
IF[ ]	/* If */
PUSHW[ ]	/* 1 value pushed */
11 
MDAP[1]	/* MoveDirectAbsPt */
ELSE[ ]	/* Else */
PUSHW[ ]	/* 2 values pushed */
11 8 
MIAP[0]	/* MoveIndirectAbsPt */
EIF[ ]	/* EndIf */
PUSHW[ ]	/* 2 values pushed */
5 4 
MIRP[11100]	/* MoveIndirectRelPt */
NPUSHW[ ]	/* 13 values pushed */
7 5 23 5 39 5 55 5 71 5 87 5 6 
DELTAP1[ ]	/* DeltaExceptionP1 */
NPUSHW[ ]	/* 5 values pushed */
102 5 118 5 2 
DELTAP1[ ]	/* DeltaExceptionP1 */
IUP[0]	/* InterpolateUntPts */
IUP[1]	/* InterpolateUntPts */";
};
width = 243;
}
);
note = comma;
unicode = 002C;
},
{
glyphname = hyphen;
lastChange = "2020-12-28 02:01:01 +0000";
layers = (
{
layerId = "6873DD1C-7BCD-4DE2-A211-237E2294755D";
paths = (
{
closed = 1;
nodes = (
"243 225 LINE",
"243 295 LINE",
"12 295 LINE",
"12 225 LINE"
);
}
);
userData = {
assembly = "SVTCA[0]	/* SetFreedomAndProjectionVectorToAxis */
PUSHW[ ]	/* 4 values pushed */
1 4 0 4 
CALL[ ]	/* CallFunction */
PUSHW[ ]	/* 1 value pushed */
1 
SRP0[ ]	/* SetRefPoint0 */
IUP[0]	/* InterpolateUntPts */
IUP[1]	/* InterpolateUntPts */";
};
width = 256;
}
);
note = hyphen;
unicode = 002D;
},
{
glyphname = period;
lastChange = "2020-12-28 02:01:01 +0000";
layers = (
{
layerId = "6873DD1C-7BCD-4DE2-A211-237E2294755D";
paths = (
{
closed = 1;
nodes = (
"158.667 -1 OFFCURVE",
"182 19.333 OFFCURVE",
"182 54 CURVE SMOOTH",
"182 88.667 OFFCURVE",
"158.667 117 OFFCURVE",
"124 117 CURVE SMOOTH",
"89.333 117 OFFCURVE",
"64 90.667 OFFCURVE",
"64 56 CURVE SMOOTH",
"64 21.333 OFFCURVE",
"89.333 -1 OFFCURVE",
"124 -1 CURVE SMOOTH"
);
}
);
userData = {
assembly = "PUSHW[ ]	/* 4 values pushed */
0 7 6 4 
CALL[ ]	/* CallFunction */
NPUSHW[ ]	/* 13 values pushed */
6 0 22 0 38 0 54 0 70 0 86 0 6 
DELTAP1[ ]	/* DeltaExceptionP1 */
NPUSHW[ ]	/* 5 values pushed */
101 0 117 0 2 
DELTAP1[ ]	/* DeltaExceptionP1 */
SVTCA[0]	/* SetFreedomAndProjectionVectorToAxis */
PUSHW[ ]	/* 1 value pushed */
0 
RCVT[ ]	/* ReadCVT */
IF[ ]	/* If */
PUSHW[ ]	/* 1 value pushed */
9 
MDAP[1]	/* MoveDirectAbsPt */
ELSE[ ]	/* Else */
PUSHW[ ]	/* 2 values pushed */
9 8 
MIAP[0]	/* MoveIndirectAbsPt */
EIF[ ]	/* EndIf */
PUSHW[ ]	/* 2 values pushed */
3 4 
MIRP[11100]	/* MoveIndirectRelPt */
NPUSHW[ ]	/* 13 values pushed */
7 3 23 3 39 3 55 3 71 3 87 3 6 
DELTAP1[ ]	/* DeltaExceptionP1 */
NPUSHW[ ]	/* 5 values pushed */
102 3 118 3 2 
DELTAP1[ ]	/* DeltaExceptionP1 */
IUP[0]	/* InterpolateUntPts */
IUP[1]	/* InterpolateUntPts */";
};
width = 243;
}
);
note = period;
unicode = 002E;
},
{
glyphname = slash;
lastChange = "2020-12-31 22:41:51 +0000";
layers = (
{
layerId = "6873DD1C-7BCD-4DE2-A211-237E2294755D";
paths = (
{
closed = 1;
nodes = (
"363 747 LINE",
"320 760 LINE",
"-50 -131 LINE",
"-7 -143 LINE"
);
}
);
userData = {
assembly = "SVTCA[0]	/* SetFreedomAndProjectionVectorToAxis */
PUSHW[ ]	/* 1 value pushed */
1 
MDAP[1]	/* MoveDirectAbsPt */
PUSHW[ ]	/* 1 value pushed */
3 
MDAP[1]	/* MoveDirectAbsPt */
IUP[0]	/* InterpolateUntPts */
IUP[1]	/* InterpolateUntPts */";
};
width = 311;
}
);
note = slash;
unicode = 002F;
},
{
glyphname = zero;
lastChange = "2020-12-31 22:34:25 +0000";
layers = (
{
layerId = "6873DD1C-7BCD-4DE2-A211-237E2294755D";
paths = (
{
closed = 1;
nodes = (
"403 4 OFFCURVE",
"528 156 OFFCURVE",
"528 367 CURVE SMOOTH",
"528 582 OFFCURVE",
"402 718 OFFCURVE",
"277 718 CURVE SMOOTH",
"137 718 OFFCURVE",
"15 561 OFFCURVE",
"15 372 CURVE SMOOTH",
"15 129 OFFCURVE",
"154 4 OFFCURVE",
"274 4 CURVE SMOOTH"
);
},
{
closed = 1;
nodes = (
"163 30 OFFCURVE",
"101 215 OFFCURVE",
"101 374 CURVE SMOOTH",
"101 534 OFFCURVE",
"162 693 OFFCURVE",
"272 693 CURVE SMOOTH",
"384 693 OFFCURVE",
"439 525 OFFCURVE",
"439 364 CURVE SMOOTH",
"439 204 OFFCURVE",
"386 30 OFFCURVE",
"274 30 CURVE SMOOTH"
);
}
);
userData = {
assembly = "PUSHW[ ]	/* 1 value pushed */
40 
MDAP[1]	/* MoveDirectAbsPt */
PUSHW[ ]	/* 1 value pushed */
41 
MDAP[1]	/* MoveDirectAbsPt */
PUSHW[ ]	/* 1 value pushed */
0 
MDRP[11100]	/* MoveDirectRelPt */
PUSHW[ ]	/* 1 value pushed */
40 
SRP0[ ]	/* SetRefPoint0 */
PUSHW[ ]	/* 1 value pushed */
10 
MDRP[10000]	/* MoveDirectRelPt */
PUSHW[ ]	/* 1 value pushed */
10 
MDAP[1]	/* MoveDirectAbsPt */
PUSHW[ ]	/* 1 value pushed */
0 
SRP0[ ]	/* SetRefPoint0 */
PUSHW[ ]	/* 2 values pushed */
20 5 
MIRP[11100]	/* MoveIndirectRelPt */
NPUSHW[ ]	/* 5 values pushed */
106 20 122 20 2 
DELTAP1[ ]	/* DeltaExceptionP1 */
NPUSHW[ ]	/* 13 values pushed */
9 20 25 20 41 20 57 20 73 20 89 20 6 
DELTAP1[ ]	/* DeltaExceptionP1 */
PUSHW[ ]	/* 1 value pushed */
10 
SRP0[ ]	/* SetRefPoint0 */
PUSHW[ ]	/* 2 values pushed */
30 5 
MIRP[11100]	/* MoveIndirectRelPt */
NPUSHW[ ]	/* 13 values pushed */
6 30 22 30 38 30 54 30 70 30 86 30 6 
DELTAP1[ ]	/* DeltaExceptionP1 */
NPUSHW[ ]	/* 5 values pushed */
101 30 117 30 2 
DELTAP1[ ]	/* DeltaExceptionP1 */
SVTCA[0]	/* SetFreedomAndProjectionVectorToAxis */
PUSHW[ ]	/* 1 value pushed */
0 
RCVT[ ]	/* ReadCVT */
IF[ ]	/* If */
PUSHW[ ]	/* 1 value pushed */
5 
MDAP[1]	/* MoveDirectAbsPt */
ELSE[ ]	/* Else */
PUSHW[ ]	/* 2 values pushed */
5 12 
MIAP[0]	/* MoveIndirectAbsPt */
EIF[ ]	/* EndIf */
PUSHW[ ]	/* 1 value pushed */
0 
RCVT[ ]	/* ReadCVT */
IF[ ]	/* If */
PUSHW[ ]	/* 1 value pushed */
15 
MDAP[1]	/* MoveDirectAbsPt */
ELSE[ ]	/* Else */
PUSHW[ ]	/* 2 values pushed */
15 8 
MIAP[0]	/* MoveIndirectAbsPt */
EIF[ ]	/* EndIf */
PUSHW[ ]	/* 2 values pushed */
25 3 
MIRP[11100]	/* MoveIndirectRelPt */
NPUSHW[ ]	/* 33 values pushed */
7 25 23 25 39 25 55 25 71 25 87 25 103 25 119 25 135 25 151 25 167 25 183 25 199 25 215 25 231 25 247 25 16 
DELTAP1[ ]	/* DeltaExceptionP1 */
NPUSHW[ ]	/* 13 values pushed */
7 25 23 25 39 25 55 25 71 25 87 25 6 
DELTAP2[ ]	/* DeltaExceptionP2 */
NPUSHW[ ]	/* 5 values pushed */
102 25 118 25 2 
DELTAP2[ ]	/* DeltaExceptionP2 */
PUSHW[ ]	/* 1 value pushed */
5 
SRP0[ ]	/* SetRefPoint0 */
PUSHW[ ]	/* 2 values pushed */
35 3 
MIRP[11100]	/* MoveIndirectRelPt */
NPUSHW[ ]	/* 5 values pushed */
105 35 121 35 2 
DELTAP2[ ]	/* DeltaExceptionP2 */
NPUSHW[ ]	/* 33 values pushed */
8 35 24 35 40 35 56 35 72 35 88 35 104 35 120 35 136 35 152 35 168 35 184 35 200 35 216 35 232 35 248 35 16 
DELTAP1[ ]	/* DeltaExceptionP1 */
NPUSHW[ ]	/* 13 values pushed */
8 35 24 35 40 35 56 35 72 35 88 35 6 
DELTAP2[ ]	/* DeltaExceptionP2 */
IUP[0]	/* InterpolateUntPts */
IUP[1]	/* InterpolateUntPts */";
};
width = 533;
}
);
note = zero;
unicode = 0030;
},
{
glyphname = one;
lastChange = "2020-12-31 20:18:49 +0000";
layers = (
{
layerId = "6873DD1C-7BCD-4DE2-A211-237E2294755D";
paths = (
{
closed = 1;
nodes = (
"201 725 LINE",
"38 725 LINE",
"38 711 LINE",
"74 711 OFFCURVE",
"118 699 OFFCURVE",
"118 668 CURVE SMOOTH",
"118 55 LINE SMOOTH",
"118 26 OFFCURVE",
"77.676 11 OFFCURVE",
"42 11 CURVE",
"42 0 LINE",
"281 0 LINE",
"281 11 LINE",
"247.36 11 OFFCURVE",
"201 21.172 OFFCURVE",
"201 54 CURVE"
);
}
);
userData = {
assembly = "PUSHW[ ]	/* 4 values pushed */
7 5 20 4 
CALL[ ]	/* CallFunction */
PUSHW[ ]	/* 1 value pushed */
7 
SRP0[ ]	/* SetRefPoint0 */
SVTCA[0]	/* SetFreedomAndProjectionVectorToAxis */
PUSHW[ ]	/* 1 value pushed */
0 
RCVT[ ]	/* ReadCVT */
IF[ ]	/* If */
PUSHW[ ]	/* 1 value pushed */
13 
MDAP[1]	/* MoveDirectAbsPt */
ELSE[ ]	/* Else */
PUSHW[ ]	/* 2 values pushed */
13 12 
MIAP[0]	/* MoveIndirectAbsPt */
EIF[ ]	/* EndIf */
PUSHW[ ]	/* 1 value pushed */
0 
RCVT[ ]	/* ReadCVT */
IF[ ]	/* If */
PUSHW[ ]	/* 1 value pushed */
0 
MDAP[1]	/* MoveDirectAbsPt */
ELSE[ ]	/* Else */
PUSHW[ ]	/* 2 values pushed */
0 8 
MIAP[0]	/* MoveIndirectAbsPt */
EIF[ ]	/* EndIf */
IUP[0]	/* InterpolateUntPts */
IUP[1]	/* InterpolateUntPts */";
};
width = 316;
}
);
note = one;
unicode = 0031;
},
{
glyphname = two;
lastChange = "2020-12-31 20:27:30 +0000";
layers = (
{
layerId = "6873DD1C-7BCD-4DE2-A211-237E2294755D";
paths = (
{
closed = 1;
nodes = (
"387 -4 LINE",
"437 205 LINE",
"427 209 LINE",
"410 155 OFFCURVE",
"396 81 OFFCURVE",
"334 81 CURVE SMOOTH",
"113 81 LINE",
"180 184 OFFCURVE",
"210 231 OFFCURVE",
"255 305 CURVE SMOOTH",
"295 371 OFFCURVE",
"362 468 OFFCURVE",
"365 551 CURVE SMOOTH",
"369 658 OFFCURVE",
"324 733 OFFCURVE",
"232 733 CURVE SMOOTH",
"128 733 OFFCURVE",
"38 654 OFFCURVE",
"23 558 CURVE",
"38 557 LINE",
"76 650 OFFCURVE",
"145 662 OFFCURVE",
"199 658 CURVE SMOOTH",
"252 654 OFFCURVE",
"278 611 OFFCURVE",
"280 556 CURVE SMOOTH",
"282 502 OFFCURVE",
"261 424 OFFCURVE",
"226 357 CURVE SMOOTH",
"156 223 OFFCURVE",
"90 111 OFFCURVE",
"46 35 CURVE",
"46 -4 LINE"
);
}
);
userData = {
assembly = "PUSHW[ ]	/* 4 values pushed */
13 5 30 4 
CALL[ ]	/* CallFunction */
PUSHW[ ]	/* 1 value pushed */
13 
SRP0[ ]	/* SetRefPoint0 */
NPUSHW[ ]	/* 5 values pushed */
106 30 122 30 2 
DELTAP1[ ]	/* DeltaExceptionP1 */
NPUSHW[ ]	/* 13 values pushed */
9 30 25 30 41 30 57 30 73 30 89 30 6 
DELTAP1[ ]	/* DeltaExceptionP1 */
PUSHW[ ]	/* 1 value pushed */
39 
MDRP[11100]	/* MoveDirectRelPt */
SVTCA[0]	/* SetFreedomAndProjectionVectorToAxis */
PUSHW[ ]	/* 1 value pushed */
0 
RCVT[ ]	/* ReadCVT */
IF[ ]	/* If */
PUSHW[ ]	/* 1 value pushed */
16 
MDAP[1]	/* MoveDirectAbsPt */
ELSE[ ]	/* Else */
PUSHW[ ]	/* 2 values pushed */
16 12 
MIAP[0]	/* MoveIndirectAbsPt */
EIF[ ]	/* EndIf */
PUSHW[ ]	/* 1 value pushed */
0 
RCVT[ ]	/* ReadCVT */
IF[ ]	/* If */
PUSHW[ ]	/* 1 value pushed */
36 
MDAP[1]	/* MoveDirectAbsPt */
ELSE[ ]	/* Else */
PUSHW[ ]	/* 2 values pushed */
36 8 
MIAP[0]	/* MoveIndirectAbsPt */
EIF[ ]	/* EndIf */
PUSHW[ ]	/* 2 values pushed */
6 4 
MIRP[11100]	/* MoveIndirectRelPt */
PUSHW[ ]	/* 3 values pushed */
8 36 16 
SRP1[ ]	/* SetRefPoint1 */
SRP2[ ]	/* SetRefPoint2 */
IP[ ]	/* InterpolatePts */
PUSHW[ ]	/* 1 value pushed */
16 
SRP0[ ]	/* SetRefPoint0 */
PUSHW[ ]	/* 2 values pushed */
25 4 
MIRP[11100]	/* MoveIndirectRelPt */
NPUSHW[ ]	/* 5 values pushed */
105 25 121 25 2 
DELTAP1[ ]	/* DeltaExceptionP1 */
NPUSHW[ ]	/* 13 values pushed */
8 25 24 25 40 25 56 25 72 25 88 25 6 
DELTAP1[ ]	/* DeltaExceptionP1 */
IUP[0]	/* InterpolateUntPts */
IUP[1]	/* InterpolateUntPts */";
};
width = 436;
}
);
note = two;
unicode = 0032;
},
{
glyphname = three;
lastChange = "2020-12-31 20:18:28 +0000";
layers = (
{
layerId = "6873DD1C-7BCD-4DE2-A211-237E2294755D";
paths = (
{
closed = 1;
nodes = (
"232 0 OFFCURVE",
"370 101 OFFCURVE",
"370 249 CURVE SMOOTH",
"370 337 OFFCURVE",
"290 402 OFFCURVE",
"201 421 CURVE",
"277 480 OFFCURVE",
"340 534 OFFCURVE",
"340 605 CURVE SMOOTH",
"340 681 OFFCURVE",
"277 733 OFFCURVE",
"186 733 CURVE SMOOTH",
"105 733 OFFCURVE",
"52 673 OFFCURVE",
"21 606 CURVE",
"30 601 LINE",
"59 646 OFFCURVE",
"96 662 OFFCURVE",
"153 662 CURVE SMOOTH",
"212 662 OFFCURVE",
"258 628 OFFCURVE",
"258 573 CURVE SMOOTH",
"258 477 OFFCURVE",
"166 411 OFFCURVE",
"92 354 CURVE",
"95 348 LINE",
"108 348 LINE SMOOTH",
"203 348 OFFCURVE",
"287 287 OFFCURVE",
"287 193 CURVE SMOOTH",
"287 74 OFFCURVE",
"190 26 OFFCURVE",
"142 26 CURVE SMOOTH",
"87 26 OFFCURVE",
"71 100 OFFCURVE",
"26 100 CURVE SMOOTH",
"-1 100 OFFCURVE",
"-9 83 OFFCURVE",
"-9 62 CURVE SMOOTH",
"-9 21 OFFCURVE",
"33 0 OFFCURVE",
"75 0 CURVE SMOOTH"
);
}
);
userData = {
assembly = "PUSHW[ ]	/* 4 values pushed */
10 5 25 4 
CALL[ ]	/* CallFunction */
PUSHW[ ]	/* 1 value pushed */
10 
SRP0[ ]	/* SetRefPoint0 */
NPUSHW[ ]	/* 5 values pushed */
106 25 122 25 2 
DELTAP1[ ]	/* DeltaExceptionP1 */
NPUSHW[ ]	/* 13 values pushed */
9 25 25 25 41 25 57 25 73 25 89 25 6 
DELTAP1[ ]	/* DeltaExceptionP1 */
PUSHW[ ]	/* 3 values pushed */
37 25 10 
SRP1[ ]	/* SetRefPoint1 */
SRP2[ ]	/* SetRefPoint2 */
IP[ ]	/* InterpolatePts */
PUSHW[ ]	/* 1 value pushed */
37 
MDAP[1]	/* MoveDirectAbsPt */
NPUSHW[ ]	/* 5 values pushed */
106 37 122 37 2 
DELTAP1[ ]	/* DeltaExceptionP1 */
NPUSHW[ ]	/* 13 values pushed */
9 37 25 37 41 37 57 37 73 37 89 37 6 
DELTAP1[ ]	/* DeltaExceptionP1 */
PUSHW[ ]	/* 2 values pushed */
0 5 
MIRP[11100]	/* MoveIndirectRelPt */
SVTCA[0]	/* SetFreedomAndProjectionVectorToAxis */
PUSHW[ ]	/* 1 value pushed */
0 
RCVT[ ]	/* ReadCVT */
IF[ ]	/* If */
PUSHW[ ]	/* 1 value pushed */
13 
MDAP[1]	/* MoveDirectAbsPt */
ELSE[ ]	/* Else */
PUSHW[ ]	/* 2 values pushed */
13 12 
MIAP[0]	/* MoveIndirectAbsPt */
EIF[ ]	/* EndIf */
PUSHW[ ]	/* 1 value pushed */
0 
RCVT[ ]	/* ReadCVT */
IF[ ]	/* If */
PUSHW[ ]	/* 1 value pushed */
55 
MDAP[1]	/* MoveDirectAbsPt */
ELSE[ ]	/* Else */
PUSHW[ ]	/* 2 values pushed */
55 10 
MIAP[0]	/* MoveIndirectAbsPt */
EIF[ ]	/* EndIf */
PUSHW[ ]	/* 3 values pushed */
5 55 13 
SRP1[ ]	/* SetRefPoint1 */
SRP2[ ]	/* SetRefPoint2 */
IP[ ]	/* InterpolatePts */
PUSHW[ ]	/* 1 value pushed */
13 
SRP0[ ]	/* SetRefPoint0 */
PUSHW[ ]	/* 2 values pushed */
22 4 
MIRP[11100]	/* MoveIndirectRelPt */
NPUSHW[ ]	/* 5 values pushed */
105 22 121 22 2 
DELTAP1[ ]	/* DeltaExceptionP1 */
NPUSHW[ ]	/* 13 values pushed */
8 22 24 22 40 22 56 22 72 22 88 22 6 
DELTAP1[ ]	/* DeltaExceptionP1 */
PUSHW[ ]	/* 1 value pushed */
55 
SRP0[ ]	/* SetRefPoint0 */
PUSHW[ ]	/* 2 values pushed */
42 2 
MIRP[11100]	/* MoveIndirectRelPt */
NPUSHW[ ]	/* 33 values pushed */
7 42 23 42 39 42 55 42 71 42 87 42 103 42 119 42 135 42 151 42 167 42 183 42 199 42 215 42 231 42 247 42 16 
DELTAP1[ ]	/* DeltaExceptionP1 */
NPUSHW[ ]	/* 33 values pushed */
7 42 23 42 39 42 55 42 71 42 87 42 103 42 119 42 135 42 151 42 167 42 183 42 199 42 215 42 231 42 247 42 16 
DELTAP2[ ]	/* DeltaExceptionP2 */
NPUSHW[ ]	/* 33 values pushed */
7 42 23 42 39 42 55 42 71 42 87 42 103 42 119 42 135 42 151 42 167 42 183 42 199 42 215 42 231 42 247 42 16 
DELTAP3[ ]	/* DeltaExceptionP3 */
PUSHW[ ]	/* 1 value pushed */
55 
SRP0[ ]	/* SetRefPoint0 */
PUSHW[ ]	/* 2 values pushed */
47 4 
MIRP[11100]	/* MoveIndirectRelPt */
NPUSHW[ ]	/* 13 values pushed */
7 47 23 47 39 47 55 47 71 47 87 47 6 
DELTAP1[ ]	/* DeltaExceptionP1 */
NPUSHW[ ]	/* 5 values pushed */
102 47 118 47 2 
DELTAP1[ ]	/* DeltaExceptionP1 */
IUP[0]	/* InterpolateUntPts */
IUP[1]	/* InterpolateUntPts */";
};
width = 396;
}
);
note = three;
unicode = 0033;
},
{
glyphname = four;
lastChange = "2020-12-31 20:23:12 +0000";
layers = (
{
layerId = "6873DD1C-7BCD-4DE2-A211-237E2294755D";
paths = (
{
closed = 1;
nodes = (
"389 -6 LINE",
"389 225 LINE",
"525 225 LINE",
"525 302 LINE",
"387 302 LINE",
"387 726 LINE",
"358 726 LINE",
"46 304 LINE",
"0 237 LINE",
"-7 226 OFFCURVE",
"-2 225 OFFCURVE",
"7 225 CURVE SMOOTH",
"301 225 LINE",
"301 -6 LINE"
);
},
{
closed = 1;
nodes = (
"301 622 LINE",
"301 302 LINE",
"66 302 LINE"
);
}
);
userData = {
assembly = "PUSHW[ ]	/* 4 values pushed */
2 5 14 4 
CALL[ ]	/* CallFunction */
PUSHW[ ]	/* 1 value pushed */
2 
SRP0[ ]	/* SetRefPoint0 */
PUSHW[ ]	/* 1 value pushed */
14 
SRP0[ ]	/* SetRefPoint0 */
PUSHW[ ]	/* 1 value pushed */
10 
MDRP[10000]	/* MoveDirectRelPt */
PUSHW[ ]	/* 1 value pushed */
2 
SRP0[ ]	/* SetRefPoint0 */
PUSHW[ ]	/* 1 value pushed */
12 
MDRP[10000]	/* MoveDirectRelPt */
PUSHW[ ]	/* 1 value pushed */
12 
MDAP[1]	/* MoveDirectAbsPt */
SVTCA[0]	/* SetFreedomAndProjectionVectorToAxis */
PUSHW[ ]	/* 1 value pushed */
11 
MDAP[1]	/* MoveDirectAbsPt */
PUSHW[ ]	/* 1 value pushed */
0 
RCVT[ ]	/* ReadCVT */
IF[ ]	/* If */
PUSHW[ ]	/* 1 value pushed */
3 
MDAP[1]	/* MoveDirectAbsPt */
ELSE[ ]	/* Else */
PUSHW[ ]	/* 2 values pushed */
3 12 
MIAP[0]	/* MoveIndirectAbsPt */
EIF[ ]	/* EndIf */
PUSHW[ ]	/* 4 values pushed */
1 4 0 4 
CALL[ ]	/* CallFunction */
PUSHW[ ]	/* 1 value pushed */
1 
SRP0[ ]	/* SetRefPoint0 */
PUSHW[ ]	/* 1 value pushed */
0 
SRP0[ ]	/* SetRefPoint0 */
PUSHW[ ]	/* 1 value pushed */
9 
MDRP[10000]	/* MoveDirectRelPt */
PUSHW[ ]	/* 1 value pushed */
1 
SRP0[ ]	/* SetRefPoint0 */
PUSHW[ ]	/* 1 value pushed */
14 
MDRP[10000]	/* MoveDirectRelPt */
PUSHW[ ]	/* 3 values pushed */
15 11 3 
SRP1[ ]	/* SetRefPoint1 */
SRP2[ ]	/* SetRefPoint2 */
IP[ ]	/* InterpolatePts */
PUSHW[ ]	/* 3 values pushed */
16 11 3 
SRP1[ ]	/* SetRefPoint1 */
SRP2[ ]	/* SetRefPoint2 */
IP[ ]	/* InterpolatePts */
IUP[0]	/* InterpolateUntPts */
IUP[1]	/* InterpolateUntPts */";
};
width = 551;
}
);
note = four;
unicode = 0034;
},
{
glyphname = five;
lastChange = "2020-12-31 20:23:49 +0000";
layers = (
{
layerId = "6873DD1C-7BCD-4DE2-A211-237E2294755D";
paths = (
{
closed = 1;
nodes = (
"252 -1 OFFCURVE",
"373 107 OFFCURVE",
"373 244 CURVE SMOOTH",
"373 361 OFFCURVE",
"292 446 OFFCURVE",
"155 446 CURVE SMOOTH",
"128 446 OFFCURVE",
"110 444 OFFCURVE",
"86 440 CURVE",
"103 626 LINE",
"342 626 LINE",
"361 689 OFFCURVE",
"376 736 OFFCURVE",
"385 760 CURVE",
"373 764 LINE",
"361 736 OFFCURVE",
"353 722 OFFCURVE",
"309 722 CURVE SMOOTH",
"96 722 LINE",
"52 291 LINE",
"62 289 LINE",
"78 336 OFFCURVE",
"105 357 OFFCURVE",
"162 357 CURVE SMOOTH",
"232 357 OFFCURVE",
"292 307 OFFCURVE",
"292 202 CURVE SMOOTH",
"292 114 OFFCURVE",
"254 22 OFFCURVE",
"167 22 CURVE SMOOTH",
"86 22 OFFCURVE",
"101 121 OFFCURVE",
"36 121 CURVE SMOOTH",
"15 121 OFFCURVE",
"0 103 OFFCURVE",
"0 82 CURVE SMOOTH",
"0 22 OFFCURVE",
"72 -1 OFFCURVE",
"138 -1 CURVE SMOOTH"
);
}
);
userData = {
assembly = "PUSHW[ ]	/* 4 values pushed */
40 5 17 4 
CALL[ ]	/* CallFunction */
PUSHW[ ]	/* 1 value pushed */
40 
SRP0[ ]	/* SetRefPoint0 */
NPUSHW[ ]	/* 5 values pushed */
106 17 122 17 2 
DELTAP1[ ]	/* DeltaExceptionP1 */
NPUSHW[ ]	/* 13 values pushed */
9 17 25 17 41 17 57 17 73 17 89 17 6 
DELTAP1[ ]	/* DeltaExceptionP1 */
PUSHW[ ]	/* 1 value pushed */
54 
MDRP[11100]	/* MoveDirectRelPt */
SVTCA[0]	/* SetFreedomAndProjectionVectorToAxis */
PUSHW[ ]	/* 1 value pushed */
1 
MDAP[1]	/* MoveDirectAbsPt */
PUSHW[ ]	/* 1 value pushed */
0 
RCVT[ ]	/* ReadCVT */
IF[ ]	/* If */
PUSHW[ ]	/* 1 value pushed */
4 
MDAP[1]	/* MoveDirectAbsPt */
ELSE[ ]	/* Else */
PUSHW[ ]	/* 2 values pushed */
4 12 
MIAP[0]	/* MoveIndirectAbsPt */
EIF[ ]	/* EndIf */
PUSHW[ ]	/* 1 value pushed */
0 
RCVT[ ]	/* ReadCVT */
IF[ ]	/* If */
PUSHW[ ]	/* 1 value pushed */
35 
MDAP[1]	/* MoveDirectAbsPt */
ELSE[ ]	/* Else */
PUSHW[ ]	/* 2 values pushed */
35 10 
MIAP[0]	/* MoveIndirectAbsPt */
EIF[ ]	/* EndIf */
PUSHW[ ]	/* 4 values pushed */
45 4 12 4 
CALL[ ]	/* CallFunction */
PUSHW[ ]	/* 1 value pushed */
45 
SRP0[ ]	/* SetRefPoint0 */
PUSHW[ ]	/* 1 value pushed */
35 
SRP0[ ]	/* SetRefPoint0 */
PUSHW[ ]	/* 2 values pushed */
22 1 
MIRP[11100]	/* MoveIndirectRelPt */
NPUSHW[ ]	/* 33 values pushed */
7 22 23 22 39 22 55 22 71 22 87 22 103 22 119 22 135 22 151 22 167 22 183 22 199 22 215 22 231 22 247 22 16 
DELTAP1[ ]	/* DeltaExceptionP1 */
NPUSHW[ ]	/* 33 values pushed */
7 22 23 22 39 22 55 22 71 22 87 22 103 22 119 22 135 22 151 22 167 22 183 22 199 22 215 22 231 22 247 22 16 
DELTAP2[ ]	/* DeltaExceptionP2 */
NPUSHW[ ]	/* 33 values pushed */
7 22 23 22 39 22 55 22 71 22 87 22 103 22 119 22 135 22 151 22 167 22 183 22 199 22 215 22 231 22 247 22 16 
DELTAP3[ ]	/* DeltaExceptionP3 */
PUSHW[ ]	/* 1 value pushed */
35 
SRP0[ ]	/* SetRefPoint0 */
PUSHW[ ]	/* 2 values pushed */
27 4 
MIRP[11100]	/* MoveIndirectRelPt */
NPUSHW[ ]	/* 13 values pushed */
7 27 23 27 39 27 55 27 71 27 87 27 6 
DELTAP1[ ]	/* DeltaExceptionP1 */
NPUSHW[ ]	/* 5 values pushed */
102 27 118 27 2 
DELTAP1[ ]	/* DeltaExceptionP1 */
PUSHW[ ]	/* 1 value pushed */
45 
SRP0[ ]	/* SetRefPoint0 */
PUSHW[ ]	/* 1 value pushed */
48 
MDRP[10000]	/* MoveDirectRelPt */
PUSHW[ ]	/* 1 value pushed */
48 
MDAP[1]	/* MoveDirectAbsPt */
PUSHW[ ]	/* 1 value pushed */
4 
SRP0[ ]	/* SetRefPoint0 */
PUSHW[ ]	/* 2 values pushed */
49 4 
MIRP[11100]	/* MoveIndirectRelPt */
IUP[0]	/* InterpolateUntPts */
IUP[1]	/* InterpolateUntPts */";
};
width = 393;
}
);
note = five;
unicode = 0035;
},
{
glyphname = six;
lastChange = "2020-12-28 02:01:01 +0000";
layers = (
{
layerId = "6873DD1C-7BCD-4DE2-A211-237E2294755D";
paths = (
{
closed = 1;
nodes = (
"390.19 0 OFFCURVE",
"487 104.918 OFFCURVE",
"487 237 CURVE SMOOTH",
"487 357.429 OFFCURVE",
"395.16 449 OFFCURVE",
"266 449 CURVE SMOOTH",
"235.333 449 OFFCURVE",
"217.667 445.667 OFFCURVE",
"195 439 CURVE",
"262.953 572.39 OFFCURVE",
"372.145 667.679 OFFCURVE",
"483 716 CURVE",
"475 728 LINE",
"443.667 719.333 OFFCURVE",
"411 707 OFFCURVE",
"377 691 CURVE SMOOTH",
"309 659 OFFCURVE",
"241 615.167 OFFCURVE",
"181 558.5 CURVE SMOOTH",
"151 530.167 OFFCURVE",
"124.5 499.667 OFFCURVE",
"101.5 467 CURVE SMOOTH",
"55.5 401.667 OFFCURVE",
"27 328 OFFCURVE",
"27 248 CURVE SMOOTH",
"27 114.619 OFFCURVE",
"128.913 0 OFFCURVE",
"254 0 CURVE SMOOTH"
);
},
{
closed = 1;
nodes = (
"171.667 14 OFFCURVE",
"118 83 OFFCURVE",
"118 203 CURVE SMOOTH",
"118 275 OFFCURVE",
"133 351.667 OFFCURVE",
"185 409 CURVE SMOOTH",
"199.667 425 OFFCURVE",
"218.333 430 OFFCURVE",
"241 430 CURVE SMOOTH",
"348.011 430 OFFCURVE",
"396 307.681 OFFCURVE",
"396 196 CURVE SMOOTH",
"396 74.667 OFFCURVE",
"338.333 14 OFFCURVE",
"257 14 CURVE SMOOTH"
);
}
);
userData = {
assembly = "PUSHW[ ]	/* 1 value pushed */
48 
MDAP[1]	/* MoveDirectAbsPt */
PUSHW[ ]	/* 1 value pushed */
49 
MDAP[1]	/* MoveDirectAbsPt */
PUSHW[ ]	/* 1 value pushed */
0 
MDRP[11100]	/* MoveDirectRelPt */
PUSHW[ ]	/* 1 value pushed */
48 
SRP0[ ]	/* SetRefPoint0 */
PUSHW[ ]	/* 1 value pushed */
21 
MDRP[10000]	/* MoveDirectRelPt */
PUSHW[ ]	/* 1 value pushed */
21 
MDAP[1]	/* MoveDirectAbsPt */
PUSHW[ ]	/* 3 values pushed */
8 21 0 
SRP1[ ]	/* SetRefPoint1 */
SRP2[ ]	/* SetRefPoint2 */
IP[ ]	/* InterpolatePts */
PUSHW[ ]	/* 1 value pushed */
0 
SRP0[ ]	/* SetRefPoint0 */
PUSHW[ ]	/* 1 value pushed */
13 
MDRP[10000]	/* MoveDirectRelPt */
PUSHW[ ]	/* 1 value pushed */
13 
MDAP[1]	/* MoveDirectAbsPt */
PUSHW[ ]	/* 1 value pushed */
0 
SRP0[ ]	/* SetRefPoint0 */
PUSHW[ ]	/* 2 values pushed */
31 6 
MIRP[11100]	/* MoveIndirectRelPt */
NPUSHW[ ]	/* 5 values pushed */
106 31 122 31 2 
DELTAP1[ ]	/* DeltaExceptionP1 */
NPUSHW[ ]	/* 13 values pushed */
9 31 25 31 41 31 57 31 73 31 89 31 6 
DELTAP1[ ]	/* DeltaExceptionP1 */
PUSHW[ ]	/* 1 value pushed */
21 
SRP0[ ]	/* SetRefPoint0 */
PUSHW[ ]	/* 2 values pushed */
37 6 
MIRP[11100]	/* MoveIndirectRelPt */
NPUSHW[ ]	/* 13 values pushed */
6 37 22 37 38 37 54 37 70 37 86 37 6 
DELTAP1[ ]	/* DeltaExceptionP1 */
NPUSHW[ ]	/* 5 values pushed */
101 37 117 37 2 
DELTAP1[ ]	/* DeltaExceptionP1 */
SVTCA[0]	/* SetFreedomAndProjectionVectorToAxis */
PUSHW[ ]	/* 1 value pushed */
0 
RCVT[ ]	/* ReadCVT */
IF[ ]	/* If */
PUSHW[ ]	/* 1 value pushed */
14 
MDAP[1]	/* MoveDirectAbsPt */
ELSE[ ]	/* Else */
PUSHW[ ]	/* 2 values pushed */
14 14 
MIAP[0]	/* MoveIndirectAbsPt */
EIF[ ]	/* EndIf */
PUSHW[ ]	/* 1 value pushed */
0 
RCVT[ ]	/* ReadCVT */
IF[ ]	/* If */
PUSHW[ ]	/* 1 value pushed */
26 
MDAP[1]	/* MoveDirectAbsPt */
ELSE[ ]	/* Else */
PUSHW[ ]	/* 2 values pushed */
26 8 
MIAP[0]	/* MoveIndirectAbsPt */
EIF[ ]	/* EndIf */
PUSHW[ ]	/* 3 values pushed */
8 26 14 
SRP1[ ]	/* SetRefPoint1 */
SRP2[ ]	/* SetRefPoint2 */
IP[ ]	/* InterpolatePts */
IUP[0]	/* InterpolateUntPts */
IUP[1]	/* InterpolateUntPts */";
};
width = 512;
}
);
note = six;
unicode = 0036;
},
{
glyphname = seven;
lastChange = "2020-12-31 20:24:11 +0000";
layers = (
{
layerId = "6873DD1C-7BCD-4DE2-A211-237E2294755D";
paths = (
{
closed = 1;
nodes = (
"190 51 OFFCURVE",
"211 104 OFFCURVE",
"232 159 CURVE SMOOTH",
"266 247 OFFCURVE",
"325 389 OFFCURVE",
"355 465 CURVE SMOOTH",
"382 533 OFFCURVE",
"445 688 OFFCURVE",
"459 720 CURVE",
"69 720 LINE",
"4 552 LINE",
"16 548 LINE",
"34 592 OFFCURVE",
"59 635 OFFCURVE",
"135 635 CURVE SMOOTH",
"406 635 LINE",
"392 601 OFFCURVE",
"375 563 OFFCURVE",
"356 520 CURVE SMOOTH",
"316 435 OFFCURVE",
"273 344 OFFCURVE",
"230 258 CURVE SMOOTH",
"198 193 OFFCURVE",
"122 40 OFFCURVE",
"103 -1 CURVE",
"170 -1 LINE"
);
}
);
userData = {
assembly = "SVTCA[0]	/* SetFreedomAndProjectionVectorToAxis */
PUSHW[ ]	/* 1 value pushed */
0 
RCVT[ ]	/* ReadCVT */
IF[ ]	/* If */
PUSHW[ ]	/* 1 value pushed */
0 
MDAP[1]	/* MoveDirectAbsPt */
ELSE[ ]	/* Else */
PUSHW[ ]	/* 2 values pushed */
0 12 
MIAP[0]	/* MoveIndirectAbsPt */
EIF[ ]	/* EndIf */
PUSHW[ ]	/* 1 value pushed */
0 
RCVT[ ]	/* ReadCVT */
IF[ ]	/* If */
PUSHW[ ]	/* 1 value pushed */
17 
MDAP[1]	/* MoveDirectAbsPt */
ELSE[ ]	/* Else */
PUSHW[ ]	/* 2 values pushed */
17 10 
MIAP[0]	/* MoveIndirectAbsPt */
EIF[ ]	/* EndIf */
PUSHW[ ]	/* 1 value pushed */
0 
SRP0[ ]	/* SetRefPoint0 */
PUSHW[ ]	/* 2 values pushed */
8 4 
MIRP[11100]	/* MoveIndirectRelPt */
PUSHW[ ]	/* 3 values pushed */
16 17 0 
SRP1[ ]	/* SetRefPoint1 */
SRP2[ ]	/* SetRefPoint2 */
IP[ ]	/* InterpolatePts */
IUP[0]	/* InterpolateUntPts */
IUP[1]	/* InterpolateUntPts */";
};
width = 444;
}
);
note = seven;
unicode = 0037;
},
{
glyphname = eight;
lastChange = "2020-12-31 20:25:07 +0000";
layers = (
{
layerId = "6873DD1C-7BCD-4DE2-A211-237E2294755D";
paths = (
{
closed = 1;
nodes = (
"353.685 -4 OFFCURVE",
"452 51 OFFCURVE",
"453 154 CURVE SMOOTH",
"454 280 OFFCURVE",
"359 335 OFFCURVE",
"292 388 CURVE",
"368.714 435.616 OFFCURVE",
"443 490.475 OFFCURVE",
"443 571 CURVE SMOOTH",
"443 662.17 OFFCURVE",
"359.513 727 OFFCURVE",
"243 727 CURVE SMOOTH",
"141.572 727 OFFCURVE",
"44 643.876 OFFCURVE",
"44 540 CURVE SMOOTH",
"44 446.974 OFFCURVE",
"107.758 391.014 OFFCURVE",
"180 341 CURVE",
"111.762 294.598 OFFCURVE",
"36 239.262 OFFCURVE",
"36 158 CURVE SMOOTH",
"36 57.629 OFFCURVE",
"136.514 -4 OFFCURVE",
"234 -4 CURVE SMOOTH"
);
},
{
closed = 1;
nodes = (
"167.333 11 OFFCURVE",
"108 67 OFFCURVE",
"108 163 CURVE SMOOTH",
"108 220.014 OFFCURVE",
"147 300 OFFCURVE",
"197 333 CURVE",
"297.042 285.48 OFFCURVE",
"370 247 OFFCURVE",
"371 155 CURVE SMOOTH",
"372 87 OFFCURVE",
"332.84 11 OFFCURVE",
"250 11 CURVE SMOOTH"
);
},
{
closed = 1;
nodes = (
"202.289 439.415 OFFCURVE",
"117 490.018 OFFCURVE",
"117 591 CURVE SMOOTH",
"117 664.604 OFFCURVE",
"175.62 710 OFFCURVE",
"245 710 CURVE SMOOTH",
"326.858 710 OFFCURVE",
"375 649.045 OFFCURVE",
"375 571 CURVE SMOOTH",
"375 491 OFFCURVE",
"343 435.667 OFFCURVE",
"275 397 CURVE"
);
}
);
userData = {
assembly = "PUSHW[ ]	/* 4 values pushed */
66 5 30 4 
CALL[ ]	/* CallFunction */
PUSHW[ ]	/* 1 value pushed */
66 
SRP0[ ]	/* SetRefPoint0 */
PUSHW[ ]	/* 4 values pushed */
10 5 40 4 
CALL[ ]	/* CallFunction */
PUSHW[ ]	/* 1 value pushed */
10 
SRP0[ ]	/* SetRefPoint0 */
NPUSHW[ ]	/* 5 values pushed */
106 40 122 40 2 
DELTAP1[ ]	/* DeltaExceptionP1 */
NPUSHW[ ]	/* 13 values pushed */
9 40 25 40 41 40 57 40 73 40 89 40 6 
DELTAP1[ ]	/* DeltaExceptionP1 */
PUSHW[ ]	/* 1 value pushed */
40 
SRP0[ ]	/* SetRefPoint0 */
PUSHW[ ]	/* 2 values pushed */
0 5 
MIRP[11100]	/* MoveIndirectRelPt */
PUSHW[ ]	/* 3 values pushed */
5 30 0 
SRP1[ ]	/* SetRefPoint1 */
SRP2[ ]	/* SetRefPoint2 */
IP[ ]	/* InterpolatePts */
NPUSHW[ ]	/* 13 values pushed */
6 66 22 66 38 66 54 66 70 66 86 66 6 
DELTAP1[ ]	/* DeltaExceptionP1 */
NPUSHW[ ]	/* 5 values pushed */
101 66 117 66 2 
DELTAP1[ ]	/* DeltaExceptionP1 */
PUSHW[ ]	/* 3 values pushed */
20 30 66 
SRP1[ ]	/* SetRefPoint1 */
SRP2[ ]	/* SetRefPoint2 */
IP[ ]	/* InterpolatePts */
PUSHW[ ]	/* 1 value pushed */
20 
MDAP[1]	/* MoveDirectAbsPt */
PUSHW[ ]	/* 3 values pushed */
25 30 0 
SRP1[ ]	/* SetRefPoint1 */
SRP2[ ]	/* SetRefPoint2 */
IP[ ]	/* InterpolatePts */
PUSHW[ ]	/* 2 values pushed */
48 5 
MIRP[11100]	/* MoveIndirectRelPt */
PUSHW[ ]	/* 1 value pushed */
40 
SRP0[ ]	/* SetRefPoint0 */
PUSHW[ ]	/* 1 value pushed */
58 
MDRP[10000]	/* MoveDirectRelPt */
PUSHW[ ]	/* 1 value pushed */
58 
MDAP[1]	/* MoveDirectAbsPt */
PUSHW[ ]	/* 1 value pushed */
10 
SRP0[ ]	/* SetRefPoint0 */
PUSHW[ ]	/* 1 value pushed */
77 
MDRP[11100]	/* MoveDirectRelPt */
SVTCA[0]	/* SetFreedomAndProjectionVectorToAxis */
PUSHW[ ]	/* 1 value pushed */
0 
RCVT[ ]	/* ReadCVT */
IF[ ]	/* If */
PUSHW[ ]	/* 1 value pushed */
15 
MDAP[1]	/* MoveDirectAbsPt */
ELSE[ ]	/* Else */
PUSHW[ ]	/* 2 values pushed */
15 14 
MIAP[0]	/* MoveIndirectAbsPt */
EIF[ ]	/* EndIf */
PUSHW[ ]	/* 1 value pushed */
0 
RCVT[ ]	/* ReadCVT */
IF[ ]	/* If */
PUSHW[ ]	/* 1 value pushed */
35 
MDAP[1]	/* MoveDirectAbsPt */
ELSE[ ]	/* Else */
PUSHW[ ]	/* 2 values pushed */
35 8 
MIAP[0]	/* MoveIndirectAbsPt */
EIF[ ]	/* EndIf */
PUSHW[ ]	/* 3 values pushed */
5 35 15 
SRP1[ ]	/* SetRefPoint1 */
SRP2[ ]	/* SetRefPoint2 */
IP[ ]	/* InterpolatePts */
PUSHW[ ]	/* 3 values pushed */
25 35 15 
SRP1[ ]	/* SetRefPoint1 */
SRP2[ ]	/* SetRefPoint2 */
IP[ ]	/* InterpolatePts */
IUP[0]	/* InterpolateUntPts */
IUP[1]	/* InterpolateUntPts */";
};
width = 486;
}
);
note = eight;
unicode = 0038;
},
{
glyphname = nine;
lastChange = "2020-12-31 20:25:24 +0000";
layers = (
{
layerId = "6873DD1C-7BCD-4DE2-A211-237E2294755D";
paths = (
{
closed = 1;
nodes = (
"148 19 OFFCURVE",
"257 80 OFFCURVE",
"342 165 CURVE SMOOTH",
"426 249 OFFCURVE",
"486 358 OFFCURVE",
"486 482 CURVE SMOOTH",
"486 616 OFFCURVE",
"385 734 OFFCURVE",
"254 734 CURVE SMOOTH",
"127 734 OFFCURVE",
"26 626 OFFCURVE",
"26 501 CURVE SMOOTH",
"26 376 OFFCURVE",
"111 282 OFFCURVE",
"246 282 CURVE SMOOTH",
"277 282 OFFCURVE",
"303 285 OFFCURVE",
"332 297 CURVE",
"264 144 OFFCURVE",
"169 62 OFFCURVE",
"45 9 CURVE",
"51 -6 LINE"
);
},
{
closed = 1;
nodes = (
"166 303 OFFCURVE",
"113 436 OFFCURVE",
"113 547 CURVE SMOOTH",
"113 655 OFFCURVE",
"169 718 OFFCURVE",
"254 718 CURVE SMOOTH",
"350 718 OFFCURVE",
"393 614 OFFCURVE",
"393 512 CURVE SMOOTH",
"393 444 OFFCURVE",
"383 383 OFFCURVE",
"340 328 CURVE SMOOTH",
"324 308 OFFCURVE",
"301 303 OFFCURVE",
"273 303 CURVE SMOOTH"
);
}
);
userData = {
assembly = "PUSHW[ ]	/* 1 value pushed */
48 
MDAP[1]	/* MoveDirectAbsPt */
PUSHW[ ]	/* 1 value pushed */
49 
MDAP[1]	/* MoveDirectAbsPt */
PUSHW[ ]	/* 1 value pushed */
0 
MDRP[11100]	/* MoveDirectRelPt */
PUSHW[ ]	/* 1 value pushed */
48 
SRP0[ ]	/* SetRefPoint0 */
PUSHW[ ]	/* 1 value pushed */
10 
MDRP[10000]	/* MoveDirectRelPt */
PUSHW[ ]	/* 1 value pushed */
10 
MDAP[1]	/* MoveDirectAbsPt */
PUSHW[ ]	/* 3 values pushed */
18 10 0 
SRP1[ ]	/* SetRefPoint1 */
SRP2[ ]	/* SetRefPoint2 */
IP[ ]	/* InterpolatePts */
PUSHW[ ]	/* 1 value pushed */
0 
SRP0[ ]	/* SetRefPoint0 */
PUSHW[ ]	/* 2 values pushed */
29 6 
MIRP[11100]	/* MoveIndirectRelPt */
NPUSHW[ ]	/* 5 values pushed */
106 29 122 29 2 
DELTAP1[ ]	/* DeltaExceptionP1 */
NPUSHW[ ]	/* 13 values pushed */
9 29 25 29 41 29 57 29 73 29 89 29 6 
DELTAP1[ ]	/* DeltaExceptionP1 */
PUSHW[ ]	/* 1 value pushed */
10 
SRP0[ ]	/* SetRefPoint0 */
PUSHW[ ]	/* 2 values pushed */
40 6 
MIRP[11100]	/* MoveIndirectRelPt */
NPUSHW[ ]	/* 13 values pushed */
6 40 22 40 38 40 54 40 70 40 86 40 6 
DELTAP1[ ]	/* DeltaExceptionP1 */
NPUSHW[ ]	/* 5 values pushed */
101 40 117 40 2 
DELTAP1[ ]	/* DeltaExceptionP1 */
SVTCA[0]	/* SetFreedomAndProjectionVectorToAxis */
PUSHW[ ]	/* 1 value pushed */
24 
MDAP[1]	/* MoveDirectAbsPt */
PUSHW[ ]	/* 1 value pushed */
0 
RCVT[ ]	/* ReadCVT */
IF[ ]	/* If */
PUSHW[ ]	/* 1 value pushed */
5 
MDAP[1]	/* MoveDirectAbsPt */
ELSE[ ]	/* Else */
PUSHW[ ]	/* 2 values pushed */
5 12 
MIAP[0]	/* MoveIndirectAbsPt */
EIF[ ]	/* EndIf */
PUSHW[ ]	/* 4 values pushed */
35 1 15 4 
CALL[ ]	/* CallFunction */
PUSHW[ ]	/* 1 value pushed */
35 
SRP0[ ]	/* SetRefPoint0 */
PUSHW[ ]	/* 3 values pushed */
18 15 35 
SRP1[ ]	/* SetRefPoint1 */
SRP2[ ]	/* SetRefPoint2 */
IP[ ]	/* InterpolatePts */
IUP[0]	/* InterpolateUntPts */
IUP[1]	/* InterpolateUntPts */";
};
width = 512;
}
);
note = nine;
unicode = 0039;
},
{
glyphname = colon;
lastChange = "2020-12-28 02:01:01 +0000";
layers = (
{
layerId = "6873DD1C-7BCD-4DE2-A211-237E2294755D";
paths = (
{
closed = 1;
nodes = (
"164.667 307 OFFCURVE",
"192 330.667 OFFCURVE",
"192 364 CURVE SMOOTH",
"192 394.667 OFFCURVE",
"164.667 421 OFFCURVE",
"134 421 CURVE SMOOTH",
"103.333 421 OFFCURVE",
"75 398.667 OFFCURVE",
"75 364 CURVE SMOOTH",
"75 329.333 OFFCURVE",
"103.333 307 OFFCURVE",
"134 307 CURVE SMOOTH"
);
},
{
closed = 1;
nodes = (
"164.667 -1 OFFCURVE",
"192 20.667 OFFCURVE",
"192 54 CURVE SMOOTH",
"192 84.667 OFFCURVE",
"164.667 111 OFFCURVE",
"134 111 CURVE SMOOTH",
"103.333 111 OFFCURVE",
"75 88.667 OFFCURVE",
"75 54 CURVE SMOOTH",
"75 18 OFFCURVE",
"103.333 -1 OFFCURVE",
"134 -1 CURVE SMOOTH"
);
}
);
userData = {
assembly = "PUSHW[ ]	/* 4 values pushed */
0 7 6 4 
CALL[ ]	/* CallFunction */
NPUSHW[ ]	/* 5 values pushed */
106 6 122 6 2 
DELTAP1[ ]	/* DeltaExceptionP1 */
NPUSHW[ ]	/* 13 values pushed */
9 6 25 6 41 6 57 6 73 6 89 6 6 
DELTAP1[ ]	/* DeltaExceptionP1 */
PUSHW[ ]	/* 1 value pushed */
12 
MDRP[10000]	/* MoveDirectRelPt */
PUSHW[ ]	/* 1 value pushed */
6 
SRP0[ ]	/* SetRefPoint0 */
PUSHW[ ]	/* 1 value pushed */
18 
MDRP[10000]	/* MoveDirectRelPt */
SVTCA[0]	/* SetFreedomAndProjectionVectorToAxis */
PUSHW[ ]	/* 1 value pushed */
0 
RCVT[ ]	/* ReadCVT */
IF[ ]	/* If */
PUSHW[ ]	/* 1 value pushed */
21 
MDAP[1]	/* MoveDirectAbsPt */
ELSE[ ]	/* Else */
PUSHW[ ]	/* 2 values pushed */
21 8 
MIAP[0]	/* MoveIndirectAbsPt */
EIF[ ]	/* EndIf */
PUSHW[ ]	/* 4 values pushed */
3 4 9 4 
CALL[ ]	/* CallFunction */
PUSHW[ ]	/* 1 value pushed */
3 
SRP0[ ]	/* SetRefPoint0 */
PUSHW[ ]	/* 1 value pushed */
21 
SRP0[ ]	/* SetRefPoint0 */
PUSHW[ ]	/* 2 values pushed */
15 4 
MIRP[11100]	/* MoveIndirectRelPt */
NPUSHW[ ]	/* 13 values pushed */
7 15 23 15 39 15 55 15 71 15 87 15 6 
DELTAP1[ ]	/* DeltaExceptionP1 */
NPUSHW[ ]	/* 5 values pushed */
102 15 118 15 2 
DELTAP1[ ]	/* DeltaExceptionP1 */
IUP[0]	/* InterpolateUntPts */
IUP[1]	/* InterpolateUntPts */";
};
width = 263;
}
);
note = colon;
unicode = 003A;
},
{
glyphname = semicolon;
lastChange = "2020-12-28 02:01:01 +0000";
layers = (
{
layerId = "6873DD1C-7BCD-4DE2-A211-237E2294755D";
paths = (
{
closed = 1;
nodes = (
"137.266 -135.412 OFFCURVE",
"201 -67.379 OFFCURVE",
"201 8 CURVE SMOOTH",
"201 57.695 OFFCURVE",
"162.244 99 OFFCURVE",
"119 99 CURVE SMOOTH",
"88.333 99 OFFCURVE",
"60 74.667 OFFCURVE",
"60 44 CURVE SMOOTH",
"60 17.333 OFFCURVE",
"78.667 -5 OFFCURVE",
"108 -5 CURVE SMOOTH",
"125.333 -5 OFFCURVE",
"144 3 OFFCURVE",
"152 23 CURVE",
"165.333 17.667 OFFCURVE",
"168 4.667 OFFCURVE",
"168 -14 CURVE SMOOTH",
"168 -71.333 OFFCURVE",
"127.333 -120.333 OFFCURVE",
"70 -131 CURVE",
"73 -141 LINE"
);
},
{
closed = 1;
nodes = (
"148.667 195 OFFCURVE",
"174 218 OFFCURVE",
"174 250 CURVE SMOOTH",
"174 280.667 OFFCURVE",
"148.667 305 OFFCURVE",
"118 305 CURVE SMOOTH",
"87.333 305 OFFCURVE",
"61 283.333 OFFCURVE",
"61 250 CURVE SMOOTH",
"61 215.333 OFFCURVE",
"87.333 195 OFFCURVE",
"118 195 CURVE SMOOTH"
);
}
);
userData = {
assembly = "PUSHW[ ]	/* 4 values pushed */
0 7 6 4 
CALL[ ]	/* CallFunction */
NPUSHW[ ]	/* 13 values pushed */
6 0 22 0 38 0 54 0 70 0 86 0 6 
DELTAP1[ ]	/* DeltaExceptionP1 */
NPUSHW[ ]	/* 5 values pushed */
101 0 117 0 2 
DELTAP1[ ]	/* DeltaExceptionP1 */
PUSHW[ ]	/* 1 value pushed */
12 
MDRP[11100]	/* MoveDirectRelPt */
PUSHW[ ]	/* 1 value pushed */
6 
SRP0[ ]	/* SetRefPoint0 */
PUSHW[ ]	/* 1 value pushed */
20 
MDRP[10000]	/* MoveDirectRelPt */
PUSHW[ ]	/* 1 value pushed */
20 
MDAP[1]	/* MoveDirectAbsPt */
PUSHW[ ]	/* 1 value pushed */
0 
SRP0[ ]	/* SetRefPoint0 */
PUSHW[ ]	/* 1 value pushed */
29 
MDRP[10000]	/* MoveDirectRelPt */
PUSHW[ ]	/* 1 value pushed */
29 
MDAP[1]	/* MoveDirectAbsPt */
SVTCA[0]	/* SetFreedomAndProjectionVectorToAxis */
PUSHW[ ]	/* 1 value pushed */
33 
MDAP[1]	/* MoveDirectAbsPt */
PUSHW[ ]	/* 4 values pushed */
3 4 9 4 
CALL[ ]	/* CallFunction */
PUSHW[ ]	/* 1 value pushed */
3 
SRP0[ ]	/* SetRefPoint0 */
IUP[0]	/* InterpolateUntPts */
IUP[1]	/* InterpolateUntPts */";
};
width = 263;
}
);
note = semicolon;
unicode = 003B;
},
{
glyphname = less;
lastChange = "2020-12-28 02:01:01 +0000";
layers = (
{
layerId = "6873DD1C-7BCD-4DE2-A211-237E2294755D";
paths = (
{
closed = 1;
nodes = (
"606 61 LINE",
"175 273 LINE",
"606 490 LINE",
"606 545 LINE",
"61 273 LINE",
"606 0 LINE"
);
}
);
userData = {
assembly = "SVTCA[0]	/* SetFreedomAndProjectionVectorToAxis */
PUSHW[ ]	/* 1 value pushed */
0 
MDAP[1]	/* MoveDirectAbsPt */
PUSHW[ ]	/* 1 value pushed */
0 
RCVT[ ]	/* ReadCVT */
IF[ ]	/* If */
PUSHW[ ]	/* 1 value pushed */
2 
MDAP[1]	/* MoveDirectAbsPt */
ELSE[ ]	/* Else */
PUSHW[ ]	/* 2 values pushed */
2 8 
MIAP[0]	/* MoveIndirectAbsPt */
EIF[ ]	/* EndIf */
PUSHW[ ]	/* 3 values pushed */
1 2 0 
SRP1[ ]	/* SetRefPoint1 */
SRP2[ ]	/* SetRefPoint2 */
IP[ ]	/* InterpolatePts */
PUSHW[ ]	/* 3 values pushed */
4 2 0 
SRP1[ ]	/* SetRefPoint1 */
SRP2[ ]	/* SetRefPoint2 */
IP[ ]	/* InterpolatePts */
IUP[0]	/* InterpolateUntPts */
IUP[1]	/* InterpolateUntPts */";
};
width = 667;
}
);
note = less;
unicode = 003C;
},
{
glyphname = equal;
lastChange = "2020-12-28 02:01:01 +0000";
layers = (
{
layerId = "6873DD1C-7BCD-4DE2-A211-237E2294755D";
paths = (
{
closed = 1;
nodes = (
"555 300 LINE",
"555 339 LINE",
"145 339 LINE",
"145 300 LINE"
);
},
{
closed = 1;
nodes = (
"555 186 LINE",
"555 225 LINE",
"145 225 LINE",
"145 186 LINE"
);
}
);
userData = {
assembly = "SVTCA[0]	/* SetFreedomAndProjectionVectorToAxis */
PUSHW[ ]	/* 4 values pushed */
5 3 4 4 
CALL[ ]	/* CallFunction */
PUSHW[ ]	/* 1 value pushed */
5 
SRP0[ ]	/* SetRefPoint0 */
PUSHW[ ]	/* 4 values pushed */
1 3 0 4 
CALL[ ]	/* CallFunction */
PUSHW[ ]	/* 1 value pushed */
1 
SRP0[ ]	/* SetRefPoint0 */
IUP[0]	/* InterpolateUntPts */
IUP[1]	/* InterpolateUntPts */";
};
width = 700;
}
);
note = equal;
unicode = 003D;
},
{
glyphname = greater;
lastChange = "2020-12-28 02:01:01 +0000";
layers = (
{
layerId = "6873DD1C-7BCD-4DE2-A211-237E2294755D";
paths = (
{
closed = 1;
nodes = (
"606 273 LINE",
"61 545 LINE",
"61 484 LINE",
"492 273 LINE",
"61 56 LINE",
"61 0 LINE"
);
}
);
userData = {
assembly = "SVTCA[0]	/* SetFreedomAndProjectionVectorToAxis */
PUSHW[ ]	/* 1 value pushed */
2 
MDAP[1]	/* MoveDirectAbsPt */
PUSHW[ ]	/* 1 value pushed */
0 
RCVT[ ]	/* ReadCVT */
IF[ ]	/* If */
PUSHW[ ]	/* 1 value pushed */
0 
MDAP[1]	/* MoveDirectAbsPt */
ELSE[ ]	/* Else */
PUSHW[ ]	/* 2 values pushed */
0 8 
MIAP[0]	/* MoveIndirectAbsPt */
EIF[ ]	/* EndIf */
PUSHW[ ]	/* 3 values pushed */
1 0 2 
SRP1[ ]	/* SetRefPoint1 */
SRP2[ ]	/* SetRefPoint2 */
IP[ ]	/* InterpolatePts */
PUSHW[ ]	/* 3 values pushed */
4 0 2 
SRP1[ ]	/* SetRefPoint1 */
SRP2[ ]	/* SetRefPoint2 */
IP[ ]	/* InterpolatePts */
IUP[0]	/* InterpolateUntPts */
IUP[1]	/* InterpolateUntPts */";
};
width = 667;
}
);
note = greater;
unicode = 003E;
},
{
glyphname = question;
lastChange = "2020-12-31 22:47:32 +0000";
layers = (
{
layerId = "6873DD1C-7BCD-4DE2-A211-237E2294755D";
paths = (
{
closed = 1;
nodes = (
"167.667 0 OFFCURVE",
"192 20.333 OFFCURVE",
"192 55 CURVE SMOOTH",
"192 89.667 OFFCURVE",
"167.667 118 OFFCURVE",
"133 118 CURVE SMOOTH",
"98.333 118 OFFCURVE",
"73 91.667 OFFCURVE",
"73 57 CURVE SMOOTH",
"73 22.333 OFFCURVE",
"98.333 0 OFFCURVE",
"133 0 CURVE SMOOTH"
);
},
{
closed = 1;
nodes = (
"41 590 LINE",
"70 635 OFFCURVE",
"107 651 OFFCURVE",
"164 651 CURVE SMOOTH",
"223 651 OFFCURVE",
"269 617 OFFCURVE",
"269 562 CURVE SMOOTH",
"269 466 OFFCURVE",
"177 400 OFFCURVE",
"104 341 CURVE",
"104 167 LINE",
"142 167 LINE",
"142 337 LINE",
"224 410 LINE SMOOTH",
"296 474 OFFCURVE",
"351 523 OFFCURVE",
"351 594 CURVE SMOOTH",
"351 670 OFFCURVE",
"288 722 OFFCURVE",
"197 722 CURVE SMOOTH",
"116 722 OFFCURVE",
"63 662 OFFCURVE",
"32 595 CURVE"
);
}
);
userData = {
assembly = "PUSHW[ ]	/* 4 values pushed */
38 7 44 4 
CALL[ ]	/* CallFunction */
PUSHW[ ]	/* 1 value pushed */
38 
SRP0[ ]	/* SetRefPoint0 */
PUSHW[ ]	/* 3 values pushed */
0 19 3 
CALL[ ]	/* CallFunction */
PUSHW[ ]	/* 1 value pushed */
0 
SRP0[ ]	/* SetRefPoint0 */
NPUSHW[ ]	/* 5 values pushed */
218 19 234 19 2 
DELTAP1[ ]	/* DeltaExceptionP1 */
NPUSHW[ ]	/* 27 values pushed */
9 19 25 19 41 19 57 19 73 19 89 19 105 19 121 19 137 19 153 19 169 19 185 19 201 19 13 
DELTAP1[ ]	/* DeltaExceptionP1 */
NPUSHW[ ]	/* 13 values pushed */
6 38 22 38 38 38 54 38 70 38 86 38 6 
DELTAP1[ ]	/* DeltaExceptionP1 */
NPUSHW[ ]	/* 5 values pushed */
101 38 117 38 2 
DELTAP1[ ]	/* DeltaExceptionP1 */
SVTCA[0]	/* SetFreedomAndProjectionVectorToAxis */
PUSHW[ ]	/* 1 value pushed */
0 
RCVT[ ]	/* ReadCVT */
IF[ ]	/* If */
PUSHW[ ]	/* 1 value pushed */
9 
MDAP[1]	/* MoveDirectAbsPt */
ELSE[ ]	/* Else */
PUSHW[ ]	/* 2 values pushed */
9 14 
MIAP[0]	/* MoveIndirectAbsPt */
EIF[ ]	/* EndIf */
PUSHW[ ]	/* 1 value pushed */
0 
RCVT[ ]	/* ReadCVT */
IF[ ]	/* If */
PUSHW[ ]	/* 1 value pushed */
47 
MDAP[1]	/* MoveDirectAbsPt */
ELSE[ ]	/* Else */
PUSHW[ ]	/* 2 values pushed */
47 8 
MIAP[0]	/* MoveIndirectAbsPt */
EIF[ ]	/* EndIf */
PUSHW[ ]	/* 4 values pushed */
8 4 14 4 
CALL[ ]	/* CallFunction */
PUSHW[ ]	/* 1 value pushed */
8 
SRP0[ ]	/* SetRefPoint0 */
PUSHW[ ]	/* 1 value pushed */
47 
SRP0[ ]	/* SetRefPoint0 */
PUSHW[ ]	/* 2 values pushed */
41 4 
MIRP[11100]	/* MoveIndirectRelPt */
NPUSHW[ ]	/* 13 values pushed */
7 41 23 41 39 41 55 41 71 41 87 41 6 
DELTAP1[ ]	/* DeltaExceptionP1 */
NPUSHW[ ]	/* 5 values pushed */
102 41 118 41 2 
DELTAP1[ ]	/* DeltaExceptionP1 */
IUP[0]	/* InterpolateUntPts */
IUP[1]	/* InterpolateUntPts */";
};
width = 401;
}
);
note = question;
unicode = 003F;
},
{
glyphname = at;
lastChange = "2020-12-28 02:01:01 +0000";
layers = (
{
layerId = "6873DD1C-7BCD-4DE2-A211-237E2294755D";
paths = (
{
closed = 1;
nodes = (
"535 -177 OFFCURVE",
"638.667 -137 OFFCURVE",
"722 -57 CURVE",
"714 -48 LINE",
"628.667 -118.667 OFFCURVE",
"544 -159 OFFCURVE",
"428 -159 CURVE SMOOTH",
"334.667 -159 OFFCURVE",
"253.5 -129.333 OFFCURVE",
"195.5 -76 CURVE SMOOTH",
"137.5 -22.667 OFFCURVE",
"104 53 OFFCURVE",
"104 149 CURVE SMOOTH",
"104 261 OFFCURVE",
"148.5 374 OFFCURVE",
"222.5 458 CURVE SMOOTH",
"296.5 542 OFFCURVE",
"401 599 OFFCURVE",
"521 599 CURVE SMOOTH",
"681.174 599 OFFCURVE",
"804 496.155 OFFCURVE",
"804 341 CURVE SMOOTH",
"804 191.678 OFFCURVE",
"701.105 56 OFFCURVE",
"546 56 CURVE SMOOTH",
"540.667 56 OFFCURVE",
"535.833 56.333 OFFCURVE",
"531.5 57 CURVE SMOOTH",
"527.167 57.667 OFFCURVE",
"522.333 58.333 OFFCURVE",
"517 59 CURVE",
"687 467 LINE",
"628 467 LINE",
"603 432 LINE",
"589.667 448 OFFCURVE",
"571.667 462 OFFCURVE",
"549 462 CURVE SMOOTH",
"529.667 462 OFFCURVE",
"507.667 455.667 OFFCURVE",
"483 443 CURVE SMOOTH",
"433.667 417.667 OFFCURVE",
"381.333 373.667 OFFCURVE",
"332 319 CURVE SMOOTH",
"307.333 291.667 OFFCURVE",
"285.333 263.5 OFFCURVE",
"266 234.5 CURVE SMOOTH",
"227.333 176.5 OFFCURVE",
"202 116.667 OFFCURVE",
"202 70 CURVE SMOOTH",
"202 43.333 OFFCURVE",
"212.333 20 OFFCURVE",
"251 20 CURVE SMOOTH",
"337.695 20 OFFCURVE",
"441.151 123.181 OFFCURVE",
"506 201 CURVE",
"512 199 LINE",
"441 35 LINE",
"462.333 23.667 OFFCURVE",
"487.333 18 OFFCURVE",
"516 18 CURVE SMOOTH",
"606.667 18 OFFCURVE",
"683.333 55.5 OFFCURVE",
"738 113.5 CURVE SMOOTH",
"792.667 171.5 OFFCURVE",
"825 251.667 OFFCURVE",
"825 337 CURVE SMOOTH",
"825 422.333 OFFCURVE",
"788.5 494.5 OFFCURVE",
"730.5 544.5 CURVE SMOOTH",
"672.5 594.5 OFFCURVE",
"592.333 623 OFFCURVE",
"503 623 CURVE SMOOTH",
"379 623 OFFCURVE",
"267.333 570.667 OFFCURVE",
"186 488 CURVE SMOOTH",
"104.667 405.333 OFFCURVE",
"54 290 OFFCURVE",
"54 166 CURVE SMOOTH",
"54 64.667 OFFCURVE",
"89.333 -19.833 OFFCURVE",
"152 -80.5 CURVE SMOOTH",
"214.667 -141.167 OFFCURVE",
"304.333 -177 OFFCURVE",
"411 -177 CURVE SMOOTH"
);
},
{
closed = 1;
nodes = (
"295 67 OFFCURVE",
"283 84 OFFCURVE",
"283 104 CURVE SMOOTH",
"283 154.349 OFFCURVE",
"339.903 261.715 OFFCURVE",
"377.5 313.5 CURVE SMOOTH",
"415.101 365.29 OFFCURVE",
"488.959 442 OFFCURVE",
"526 442 CURVE SMOOTH",
"555.333 442 OFFCURVE",
"570 414.333 OFFCURVE",
"570 389 CURVE SMOOTH",
"570 333.946 OFFCURVE",
"510.108 229.27 OFFCURVE",
"470 182 CURVE SMOOTH",
"430.104 134.98 OFFCURVE",
"354.322 67 OFFCURVE",
"319 67 CURVE SMOOTH"
);
}
);
userData = {
assembly = "PUSHW[ ]	/* 4 values pushed */
26 5 10 4 
CALL[ ]	/* CallFunction */
PUSHW[ ]	/* 1 value pushed */
26 
SRP0[ ]	/* SetRefPoint0 */
PUSHW[ ]	/* 4 values pushed */
84 5 57 4 
CALL[ ]	/* CallFunction */
PUSHW[ ]	/* 1 value pushed */
84 
SRP0[ ]	/* SetRefPoint0 */
PUSHW[ ]	/* 3 values pushed */
0 36 3 
CALL[ ]	/* CallFunction */
PUSHW[ ]	/* 1 value pushed */
0 
SRP0[ ]	/* SetRefPoint0 */
NPUSHW[ ]	/* 13 values pushed */
6 26 22 26 38 26 54 26 70 26 86 26 6 
DELTAP1[ ]	/* DeltaExceptionP1 */
NPUSHW[ ]	/* 5 values pushed */
101 26 117 26 2 
DELTAP1[ ]	/* DeltaExceptionP1 */
NPUSHW[ ]	/* 5 values pushed */
218 36 234 36 2 
DELTAP1[ ]	/* DeltaExceptionP1 */
NPUSHW[ ]	/* 27 values pushed */
9 36 25 36 41 36 57 36 73 36 89 36 105 36 121 36 137 36 153 36 169 36 185 36 201 36 13 
DELTAP1[ ]	/* DeltaExceptionP1 */
PUSHW[ ]	/* 3 values pushed */
44 10 0 
SRP1[ ]	/* SetRefPoint1 */
SRP2[ ]	/* SetRefPoint2 */
IP[ ]	/* InterpolatePts */
PUSHW[ ]	/* 3 values pushed */
45 10 0 
SRP1[ ]	/* SetRefPoint1 */
SRP2[ ]	/* SetRefPoint2 */
IP[ ]	/* InterpolatePts */
PUSHW[ ]	/* 3 values pushed */
47 10 0 
SRP1[ ]	/* SetRefPoint1 */
SRP2[ ]	/* SetRefPoint2 */
IP[ ]	/* InterpolatePts */
NPUSHW[ ]	/* 13 values pushed */
6 84 22 84 38 84 54 84 70 84 86 84 6 
DELTAP1[ ]	/* DeltaExceptionP1 */
NPUSHW[ ]	/* 5 values pushed */
101 84 117 84 2 
DELTAP1[ ]	/* DeltaExceptionP1 */
SVTCA[0]	/* SetFreedomAndProjectionVectorToAxis */
PUSHW[ ]	/* 1 value pushed */
15 
MDAP[1]	/* MoveDirectAbsPt */
PUSHW[ ]	/* 1 value pushed */
91 
MDAP[1]	/* MoveDirectAbsPt */
PUSHW[ ]	/* 4 values pushed */
5 2 31 4 
CALL[ ]	/* CallFunction */
PUSHW[ ]	/* 1 value pushed */
5 
SRP0[ ]	/* SetRefPoint0 */
PUSHW[ ]	/* 4 values pushed */
81 3 69 4 
CALL[ ]	/* CallFunction */
PUSHW[ ]	/* 1 value pushed */
81 
SRP0[ ]	/* SetRefPoint0 */
PUSHW[ ]	/* 1 value pushed */
69 
SRP0[ ]	/* SetRefPoint0 */
PUSHW[ ]	/* 2 values pushed */
41 3 
MIRP[11100]	/* MoveIndirectRelPt */
PUSHW[ ]	/* 1 value pushed */
44 
MDRP[10000]	/* MoveDirectRelPt */
PUSHW[ ]	/* 1 value pushed */
44 
MDAP[1]	/* MoveDirectAbsPt */
PUSHW[ ]	/* 3 values pushed */
47 15 91 
SRP1[ ]	/* SetRefPoint1 */
SRP2[ ]	/* SetRefPoint2 */
IP[ ]	/* InterpolatePts */
PUSHW[ ]	/* 1 value pushed */
69 
SRP0[ ]	/* SetRefPoint0 */
PUSHW[ ]	/* 1 value pushed */
60 
MDRP[10000]	/* MoveDirectRelPt */
PUSHW[ ]	/* 1 value pushed */
60 
MDAP[1]	/* MoveDirectAbsPt */
IUP[0]	/* InterpolateUntPts */
IUP[1]	/* InterpolateUntPts */";
};
width = 868;
}
);
note = at;
unicode = 0040;
},
{
glyphname = A;
lastChange = "2020-12-31 21:34:40 +0000";
layers = (
{
anchors = (
{
name = top;
position = "{348, 726}";
}
);
layerId = "6873DD1C-7BCD-4DE2-A211-237E2294755D";
paths = (
{
closed = 1;
nodes = (
"181 -4 LINE",
"181 6 LINE",
"145 12 OFFCURVE",
"98 19 OFFCURVE",
"98 54 CURVE SMOOTH",
"98 69 OFFCURVE",
"105 94 OFFCURVE",
"119 130 CURVE SMOOTH",
"128 153 OFFCURVE",
"138 177 OFFCURVE",
"147 200 CURVE SMOOTH",
"156 223 OFFCURVE",
"166 247 OFFCURVE",
"176 272 CURVE",
"442 272 LINE",
"462 220 OFFCURVE",
"480 171 OFFCURVE",
"493 132 CURVE SMOOTH",
"504 100 OFFCURVE",
"514 65 OFFCURVE",
"514 52 CURVE SMOOTH",
"514 19 OFFCURVE",
"462 6 OFFCURVE",
"444 6 CURVE",
"444 -4 LINE",
"736 -4 LINE",
"736 8 LINE",
"683 10 OFFCURVE",
"651 48 OFFCURVE",
"640 70 CURVE SMOOTH",
"632 87 OFFCURVE",
"625 103 OFFCURVE",
"619 117 CURVE SMOOTH",
"612 130 OFFCURVE",
"605 147 OFFCURVE",
"598 168 CURVE SMOOTH",
"566 252 OFFCURVE",
"535 337 OFFCURVE",
"501 429 CURVE SMOOTH",
"473 503 OFFCURVE",
"420 644 OFFCURVE",
"388 730 CURVE",
"380 730 LINE",
"366 705 OFFCURVE",
"336 666 OFFCURVE",
"292 647 CURVE",
"302 625 LINE",
"275 562 OFFCURVE",
"227 447 OFFCURVE",
"197 377 CURVE SMOOTH",
"160 292 OFFCURVE",
"124 209 OFFCURVE",
"96 146 CURVE SMOOTH",
"81 112 OFFCURVE",
"68 86 OFFCURVE",
"57 69 CURVE SMOOTH",
"46 52 OFFCURVE",
"39 41 OFFCURVE",
"34 36 CURVE",
"32 33 OFFCURVE",
"25 28 OFFCURVE",
"13 21 CURVE SMOOTH",
"0 14 OFFCURVE",
"-15 9 OFFCURVE",
"-32 7 CURVE",
"-32 -4 LINE"
);
},
{
closed = 1;
nodes = (
"210 356 OFFCURVE",
"248 448 OFFCURVE",
"267 493 CURVE SMOOTH",
"285 535 OFFCURVE",
"305 586 OFFCURVE",
"313 602 CURVE",
"324 575 OFFCURVE",
"348 515 OFFCURVE",
"366 470 CURVE SMOOTH",
"388 414 OFFCURVE",
"411 353 OFFCURVE",
"434 293 CURVE",
"185 293 LINE"
);
}
);
userData = {
assembly = "SVTCA[0]	/* SetFreedomAndProjectionVectorToAxis */
PUSHW[ ]	/* 1 value pushed */
11 
MDAP[1]	/* MoveDirectAbsPt */
PUSHW[ ]	/* 1 value pushed */
0 
RCVT[ ]	/* ReadCVT */
IF[ ]	/* If */
PUSHW[ ]	/* 1 value pushed */
42 
MDAP[1]	/* MoveDirectAbsPt */
ELSE[ ]	/* Else */
PUSHW[ ]	/* 2 values pushed */
42 14 
MIAP[0]	/* MoveIndirectAbsPt */
EIF[ ]	/* EndIf */
PUSHW[ ]	/* 1 value pushed */
0 
RCVT[ ]	/* ReadCVT */
IF[ ]	/* If */
PUSHW[ ]	/* 1 value pushed */
0 
MDAP[1]	/* MoveDirectAbsPt */
ELSE[ ]	/* Else */
PUSHW[ ]	/* 2 values pushed */
0 8 
MIAP[0]	/* MoveIndirectAbsPt */
EIF[ ]	/* EndIf */
PUSHW[ ]	/* 1 value pushed */
0 
RCVT[ ]	/* ReadCVT */
IF[ ]	/* If */
PUSHW[ ]	/* 1 value pushed */
23 
MDAP[1]	/* MoveDirectAbsPt */
ELSE[ ]	/* Else */
PUSHW[ ]	/* 2 values pushed */
23 8 
MIAP[0]	/* MoveIndirectAbsPt */
EIF[ ]	/* EndIf */
PUSHW[ ]	/* 3 values pushed */
58 0 42 
SRP1[ ]	/* SetRefPoint1 */
SRP2[ ]	/* SetRefPoint2 */
IP[ ]	/* InterpolatePts */
PUSHW[ ]	/* 3 values pushed */
63 0 42 
SRP1[ ]	/* SetRefPoint1 */
SRP2[ ]	/* SetRefPoint2 */
IP[ ]	/* InterpolatePts */
PUSHW[ ]	/* 3 values pushed */
64 0 42 
SRP1[ ]	/* SetRefPoint1 */
SRP2[ ]	/* SetRefPoint2 */
IP[ ]	/* InterpolatePts */
IUP[0]	/* InterpolateUntPts */
IUP[1]	/* InterpolateUntPts */";
};
width = 704;
}
);
note = A;
unicode = 0041;
},
{
glyphname = B;
lastChange = "2021-01-01 23:28:17 +0000";
layers = (
{
layerId = "6873DD1C-7BCD-4DE2-A211-237E2294755D";
paths = (
{
closed = 1;
nodes = (
"384 -1 LINE SMOOTH",
"443 -1 OFFCURVE",
"509 0 OFFCURVE",
"560 19 CURVE SMOOTH",
"625 43 OFFCURVE",
"684 108 OFFCURVE",
"684 196 CURVE SMOOTH",
"684 300 OFFCURVE",
"590 365 OFFCURVE",
"490 376 CURVE",
"490 380 LINE",
"581 399 OFFCURVE",
"643 453 OFFCURVE",
"643 541 CURVE SMOOTH",
"643 621 OFFCURVE",
"594 673 OFFCURVE",
"526 698 CURVE SMOOTH",
"483 714 OFFCURVE",
"438 719 OFFCURVE",
"387 719 CURVE SMOOTH",
"50 719 LINE",
"50 709 LINE",
"86 705 OFFCURVE",
"102 700 OFFCURVE",
"122 679 CURVE SMOOTH",
"138 663 OFFCURVE",
"142 615 OFFCURVE",
"142 557 CURVE SMOOTH",
"142 155 LINE SMOOTH",
"142 99 OFFCURVE",
"136 63 OFFCURVE",
"123 47 CURVE SMOOTH",
"104 26 OFFCURVE",
"72 14 OFFCURVE",
"39 9 CURVE",
"39 -1 LINE"
);
},
{
closed = 1;
nodes = (
"305 14 OFFCURVE",
"285 25 OFFCURVE",
"272 40 CURVE SMOOTH",
"258 56 OFFCURVE",
"252 80 OFFCURVE",
"252 133 CURVE SMOOTH",
"252 360 LINE",
"349 360 LINE SMOOTH",
"388 360 OFFCURVE",
"414 357 OFFCURVE",
"443 348 CURVE SMOOTH",
"514 324 OFFCURVE",
"567 261 OFFCURVE",
"567 185 CURVE SMOOTH",
"567 117 OFFCURVE",
"535 68 OFFCURVE",
"479 39 CURVE SMOOTH",
"436 16 OFFCURVE",
"389 14 OFFCURVE",
"350 14 CURVE SMOOTH"
);
},
{
closed = 1;
nodes = (
"252 631 LINE SMOOTH",
"252 660 OFFCURVE",
"253 678 OFFCURVE",
"260 688 CURVE SMOOTH",
"267 698 OFFCURVE",
"296 706 OFFCURVE",
"324 706 CURVE SMOOTH",
"371 706 OFFCURVE",
"409 699 OFFCURVE",
"439 686 CURVE SMOOTH",
"490 663 OFFCURVE",
"528 608 OFFCURVE",
"528 541 CURVE SMOOTH",
"528 450 OFFCURVE",
"465 383 OFFCURVE",
"345 376 CURVE SMOOTH",
"336 375 OFFCURVE",
"274 375 OFFCURVE",
"252 375 CURVE"
);
}
);
userData = {
assembly = "PUSHW[ ]	/* 4 values pushed */
67 7 25 4 
CALL[ ]	/* CallFunction */
PUSHW[ ]	/* 1 value pushed */
67 
SRP0[ ]	/* SetRefPoint0 */
PUSHW[ ]	/* 4 values pushed */
9 7 56 4 
CALL[ ]	/* CallFunction */
PUSHW[ ]	/* 1 value pushed */
9 
SRP0[ ]	/* SetRefPoint0 */
NPUSHW[ ]	/* 5 values pushed */
41 56 57 56 2 
DELTAP1[ ]	/* DeltaExceptionP1 */
NPUSHW[ ]	/* 5 values pushed */
106 56 122 56 2 
DELTAP1[ ]	/* DeltaExceptionP1 */
NPUSHW[ ]	/* 5 values pushed */
73 56 89 56 2 
DELTAP1[ ]	/* DeltaExceptionP1 */
NPUSHW[ ]	/* 5 values pushed */
9 56 25 56 2 
DELTAP1[ ]	/* DeltaExceptionP1 */
PUSHW[ ]	/* 3 values pushed */
83 56 9 
SRP1[ ]	/* SetRefPoint1 */
SRP2[ ]	/* SetRefPoint2 */
IP[ ]	/* InterpolatePts */
PUSHW[ ]	/* 1 value pushed */
83 
MDAP[1]	/* MoveDirectAbsPt */
NPUSHW[ ]	/* 5 values pushed */
106 83 122 83 2 
DELTAP1[ ]	/* DeltaExceptionP1 */
NPUSHW[ ]	/* 13 values pushed */
9 83 25 83 41 83 57 83 73 83 89 83 6 
DELTAP1[ ]	/* DeltaExceptionP1 */
PUSHW[ ]	/* 2 values pushed */
0 7 
MIRP[11100]	/* MoveIndirectRelPt */
PUSHW[ ]	/* 1 value pushed */
25 
SRP0[ ]	/* SetRefPoint0 */
PUSHW[ ]	/* 1 value pushed */
38 
MDRP[10000]	/* MoveDirectRelPt */
PUSHW[ ]	/* 1 value pushed */
38 
MDAP[1]	/* MoveDirectAbsPt */
PUSHW[ ]	/* 3 values pushed */
6 38 0 
SRP1[ ]	/* SetRefPoint1 */
SRP2[ ]	/* SetRefPoint2 */
IP[ ]	/* InterpolatePts */
PUSHW[ ]	/* 1 value pushed */
25 
SRP0[ ]	/* SetRefPoint0 */
PUSHW[ ]	/* 1 value pushed */
28 
MDRP[10000]	/* MoveDirectRelPt */
PUSHW[ ]	/* 1 value pushed */
28 
MDAP[1]	/* MoveDirectAbsPt */
PUSHW[ ]	/* 1 value pushed */
25 
SRP0[ ]	/* SetRefPoint0 */
PUSHW[ ]	/* 1 value pushed */
30 
MDRP[10000]	/* MoveDirectRelPt */
PUSHW[ ]	/* 1 value pushed */
30 
MDAP[1]	/* MoveDirectAbsPt */
PUSHW[ ]	/* 1 value pushed */
25 
SRP0[ ]	/* SetRefPoint0 */
PUSHW[ ]	/* 1 value pushed */
32 
MDRP[10000]	/* MoveDirectRelPt */
PUSHW[ ]	/* 1 value pushed */
32 
MDAP[1]	/* MoveDirectAbsPt */
PUSHW[ ]	/* 1 value pushed */
25 
SRP0[ ]	/* SetRefPoint0 */
PUSHW[ ]	/* 1 value pushed */
34 
MDRP[10000]	/* MoveDirectRelPt */
PUSHW[ ]	/* 1 value pushed */
34 
MDAP[1]	/* MoveDirectAbsPt */
NPUSHW[ ]	/* 13 values pushed */
6 67 22 67 38 67 54 67 70 67 86 67 6 
DELTAP1[ ]	/* DeltaExceptionP1 */
NPUSHW[ ]	/* 5 values pushed */
101 67 117 67 2 
DELTAP1[ ]	/* DeltaExceptionP1 */
PUSHW[ ]	/* 1 value pushed */
67 
SRP0[ ]	/* SetRefPoint0 */
PUSHW[ ]	/* 1 value pushed */
63 
MDRP[10000]	/* MoveDirectRelPt */
PUSHW[ ]	/* 1 value pushed */
67 
SRP0[ ]	/* SetRefPoint0 */
PUSHW[ ]	/* 1 value pushed */
65 
MDRP[10000]	/* MoveDirectRelPt */
PUSHW[ ]	/* 1 value pushed */
67 
SRP0[ ]	/* SetRefPoint0 */
PUSHW[ ]	/* 1 value pushed */
70 
MDRP[10000]	/* MoveDirectRelPt */
PUSHW[ ]	/* 1 value pushed */
70 
MDAP[1]	/* MoveDirectAbsPt */
PUSHW[ ]	/* 1 value pushed */
67 
SRP0[ ]	/* SetRefPoint0 */
PUSHW[ ]	/* 1 value pushed */
95 
MDRP[10000]	/* MoveDirectRelPt */
PUSHW[ ]	/* 1 value pushed */
95 
MDAP[1]	/* MoveDirectAbsPt */
PUSHW[ ]	/* 1 value pushed */
67 
SRP0[ ]	/* SetRefPoint0 */
PUSHW[ ]	/* 1 value pushed */
98 
MDRP[10000]	/* MoveDirectRelPt */
PUSHW[ ]	/* 1 value pushed */
67 
SRP0[ ]	/* SetRefPoint0 */
PUSHW[ ]	/* 1 value pushed */
100 
MDRP[10000]	/* MoveDirectRelPt */
PUSHW[ ]	/* 1 value pushed */
67 
SRP0[ ]	/* SetRefPoint0 */
PUSHW[ ]	/* 1 value pushed */
102 
MDRP[10000]	/* MoveDirectRelPt */
SVTCA[0]	/* SetFreedomAndProjectionVectorToAxis */
PUSHW[ ]	/* 1 value pushed */
0 
RCVT[ ]	/* ReadCVT */
IF[ ]	/* If */
PUSHW[ ]	/* 1 value pushed */
15 
MDAP[1]	/* MoveDirectAbsPt */
ELSE[ ]	/* Else */
PUSHW[ ]	/* 2 values pushed */
15 14 
MIAP[0]	/* MoveIndirectAbsPt */
EIF[ ]	/* EndIf */
PUSHW[ ]	/* 1 value pushed */
0 
RCVT[ ]	/* ReadCVT */
IF[ ]	/* If */
PUSHW[ ]	/* 1 value pushed */
47 
MDAP[1]	/* MoveDirectAbsPt */
ELSE[ ]	/* Else */
PUSHW[ ]	/* 2 values pushed */
47 8 
MIAP[0]	/* MoveIndirectAbsPt */
EIF[ ]	/* EndIf */
PUSHW[ ]	/* 3 values pushed */
6 47 15 
SRP1[ ]	/* SetRefPoint1 */
SRP2[ ]	/* SetRefPoint2 */
IP[ ]	/* InterpolatePts */
IUP[0]	/* InterpolateUntPts */
IUP[1]	/* InterpolateUntPts */";
};
width = 745;
}
);
note = B;
unicode = 0042;
},
{
glyphname = C;
lastChange = "2020-12-31 21:38:10 +0000";
layers = (
{
anchors = (
{
name = bottom;
position = "{437, -2}";
}
);
layerId = "6873DD1C-7BCD-4DE2-A211-237E2294755D";
paths = (
{
closed = 1;
nodes = (
"507 -20 OFFCURVE",
"564 -5 OFFCURVE",
"604 12 CURVE SMOOTH",
"631 23 OFFCURVE",
"666 45 OFFCURVE",
"668 45 CURVE SMOOTH",
"671 45 OFFCURVE",
"677 40 OFFCURVE",
"686 31 CURVE SMOOTH",
"695 22 OFFCURVE",
"703 11 OFFCURVE",
"711 0 CURVE",
"723 0 LINE",
"726 220 LINE",
"714 220 LINE",
"689 101 OFFCURVE",
"575 -4 OFFCURVE",
"442 -4 CURVE SMOOTH",
"354 -4 OFFCURVE",
"281 35 OFFCURVE",
"230 97 CURVE SMOOTH",
"179 159 OFFCURVE",
"151 245 OFFCURVE",
"151 341 CURVE SMOOTH",
"151 432 OFFCURVE",
"178 521 OFFCURVE",
"227 589 CURVE SMOOTH",
"275 657 OFFCURVE",
"348 702 OFFCURVE",
"440 702 CURVE SMOOTH",
"572 702 OFFCURVE",
"680 601 OFFCURVE",
"715 472 CURVE",
"727 473 LINE",
"727 697 LINE",
"716 697 LINE",
"708 684 OFFCURVE",
"678 649 OFFCURVE",
"670 649 CURVE SMOOTH",
"668 649 OFFCURVE",
"632 673 OFFCURVE",
"606 684 CURVE SMOOTH",
"566 701 OFFCURVE",
"506 719 OFFCURVE",
"426 719 CURVE SMOOTH",
"264 719 OFFCURVE",
"149 649 OFFCURVE",
"87 548 CURVE SMOOTH",
"44 478 OFFCURVE",
"28 401 OFFCURVE",
"28 346 CURVE SMOOTH",
"28 238 OFFCURVE",
"67 146 OFFCURVE",
"137 82 CURVE SMOOTH",
"207 17 OFFCURVE",
"308 -20 OFFCURVE",
"432 -20 CURVE SMOOTH"
);
}
);
userData = {
assembly = "PUSHW[ ]	/* 4 values pushed */
48 7 22 4 
CALL[ ]	/* CallFunction */
PUSHW[ ]	/* 1 value pushed */
48 
SRP0[ ]	/* SetRefPoint0 */
NPUSHW[ ]	/* 13 values pushed */
6 48 22 48 38 48 54 48 70 48 86 48 6 
DELTAP1[ ]	/* DeltaExceptionP1 */
NPUSHW[ ]	/* 5 values pushed */
101 48 117 48 2 
DELTAP1[ ]	/* DeltaExceptionP1 */
SVTCA[0]	/* SetFreedomAndProjectionVectorToAxis */
PUSHW[ ]	/* 1 value pushed */
0 
RCVT[ ]	/* ReadCVT */
IF[ ]	/* If */
PUSHW[ ]	/* 1 value pushed */
12 
MDAP[1]	/* MoveDirectAbsPt */
ELSE[ ]	/* Else */
PUSHW[ ]	/* 2 values pushed */
12 14 
MIAP[0]	/* MoveIndirectAbsPt */
EIF[ ]	/* EndIf */
PUSHW[ ]	/* 1 value pushed */
0 
RCVT[ ]	/* ReadCVT */
IF[ ]	/* If */
PUSHW[ ]	/* 1 value pushed */
27 
MDAP[1]	/* MoveDirectAbsPt */
ELSE[ ]	/* Else */
PUSHW[ ]	/* 2 values pushed */
27 8 
MIAP[0]	/* MoveIndirectAbsPt */
EIF[ ]	/* EndIf */
IUP[0]	/* InterpolateUntPts */
IUP[1]	/* InterpolateUntPts */";
};
width = 776;
}
);
note = C;
unicode = 0043;
},
{
glyphname = D;
lastChange = "2021-01-01 23:39:33 +0000";
layers = (
{
layerId = "6873DD1C-7BCD-4DE2-A211-237E2294755D";
paths = (
{
closed = 1;
nodes = (
"406 0 LINE SMOOTH",
"436.667 0 OFFCURVE",
"468.333 2.167 OFFCURVE",
"501 6.5 CURVE SMOOTH",
"566.333 15.167 OFFCURVE",
"628.333 36 OFFCURVE",
"683 72 CURVE SMOOTH",
"710.333 90 OFFCURVE",
"734.333 112.667 OFFCURVE",
"755 140 CURVE SMOOTH",
"796.333 194.667 OFFCURVE",
"822 270 OFFCURVE",
"822 370 CURVE SMOOTH",
"822 530.72 OFFCURVE",
"737.547 635.766 OFFCURVE",
"618 687 CURVE SMOOTH",
"559.624 712.54 OFFCURVE",
"482.002 721 OFFCURVE",
"421 721 CURVE SMOOTH",
"399.667 721 OFFCURVE",
"378.333 721 OFFCURVE",
"357 721 CURVE SMOOTH",
"282.333 721 OFFCURVE",
"218.667 720.833 OFFCURVE",
"166 720.5 CURVE SMOOTH",
"113.333 720.167 OFFCURVE",
"73 720 OFFCURVE",
"45 720 CURVE",
"45 710 LINE",
"79.667 706 OFFCURVE",
"107 698 OFFCURVE",
"127 674 CURVE SMOOTH",
"138 661 OFFCURVE",
"143 630 OFFCURVE",
"143 594 CURVE SMOOTH",
"143 156 LINE SMOOTH",
"143 97 OFFCURVE",
"133 63 OFFCURVE",
"121 51 CURVE SMOOTH",
"105 34 OFFCURVE",
"74.333 14 OFFCURVE",
"41 10 CURVE",
"41 0 LINE"
);
},
{
closed = 1;
nodes = (
"347 15 OFFCURVE",
"301.667 19.333 OFFCURVE",
"275 46 CURVE SMOOTH",
"258.7 62.3 OFFCURVE",
"252 102 OFFCURVE",
"252 155 CURVE SMOOTH",
"252 602 LINE SMOOTH",
"252 655 OFFCURVE",
"259 687 OFFCURVE",
"264 692 CURVE SMOOTH",
"273 700 OFFCURVE",
"321 705 OFFCURVE",
"356 705 CURVE SMOOTH",
"403 705 OFFCURVE",
"432.333 701.333 OFFCURVE",
"459 696 CURVE SMOOTH",
"598.851 671.795 OFFCURVE",
"699 519.139 OFFCURVE",
"699 368 CURVE SMOOTH",
"699 193.333 OFFCURVE",
"628 68.333 OFFCURVE",
"484 27 CURVE SMOOTH",
"453.333 17.667 OFFCURVE",
"416.333 15 OFFCURVE",
"383 15 CURVE SMOOTH"
);
}
);
userData = {
assembly = "PUSHW[ ]	/* 1 value pushed */
82 
MDAP[1]	/* MoveDirectAbsPt */
PUSHW[ ]	/* 1 value pushed */
83 
MDAP[1]	/* MoveDirectAbsPt */
PUSHW[ ]	/* 1 value pushed */
0 
MDRP[11100]	/* MoveDirectRelPt */
PUSHW[ ]	/* 1 value pushed */
82 
SRP0[ ]	/* SetRefPoint0 */
PUSHW[ ]	/* 1 value pushed */
27 
MDRP[10000]	/* MoveDirectRelPt */
PUSHW[ ]	/* 1 value pushed */
27 
MDAP[1]	/* MoveDirectAbsPt */
PUSHW[ ]	/* 1 value pushed */
22 
MDRP[10000]	/* MoveDirectRelPt */
PUSHW[ ]	/* 1 value pushed */
27 
SRP0[ ]	/* SetRefPoint0 */
PUSHW[ ]	/* 1 value pushed */
24 
MDRP[10000]	/* MoveDirectRelPt */
PUSHW[ ]	/* 1 value pushed */
27 
SRP0[ ]	/* SetRefPoint0 */
PUSHW[ ]	/* 1 value pushed */
31 
MDRP[10000]	/* MoveDirectRelPt */
PUSHW[ ]	/* 1 value pushed */
31 
MDAP[1]	/* MoveDirectAbsPt */
PUSHW[ ]	/* 1 value pushed */
0 
SRP0[ ]	/* SetRefPoint0 */
PUSHW[ ]	/* 2 values pushed */
48 7 
MIRP[11100]	/* MoveIndirectRelPt */
NPUSHW[ ]	/* 5 values pushed */
106 48 122 48 2 
DELTAP1[ ]	/* DeltaExceptionP1 */
NPUSHW[ ]	/* 13 values pushed */
9 48 25 48 41 48 57 48 73 48 89 48 6 
DELTAP1[ ]	/* DeltaExceptionP1 */
PUSHW[ ]	/* 1 value pushed */
27 
SRP0[ ]	/* SetRefPoint0 */
PUSHW[ ]	/* 2 values pushed */
62 7 
MIRP[11100]	/* MoveIndirectRelPt */
NPUSHW[ ]	/* 13 values pushed */
6 62 22 62 38 62 54 62 70 62 86 62 6 
DELTAP1[ ]	/* DeltaExceptionP1 */
NPUSHW[ ]	/* 5 values pushed */
101 62 117 62 2 
DELTAP1[ ]	/* DeltaExceptionP1 */
PUSHW[ ]	/* 1 value pushed */
64 
MDRP[10000]	/* MoveDirectRelPt */
PUSHW[ ]	/* 1 value pushed */
64 
MDAP[1]	/* MoveDirectAbsPt */
PUSHW[ ]	/* 1 value pushed */
62 
SRP0[ ]	/* SetRefPoint0 */
PUSHW[ ]	/* 1 value pushed */
66 
MDRP[10000]	/* MoveDirectRelPt */
PUSHW[ ]	/* 1 value pushed */
66 
MDAP[1]	/* MoveDirectAbsPt */
PUSHW[ ]	/* 1 value pushed */
62 
SRP0[ ]	/* SetRefPoint0 */
PUSHW[ ]	/* 1 value pushed */
69 
MDRP[10000]	/* MoveDirectRelPt */
PUSHW[ ]	/* 1 value pushed */
69 
MDAP[1]	/* MoveDirectAbsPt */
SVTCA[0]	/* SetFreedomAndProjectionVectorToAxis */
PUSHW[ ]	/* 1 value pushed */
0 
RCVT[ ]	/* ReadCVT */
IF[ ]	/* If */
PUSHW[ ]	/* 1 value pushed */
9 
MDAP[1]	/* MoveDirectAbsPt */
ELSE[ ]	/* Else */
PUSHW[ ]	/* 2 values pushed */
9 14 
MIAP[0]	/* MoveIndirectAbsPt */
EIF[ ]	/* EndIf */
PUSHW[ ]	/* 1 value pushed */
0 
RCVT[ ]	/* ReadCVT */
IF[ ]	/* If */
PUSHW[ ]	/* 1 value pushed */
11 
MDAP[1]	/* MoveDirectAbsPt */
ELSE[ ]	/* Else */
PUSHW[ ]	/* 2 values pushed */
11 14 
MIAP[0]	/* MoveIndirectAbsPt */
EIF[ ]	/* EndIf */
PUSHW[ ]	/* 1 value pushed */
0 
RCVT[ ]	/* ReadCVT */
IF[ ]	/* If */
PUSHW[ ]	/* 1 value pushed */
14 
MDAP[1]	/* MoveDirectAbsPt */
ELSE[ ]	/* Else */
PUSHW[ ]	/* 2 values pushed */
14 14 
MIAP[0]	/* MoveIndirectAbsPt */
EIF[ ]	/* EndIf */
PUSHW[ ]	/* 1 value pushed */
0 
RCVT[ ]	/* ReadCVT */
IF[ ]	/* If */
PUSHW[ ]	/* 1 value pushed */
40 
MDAP[1]	/* MoveDirectAbsPt */
ELSE[ ]	/* Else */
PUSHW[ ]	/* 2 values pushed */
40 8 
MIAP[0]	/* MoveIndirectAbsPt */
EIF[ ]	/* EndIf */
IUP[0]	/* InterpolateUntPts */
IUP[1]	/* InterpolateUntPts */";
};
width = 852;
}
);
note = D;
unicode = 0044;
},
{
glyphname = E;
lastChange = "2021-01-01 23:30:54 +0000";
layers = (
{
anchors = (
{
name = top;
position = "{332, 726}";
}
);
layerId = "6873DD1C-7BCD-4DE2-A211-237E2294755D";
paths = (
{
closed = 1;
nodes = (
"653 0 LINE",
"703 191 LINE",
"692 194 LINE",
"631.211 89.444 OFFCURVE",
"573 36 OFFCURVE",
"484 21 CURVE SMOOTH",
"423 11 OFFCURVE",
"348 7 OFFCURVE",
"300 41 CURVE SMOOTH",
"271 60 OFFCURVE",
"252 101 OFFCURVE",
"252 144 CURVE SMOOTH",
"252 360 LINE",
"263 360 OFFCURVE",
"365 361 OFFCURVE",
"385 358 CURVE SMOOTH",
"447 349 OFFCURVE",
"473 297 OFFCURVE",
"495 207 CURVE",
"507 207 LINE",
"507 522 LINE",
"495 522 LINE",
"478.527 445.128 OFFCURVE",
"458.234 402.488 OFFCURVE",
"379 384 CURVE SMOOTH",
"355.413 378.557 OFFCURVE",
"296.982 376 OFFCURVE",
"253 376 CURVE",
"253 652 LINE SMOOTH",
"253 672 OFFCURVE",
"275 688 OFFCURVE",
"305 692 CURVE SMOOTH",
"355 699 OFFCURVE",
"443 694 OFFCURVE",
"484 683 CURVE SMOOTH",
"553 665 OFFCURVE",
"606 617.333 OFFCURVE",
"660 550 CURVE",
"670 555 LINE",
"602 720 LINE",
"50 720 LINE",
"50 710 LINE",
"86 704.667 OFFCURVE",
"100 701 OFFCURVE",
"120 681 CURVE SMOOTH",
"136 665 OFFCURVE",
"144 653 OFFCURVE",
"143 558 CURVE SMOOTH",
"143 183 LINE SMOOTH",
"140 82 OFFCURVE",
"132 64 OFFCURVE",
"119 48 CURVE SMOOTH",
"100 27 OFFCURVE",
"74.333 15.333 OFFCURVE",
"41 10 CURVE",
"41 0 LINE"
);
}
);
userData = {
assembly = "PUSHW[ ]	/* 4 values pushed */
54 7 83 4 
CALL[ ]	/* CallFunction */
PUSHW[ ]	/* 1 value pushed */
54 
SRP0[ ]	/* SetRefPoint0 */
PUSHW[ ]	/* 1 value pushed */
14 
MDRP[10000]	/* MoveDirectRelPt */
PUSHW[ ]	/* 1 value pushed */
54 
SRP0[ ]	/* SetRefPoint0 */
PUSHW[ ]	/* 1 value pushed */
17 
MDRP[10000]	/* MoveDirectRelPt */
PUSHW[ ]	/* 1 value pushed */
17 
MDAP[1]	/* MoveDirectAbsPt */
PUSHW[ ]	/* 1 value pushed */
54 
SRP0[ ]	/* SetRefPoint0 */
PUSHW[ ]	/* 1 value pushed */
19 
MDRP[10000]	/* MoveDirectRelPt */
PUSHW[ ]	/* 1 value pushed */
19 
MDAP[1]	/* MoveDirectAbsPt */
PUSHW[ ]	/* 1 value pushed */
54 
SRP0[ ]	/* SetRefPoint0 */
PUSHW[ ]	/* 1 value pushed */
21 
MDRP[10000]	/* MoveDirectRelPt */
PUSHW[ ]	/* 1 value pushed */
21 
MDAP[1]	/* MoveDirectAbsPt */
PUSHW[ ]	/* 1 value pushed */
54 
SRP0[ ]	/* SetRefPoint0 */
PUSHW[ ]	/* 1 value pushed */
23 
MDRP[10000]	/* MoveDirectRelPt */
PUSHW[ ]	/* 1 value pushed */
23 
MDAP[1]	/* MoveDirectAbsPt */
PUSHW[ ]	/* 1 value pushed */
54 
SRP0[ ]	/* SetRefPoint0 */
PUSHW[ ]	/* 1 value pushed */
25 
MDRP[10000]	/* MoveDirectRelPt */
PUSHW[ ]	/* 1 value pushed */
25 
MDAP[1]	/* MoveDirectAbsPt */
PUSHW[ ]	/* 1 value pushed */
54 
SRP0[ ]	/* SetRefPoint0 */
PUSHW[ ]	/* 1 value pushed */
57 
MDRP[10000]	/* MoveDirectRelPt */
PUSHW[ ]	/* 1 value pushed */
57 
MDAP[1]	/* MoveDirectAbsPt */
PUSHW[ ]	/* 1 value pushed */
54 
SRP0[ ]	/* SetRefPoint0 */
PUSHW[ ]	/* 1 value pushed */
59 
MDRP[10000]	/* MoveDirectRelPt */
PUSHW[ ]	/* 1 value pushed */
59 
MDAP[1]	/* MoveDirectAbsPt */
PUSHW[ ]	/* 1 value pushed */
54 
SRP0[ ]	/* SetRefPoint0 */
PUSHW[ ]	/* 1 value pushed */
62 
MDRP[10000]	/* MoveDirectRelPt */
PUSHW[ ]	/* 1 value pushed */
62 
MDAP[1]	/* MoveDirectAbsPt */
PUSHW[ ]	/* 1 value pushed */
83 
SRP0[ ]	/* SetRefPoint0 */
PUSHW[ ]	/* 1 value pushed */
85 
MDRP[10000]	/* MoveDirectRelPt */
PUSHW[ ]	/* 1 value pushed */
83 
SRP0[ ]	/* SetRefPoint0 */
PUSHW[ ]	/* 1 value pushed */
89 
MDRP[10000]	/* MoveDirectRelPt */
PUSHW[ ]	/* 1 value pushed */
89 
MDAP[1]	/* MoveDirectAbsPt */
SVTCA[0]	/* SetFreedomAndProjectionVectorToAxis */
PUSHW[ ]	/* 1 value pushed */
0 
RCVT[ ]	/* ReadCVT */
IF[ ]	/* If */
PUSHW[ ]	/* 1 value pushed */
72 
MDAP[1]	/* MoveDirectAbsPt */
ELSE[ ]	/* Else */
PUSHW[ ]	/* 2 values pushed */
72 14 
MIAP[0]	/* MoveIndirectAbsPt */
EIF[ ]	/* EndIf */
PUSHW[ ]	/* 1 value pushed */
0 
RCVT[ ]	/* ReadCVT */
IF[ ]	/* If */
PUSHW[ ]	/* 1 value pushed */
98 
MDAP[1]	/* MoveDirectAbsPt */
ELSE[ ]	/* Else */
PUSHW[ ]	/* 2 values pushed */
98 8 
MIAP[0]	/* MoveIndirectAbsPt */
EIF[ ]	/* EndIf */
IUP[0]	/* InterpolateUntPts */
IUP[1]	/* InterpolateUntPts */";
};
width = 711;
}
);
note = E;
unicode = 0045;
},
{
glyphname = F;
lastChange = "2020-12-31 20:44:32 +0000";
layers = (
{
layerId = "6873DD1C-7BCD-4DE2-A211-237E2294755D";
paths = (
{
closed = 1;
nodes = (
"361 0 LINE",
"361 10 LINE",
"252.87 15.275 OFFCURVE",
"252 46 OFFCURVE",
"252 144 CURVE SMOOTH",
"252 161 OFFCURVE",
"252 279 OFFCURVE",
"252 296 CURVE SMOOTH",
"252 317.333 OFFCURVE",
"252 338.667 OFFCURVE",
"252 360 CURVE",
"262.667 360 OFFCURVE",
"293.333 360 OFFCURVE",
"300 360 CURVE SMOOTH",
"313.333 360 OFFCURVE",
"327 359.333 OFFCURVE",
"347 358 CURVE SMOOTH",
"385.667 355.333 OFFCURVE",
"412.667 344.667 OFFCURVE",
"438 322 CURVE SMOOTH",
"466 296.667 OFFCURVE",
"486.333 242.667 OFFCURVE",
"497 200 CURVE",
"509 200 LINE",
"509 522 LINE",
"497 522 LINE",
"485.065 447.405 OFFCURVE",
"471.748 404.166 OFFCURVE",
"381 384 CURVE SMOOTH",
"356.123 378.669 OFFCURVE",
"293.763 376 OFFCURVE",
"270 376 CURVE SMOOTH",
"260 376 OFFCURVE",
"254 376 OFFCURVE",
"252 376 CURVE",
"252 379.333 OFFCURVE",
"252.667 579.333 OFFCURVE",
"254 626 CURVE SMOOTH",
"256.447 670.049 OFFCURVE",
"267 689 OFFCURVE",
"289 700 CURVE SMOOTH",
"301 706 OFFCURVE",
"331.734 706 OFFCURVE",
"349 706 CURVE SMOOTH",
"427.667 706 OFFCURVE",
"491.333 697.667 OFFCURVE",
"514 687 CURVE SMOOTH",
"560.667 664.333 OFFCURVE",
"609.333 615 OFFCURVE",
"664 547 CURVE",
"674 552 LINE",
"606 720 LINE",
"50 720 LINE",
"50 710 LINE",
"86 704.667 OFFCURVE",
"106 702.333 OFFCURVE",
"126 681 CURVE SMOOTH",
"142.15 664.85 OFFCURVE",
"143 597.599 OFFCURVE",
"143 558 CURVE SMOOTH",
"143 156 LINE SMOOTH",
"143 121 OFFCURVE",
"136.201 63.841 OFFCURVE",
"123 48 CURVE SMOOTH",
"104.333 26.667 OFFCURVE",
"74.333 15.333 OFFCURVE",
"41 10 CURVE",
"41 0 LINE"
);
}
);
userData = {
assembly = "PUSHW[ ]	/* 4 values pushed */
34 7 14 4 
CALL[ ]	/* CallFunction */
PUSHW[ ]	/* 1 value pushed */
34 
SRP0[ ]	/* SetRefPoint0 */
PUSHW[ ]	/* 1 value pushed */
14 
SRP0[ ]	/* SetRefPoint0 */
PUSHW[ ]	/* 1 value pushed */
11 
MDRP[10000]	/* MoveDirectRelPt */
PUSHW[ ]	/* 1 value pushed */
14 
SRP0[ ]	/* SetRefPoint0 */
PUSHW[ ]	/* 1 value pushed */
18 
MDRP[10000]	/* MoveDirectRelPt */
PUSHW[ ]	/* 1 value pushed */
18 
MDAP[1]	/* MoveDirectAbsPt */
NPUSHW[ ]	/* 13 values pushed */
6 34 22 34 38 34 54 34 70 34 86 34 6 
DELTAP1[ ]	/* DeltaExceptionP1 */
NPUSHW[ ]	/* 5 values pushed */
101 34 117 34 2 
DELTAP1[ ]	/* DeltaExceptionP1 */
PUSHW[ ]	/* 1 value pushed */
34 
SRP0[ ]	/* SetRefPoint0 */
PUSHW[ ]	/* 1 value pushed */
37 
MDRP[10000]	/* MoveDirectRelPt */
PUSHW[ ]	/* 1 value pushed */
37 
MDAP[1]	/* MoveDirectAbsPt */
PUSHW[ ]	/* 1 value pushed */
34 
SRP0[ ]	/* SetRefPoint0 */
PUSHW[ ]	/* 1 value pushed */
39 
MDRP[10000]	/* MoveDirectRelPt */
PUSHW[ ]	/* 1 value pushed */
39 
MDAP[1]	/* MoveDirectAbsPt */
PUSHW[ ]	/* 1 value pushed */
34 
SRP0[ ]	/* SetRefPoint0 */
PUSHW[ ]	/* 1 value pushed */
41 
MDRP[10000]	/* MoveDirectRelPt */
PUSHW[ ]	/* 1 value pushed */
41 
MDAP[1]	/* MoveDirectAbsPt */
PUSHW[ ]	/* 1 value pushed */
34 
SRP0[ ]	/* SetRefPoint0 */
PUSHW[ ]	/* 1 value pushed */
68 
MDRP[10000]	/* MoveDirectRelPt */
PUSHW[ ]	/* 1 value pushed */
68 
MDAP[1]	/* MoveDirectAbsPt */
PUSHW[ ]	/* 1 value pushed */
34 
SRP0[ ]	/* SetRefPoint0 */
PUSHW[ ]	/* 1 value pushed */
70 
MDRP[10000]	/* MoveDirectRelPt */
PUSHW[ ]	/* 1 value pushed */
70 
MDAP[1]	/* MoveDirectAbsPt */
PUSHW[ ]	/* 1 value pushed */
34 
SRP0[ ]	/* SetRefPoint0 */
PUSHW[ ]	/* 1 value pushed */
72 
MDRP[10000]	/* MoveDirectRelPt */
PUSHW[ ]	/* 1 value pushed */
72 
MDAP[1]	/* MoveDirectAbsPt */
PUSHW[ ]	/* 1 value pushed */
34 
SRP0[ ]	/* SetRefPoint0 */
PUSHW[ ]	/* 1 value pushed */
75 
MDRP[10000]	/* MoveDirectRelPt */
PUSHW[ ]	/* 1 value pushed */
75 
MDAP[1]	/* MoveDirectAbsPt */
SVTCA[0]	/* SetFreedomAndProjectionVectorToAxis */
PUSHW[ ]	/* 1 value pushed */
0 
RCVT[ ]	/* ReadCVT */
IF[ ]	/* If */
PUSHW[ ]	/* 1 value pushed */
1 
MDAP[1]	/* MoveDirectAbsPt */
ELSE[ ]	/* Else */
PUSHW[ ]	/* 2 values pushed */
1 14 
MIAP[0]	/* MoveIndirectAbsPt */
EIF[ ]	/* EndIf */
PUSHW[ ]	/* 1 value pushed */
0 
RCVT[ ]	/* ReadCVT */
IF[ ]	/* If */
PUSHW[ ]	/* 1 value pushed */
27 
MDAP[1]	/* MoveDirectAbsPt */
ELSE[ ]	/* Else */
PUSHW[ ]	/* 2 values pushed */
27 8 
MIAP[0]	/* MoveIndirectAbsPt */
EIF[ ]	/* EndIf */
IUP[0]	/* InterpolateUntPts */
IUP[1]	/* InterpolateUntPts */";
};
width = 656;
}
);
note = F;
unicode = 0046;
},
{
glyphname = G;
lastChange = "2020-12-28 02:01:01 +0000";
layers = (
{
layerId = "6873DD1C-7BCD-4DE2-A211-237E2294755D";
paths = (
{
closed = 1;
nodes = (
"495 -5 OFFCURVE",
"561.833 10.167 OFFCURVE",
"614.5 29.5 CURVE SMOOTH",
"657.41 45.252 OFFCURVE",
"703.586 67.36 OFFCURVE",
"716 78 CURVE",
"716 224 LINE SMOOTH",
"716 254.667 OFFCURVE",
"715.667 289.333 OFFCURVE",
"725 304 CURVE SMOOTH",
"737 322.667 OFFCURVE",
"768.333 330.333 OFFCURVE",
"791 333 CURVE",
"791 343 LINE",
"498 343 LINE",
"498 333 LINE",
"536.667 329.667 OFFCURVE",
"563.667 319.333 OFFCURVE",
"579 302 CURVE SMOOTH",
"601.667 278 OFFCURVE",
"603 239.667 OFFCURVE",
"603 193 CURVE SMOOTH",
"603 146.333 OFFCURVE",
"597.667 96.333 OFFCURVE",
"587 79 CURVE SMOOTH",
"555 29.667 OFFCURVE",
"496 9 OFFCURVE",
"432 9 CURVE SMOOTH",
"342.667 9 OFFCURVE",
"273 44.667 OFFCURVE",
"225 106 CURVE SMOOTH",
"177 167.333 OFFCURVE",
"151 255 OFFCURVE",
"151 359 CURVE SMOOTH",
"151 453.667 OFFCURVE",
"178.667 542.5 OFFCURVE",
"228 608.5 CURVE SMOOTH",
"277.333 674.5 OFFCURVE",
"349 717 OFFCURVE",
"437 717 CURVE SMOOTH",
"519.667 717 OFFCURVE",
"588.333 686.333 OFFCURVE",
"631 641 CURVE SMOOTH",
"664.333 606.333 OFFCURVE",
"696.333 550 OFFCURVE",
"711 490 CURVE",
"723 490 LINE",
"723 708 LINE",
"714 708 LINE",
"705.333 696.667 OFFCURVE",
"698 687 OFFCURVE",
"692 679 CURVE SMOOTH",
"686 671 OFFCURVE",
"682.333 667 OFFCURVE",
"681 667 CURVE SMOOTH",
"678.781 667 OFFCURVE",
"641.932 689.217 OFFCURVE",
"613.5 700.5 CURVE SMOOTH",
"571.5 717.167 OFFCURVE",
"510 734 OFFCURVE",
"430 734 CURVE SMOOTH",
"296.667 734 OFFCURVE",
"206 692.667 OFFCURVE",
"142 630 CURVE SMOOTH",
"57.92 548.393 OFFCURVE",
"28 439.496 OFFCURVE",
"28 361 CURVE SMOOTH",
"28 247.667 OFFCURVE",
"65.833 154.833 OFFCURVE",
"134.5 91.5 CURVE SMOOTH",
"203.167 28.167 OFFCURVE",
"304.333 -5 OFFCURVE",
"431 -5 CURVE SMOOTH"
);
}
);
userData = {
assembly = "PUSHW[ ]	/* 1 value pushed */
66 
MDAP[1]	/* MoveDirectAbsPt */
PUSHW[ ]	/* 4 values pushed */
60 7 8 4 
CALL[ ]	/* CallFunction */
PUSHW[ ]	/* 1 value pushed */
60 
SRP0[ ]	/* SetRefPoint0 */
PUSHW[ ]	/* 1 value pushed */
66 
SRP0[ ]	/* SetRefPoint0 */
PUSHW[ ]	/* 1 value pushed */
49 
MDRP[10000]	/* MoveDirectRelPt */
PUSHW[ ]	/* 1 value pushed */
49 
MDAP[1]	/* MoveDirectAbsPt */
PUSHW[ ]	/* 2 values pushed */
19 7 
MIRP[11100]	/* MoveIndirectRelPt */
NPUSHW[ ]	/* 13 values pushed */
6 19 22 19 38 19 54 19 70 19 86 19 6 
DELTAP1[ ]	/* DeltaExceptionP1 */
NPUSHW[ ]	/* 5 values pushed */
101 19 117 19 2 
DELTAP1[ ]	/* DeltaExceptionP1 */
PUSHW[ ]	/* 1 value pushed */
60 
SRP0[ ]	/* SetRefPoint0 */
PUSHW[ ]	/* 1 value pushed */
30 
MDRP[10000]	/* MoveDirectRelPt */
PUSHW[ ]	/* 1 value pushed */
30 
MDAP[1]	/* MoveDirectAbsPt */
PUSHW[ ]	/* 1 value pushed */
60 
SRP0[ ]	/* SetRefPoint0 */
PUSHW[ ]	/* 1 value pushed */
31 
MDRP[10000]	/* MoveDirectRelPt */
PUSHW[ ]	/* 1 value pushed */
31 
MDAP[1]	/* MoveDirectAbsPt */
PUSHW[ ]	/* 1 value pushed */
60 
SRP0[ ]	/* SetRefPoint0 */
PUSHW[ ]	/* 1 value pushed */
33 
MDRP[10000]	/* MoveDirectRelPt */
PUSHW[ ]	/* 1 value pushed */
33 
MDAP[1]	/* MoveDirectAbsPt */
SVTCA[0]	/* SetFreedomAndProjectionVectorToAxis */
PUSHW[ ]	/* 1 value pushed */
0 
RCVT[ ]	/* ReadCVT */
IF[ ]	/* If */
PUSHW[ ]	/* 1 value pushed */
41 
MDAP[1]	/* MoveDirectAbsPt */
ELSE[ ]	/* Else */
PUSHW[ ]	/* 2 values pushed */
41 14 
MIAP[0]	/* MoveIndirectAbsPt */
EIF[ ]	/* EndIf */
PUSHW[ ]	/* 1 value pushed */
0 
RCVT[ ]	/* ReadCVT */
IF[ ]	/* If */
PUSHW[ ]	/* 1 value pushed */
54 
MDAP[1]	/* MoveDirectAbsPt */
ELSE[ ]	/* Else */
PUSHW[ ]	/* 2 values pushed */
54 8 
MIAP[0]	/* MoveIndirectAbsPt */
EIF[ ]	/* EndIf */
IUP[0]	/* InterpolateUntPts */
IUP[1]	/* InterpolateUntPts */";
};
width = 825;
}
);
note = G;
unicode = 0047;
},
{
glyphname = H;
lastChange = "2020-12-31 20:47:07 +0000";
layers = (
{
layerId = "6873DD1C-7BCD-4DE2-A211-237E2294755D";
paths = (
{
closed = 1;
nodes = (
"339 0 LINE",
"339 10 LINE",
"311 13 OFFCURVE",
"278 24 OFFCURVE",
"262 47 CURVE SMOOTH",
"251 62 OFFCURVE",
"252 102 OFFCURVE",
"252 141 CURVE SMOOTH",
"252 356 LINE",
"647 356 LINE",
"647 348 OFFCURVE",
"647 154 OFFCURVE",
"647 130 CURVE SMOOTH",
"647 104 OFFCURVE",
"645 57 OFFCURVE",
"638 47 CURVE",
"627 30 OFFCURVE",
"592 14 OFFCURVE",
"543 10 CURVE",
"543 0 LINE",
"850 0 LINE",
"850 10 LINE",
"815 14 OFFCURVE",
"784 22 OFFCURVE",
"767 49 CURVE SMOOTH",
"759 61 OFFCURVE",
"758 97 OFFCURVE",
"757 136 CURVE SMOOTH",
"757 587 LINE SMOOTH",
"757 612 OFFCURVE",
"760 653 OFFCURVE",
"767 666 CURVE SMOOTH",
"782 693 OFFCURVE",
"816 706 OFFCURVE",
"848 710 CURVE",
"848 720 LINE",
"547 720 LINE",
"547 710 LINE",
"578 709 OFFCURVE",
"610 705 OFFCURVE",
"634 669 CURVE",
"645 652 OFFCURVE",
"645 621 OFFCURVE",
"647 596 CURVE SMOOTH",
"647 570 OFFCURVE",
"647 397 OFFCURVE",
"647 376 CURVE",
"252 376 LINE",
"252 383 OFFCURVE",
"252 583 OFFCURVE",
"252 630 CURVE SMOOTH",
"252 688 OFFCURVE",
"300 704 OFFCURVE",
"345 710 CURVE",
"345 720 LINE",
"47 720 LINE",
"47 710 LINE",
"82 706 OFFCURVE",
"109 698 OFFCURVE",
"128 675 CURVE SMOOTH",
"139 662 OFFCURVE",
"143 622 OFFCURVE",
"143 594 CURVE SMOOTH",
"143 551 OFFCURVE",
"143 217 OFFCURVE",
"143 156 CURVE SMOOTH",
"143 121 OFFCURVE",
"137 60 OFFCURVE",
"127 47 CURVE SMOOTH",
"111 28 OFFCURVE",
"77 15 OFFCURVE",
"44 10 CURVE",
"44 0 LINE"
);
}
);
userData = {
assembly = "PUSHW[ ]	/* 1 value pushed */
111 
MDAP[1]	/* MoveDirectAbsPt */
PUSHW[ ]	/* 4 values pushed */
46 7 66 4 
CALL[ ]	/* CallFunction */
PUSHW[ ]	/* 1 value pushed */
46 
SRP0[ ]	/* SetRefPoint0 */
PUSHW[ ]	/* 1 value pushed */
111 
SRP0[ ]	/* SetRefPoint0 */
PUSHW[ ]	/* 1 value pushed */
7 
MDRP[11100]	/* MoveDirectRelPt */
PUSHW[ ]	/* 1 value pushed */
10 
MDRP[10000]	/* MoveDirectRelPt */
PUSHW[ ]	/* 1 value pushed */
10 
MDAP[1]	/* MoveDirectAbsPt */
PUSHW[ ]	/* 1 value pushed */
7 
SRP0[ ]	/* SetRefPoint0 */
PUSHW[ ]	/* 1 value pushed */
12 
MDRP[10000]	/* MoveDirectRelPt */
PUSHW[ ]	/* 1 value pushed */
12 
MDAP[1]	/* MoveDirectAbsPt */
PUSHW[ ]	/* 1 value pushed */
7 
SRP0[ ]	/* SetRefPoint0 */
PUSHW[ ]	/* 1 value pushed */
14 
MDRP[10000]	/* MoveDirectRelPt */
PUSHW[ ]	/* 1 value pushed */
14 
MDAP[1]	/* MoveDirectAbsPt */
PUSHW[ ]	/* 1 value pushed */
7 
SRP0[ ]	/* SetRefPoint0 */
PUSHW[ ]	/* 1 value pushed */
17 
MDRP[10000]	/* MoveDirectRelPt */
PUSHW[ ]	/* 1 value pushed */
17 
MDAP[1]	/* MoveDirectAbsPt */
PUSHW[ ]	/* 1 value pushed */
7 
SRP0[ ]	/* SetRefPoint0 */
PUSHW[ ]	/* 2 values pushed */
100 7 
MIRP[11100]	/* MoveIndirectRelPt */
NPUSHW[ ]	/* 5 values pushed */
106 100 122 100 2 
DELTAP1[ ]	/* DeltaExceptionP1 */
NPUSHW[ ]	/* 13 values pushed */
9 100 25 100 41 100 57 100 73 100 89 100 6 
DELTAP1[ ]	/* DeltaExceptionP1 */
PUSHW[ ]	/* 1 value pushed */
33 
MDRP[10000]	/* MoveDirectRelPt */
PUSHW[ ]	/* 1 value pushed */
100 
SRP0[ ]	/* SetRefPoint0 */
PUSHW[ ]	/* 1 value pushed */
35 
MDRP[10000]	/* MoveDirectRelPt */
PUSHW[ ]	/* 1 value pushed */
35 
MDAP[1]	/* MoveDirectAbsPt */
PUSHW[ ]	/* 1 value pushed */
100 
SRP0[ ]	/* SetRefPoint0 */
PUSHW[ ]	/* 1 value pushed */
37 
MDRP[10000]	/* MoveDirectRelPt */
PUSHW[ ]	/* 1 value pushed */
37 
MDAP[1]	/* MoveDirectAbsPt */
PUSHW[ ]	/* 1 value pushed */
100 
SRP0[ ]	/* SetRefPoint0 */
PUSHW[ ]	/* 1 value pushed */
39 
MDRP[10000]	/* MoveDirectRelPt */
PUSHW[ ]	/* 1 value pushed */
39 
MDAP[1]	/* MoveDirectAbsPt */
PUSHW[ ]	/* 1 value pushed */
100 
SRP0[ ]	/* SetRefPoint0 */
PUSHW[ ]	/* 1 value pushed */
41 
MDRP[10000]	/* MoveDirectRelPt */
PUSHW[ ]	/* 1 value pushed */
41 
MDAP[1]	/* MoveDirectAbsPt */
PUSHW[ ]	/* 1 value pushed */
46 
SRP0[ ]	/* SetRefPoint0 */
PUSHW[ ]	/* 1 value pushed */
42 
MDRP[10000]	/* MoveDirectRelPt */
PUSHW[ ]	/* 1 value pushed */
46 
SRP0[ ]	/* SetRefPoint0 */
PUSHW[ ]	/* 1 value pushed */
44 
MDRP[10000]	/* MoveDirectRelPt */
PUSHW[ ]	/* 1 value pushed */
46 
SRP0[ ]	/* SetRefPoint0 */
PUSHW[ ]	/* 1 value pushed */
49 
MDRP[10000]	/* MoveDirectRelPt */
PUSHW[ ]	/* 1 value pushed */
49 
MDAP[1]	/* MoveDirectAbsPt */
PUSHW[ ]	/* 1 value pushed */
66 
SRP0[ ]	/* SetRefPoint0 */
PUSHW[ ]	/* 1 value pushed */
64 
MDRP[10000]	/* MoveDirectRelPt */
PUSHW[ ]	/* 1 value pushed */
66 
SRP0[ ]	/* SetRefPoint0 */
PUSHW[ ]	/* 1 value pushed */
69 
MDRP[10000]	/* MoveDirectRelPt */
PUSHW[ ]	/* 1 value pushed */
66 
SRP0[ ]	/* SetRefPoint0 */
PUSHW[ ]	/* 1 value pushed */
73 
MDRP[10000]	/* MoveDirectRelPt */
PUSHW[ ]	/* 1 value pushed */
73 
MDAP[1]	/* MoveDirectAbsPt */
PUSHW[ ]	/* 1 value pushed */
46 
SRP0[ ]	/* SetRefPoint0 */
PUSHW[ ]	/* 1 value pushed */
90 
MDRP[10000]	/* MoveDirectRelPt */
PUSHW[ ]	/* 1 value pushed */
100 
SRP0[ ]	/* SetRefPoint0 */
PUSHW[ ]	/* 1 value pushed */
92 
MDRP[10000]	/* MoveDirectRelPt */
PUSHW[ ]	/* 1 value pushed */
92 
MDAP[1]	/* MoveDirectAbsPt */
PUSHW[ ]	/* 1 value pushed */
100 
SRP0[ ]	/* SetRefPoint0 */
PUSHW[ ]	/* 1 value pushed */
94 
MDRP[10000]	/* MoveDirectRelPt */
PUSHW[ ]	/* 1 value pushed */
94 
MDAP[1]	/* MoveDirectAbsPt */
PUSHW[ ]	/* 1 value pushed */
100 
SRP0[ ]	/* SetRefPoint0 */
PUSHW[ ]	/* 1 value pushed */
96 
MDRP[10000]	/* MoveDirectRelPt */
PUSHW[ ]	/* 1 value pushed */
96 
MDAP[1]	/* MoveDirectAbsPt */
PUSHW[ ]	/* 1 value pushed */
100 
SRP0[ ]	/* SetRefPoint0 */
PUSHW[ ]	/* 1 value pushed */
98 
MDRP[10000]	/* MoveDirectRelPt */
PUSHW[ ]	/* 1 value pushed */
98 
MDAP[1]	/* MoveDirectAbsPt */
SVTCA[0]	/* SetFreedomAndProjectionVectorToAxis */
PUSHW[ ]	/* 1 value pushed */
67 
MDAP[1]	/* MoveDirectAbsPt */
PUSHW[ ]	/* 1 value pushed */
91 
MDAP[1]	/* MoveDirectAbsPt */
PUSHW[ ]	/* 1 value pushed */
0 
RCVT[ ]	/* ReadCVT */
IF[ ]	/* If */
PUSHW[ ]	/* 1 value pushed */
25 
MDAP[1]	/* MoveDirectAbsPt */
ELSE[ ]	/* Else */
PUSHW[ ]	/* 2 values pushed */
25 14 
MIAP[0]	/* MoveIndirectAbsPt */
EIF[ ]	/* EndIf */
PUSHW[ ]	/* 1 value pushed */
0 
RCVT[ ]	/* ReadCVT */
IF[ ]	/* If */
PUSHW[ ]	/* 1 value pushed */
55 
MDAP[1]	/* MoveDirectAbsPt */
ELSE[ ]	/* Else */
PUSHW[ ]	/* 2 values pushed */
55 14 
MIAP[0]	/* MoveIndirectAbsPt */
EIF[ ]	/* EndIf */
PUSHW[ ]	/* 1 value pushed */
0 
RCVT[ ]	/* ReadCVT */
IF[ ]	/* If */
PUSHW[ ]	/* 1 value pushed */
0 
MDAP[1]	/* MoveDirectAbsPt */
ELSE[ ]	/* Else */
PUSHW[ ]	/* 2 values pushed */
0 8 
MIAP[0]	/* MoveIndirectAbsPt */
EIF[ ]	/* EndIf */
PUSHW[ ]	/* 1 value pushed */
0 
RCVT[ ]	/* ReadCVT */
IF[ ]	/* If */
PUSHW[ ]	/* 1 value pushed */
82 
MDAP[1]	/* MoveDirectAbsPt */
ELSE[ ]	/* Else */
PUSHW[ ]	/* 2 values pushed */
82 8 
MIAP[0]	/* MoveIndirectAbsPt */
EIF[ ]	/* EndIf */
IUP[0]	/* InterpolateUntPts */
IUP[1]	/* InterpolateUntPts */";
};
width = 900;
}
);
note = H;
unicode = 0048;
},
{
glyphname = I;
lastChange = "2020-12-31 21:36:39 +0000";
layers = (
{
anchors = (
{
name = top;
position = "{206, 726}";
}
);
layerId = "6873DD1C-7BCD-4DE2-A211-237E2294755D";
paths = (
{
closed = 1;
nodes = (
"349 0 LINE",
"349 10 LINE",
"321 12.667 OFFCURVE",
"280 24.333 OFFCURVE",
"264 47 CURVE SMOOTH",
"253.333 61.667 OFFCURVE",
"254 102.333 OFFCURVE",
"254 141 CURVE SMOOTH",
"254 367 LINE SMOOTH",
"254 433 OFFCURVE",
"255 563 OFFCURVE",
"256.5 624 CURVE SMOOTH",
"256.833 641.333 OFFCURVE",
"260 655.667 OFFCURVE",
"266 667 CURVE SMOOTH",
"283.333 699 OFFCURVE",
"320 706 OFFCURVE",
"348 710 CURVE",
"348 720 LINE",
"49 720 LINE",
"49 710 LINE",
"83.667 706 OFFCURVE",
"111 698 OFFCURVE",
"130 675 CURVE SMOOTH",
"146 656 OFFCURVE",
"145 578 OFFCURVE",
"145 363 CURVE SMOOTH",
"145 345 OFFCURVE",
"143 181 OFFCURVE",
"143 156 CURVE SMOOTH",
"143 119 OFFCURVE",
"141.92 64.504 OFFCURVE",
"129 49 CURVE SMOOTH",
"109 26.333 OFFCURVE",
"79.333 15.333 OFFCURVE",
"46 10 CURVE",
"46 0 LINE"
);
}
);
userData = {
assembly = "PUSHW[ ]	/* 4 values pushed */
12 7 33 4 
CALL[ ]	/* CallFunction */
PUSHW[ ]	/* 1 value pushed */
12 
SRP0[ ]	/* SetRefPoint0 */
PUSHW[ ]	/* 1 value pushed */
7 
MDRP[10000]	/* MoveDirectRelPt */
PUSHW[ ]	/* 1 value pushed */
12 
SRP0[ ]	/* SetRefPoint0 */
PUSHW[ ]	/* 1 value pushed */
10 
MDRP[10000]	/* MoveDirectRelPt */
PUSHW[ ]	/* 1 value pushed */
12 
SRP0[ ]	/* SetRefPoint0 */
PUSHW[ ]	/* 1 value pushed */
15 
MDRP[10000]	/* MoveDirectRelPt */
PUSHW[ ]	/* 1 value pushed */
15 
MDAP[1]	/* MoveDirectAbsPt */
PUSHW[ ]	/* 1 value pushed */
33 
SRP0[ ]	/* SetRefPoint0 */
PUSHW[ ]	/* 1 value pushed */
31 
MDRP[10000]	/* MoveDirectRelPt */
PUSHW[ ]	/* 1 value pushed */
33 
SRP0[ ]	/* SetRefPoint0 */
PUSHW[ ]	/* 1 value pushed */
36 
MDRP[10000]	/* MoveDirectRelPt */
PUSHW[ ]	/* 1 value pushed */
33 
SRP0[ ]	/* SetRefPoint0 */
PUSHW[ ]	/* 1 value pushed */
40 
MDRP[10000]	/* MoveDirectRelPt */
PUSHW[ ]	/* 1 value pushed */
40 
MDAP[1]	/* MoveDirectAbsPt */
SVTCA[0]	/* SetFreedomAndProjectionVectorToAxis */
PUSHW[ ]	/* 1 value pushed */
0 
RCVT[ ]	/* ReadCVT */
IF[ ]	/* If */
PUSHW[ ]	/* 1 value pushed */
22 
MDAP[1]	/* MoveDirectAbsPt */
ELSE[ ]	/* Else */
PUSHW[ ]	/* 2 values pushed */
22 14 
MIAP[0]	/* MoveIndirectAbsPt */
EIF[ ]	/* EndIf */
PUSHW[ ]	/* 1 value pushed */
0 
RCVT[ ]	/* ReadCVT */
IF[ ]	/* If */
PUSHW[ ]	/* 1 value pushed */
0 
MDAP[1]	/* MoveDirectAbsPt */
ELSE[ ]	/* Else */
PUSHW[ ]	/* 2 values pushed */
0 8 
MIAP[0]	/* MoveIndirectAbsPt */
EIF[ ]	/* EndIf */
IUP[0]	/* InterpolateUntPts */
IUP[1]	/* InterpolateUntPts */";
};
width = 399;
}
);
note = I;
unicode = 0049;
},
{
glyphname = J;
lastChange = "2020-12-31 20:48:31 +0000";
layers = (
{
layerId = "6873DD1C-7BCD-4DE2-A211-237E2294755D";
paths = (
{
closed = 1;
nodes = (
"134.667 -15 OFFCURVE",
"183.333 -1.333 OFFCURVE",
"226 32 CURVE SMOOTH",
"260.667 58.667 OFFCURVE",
"284 88 OFFCURVE",
"284 132 CURVE SMOOTH",
"284 367 LINE SMOOTH",
"284 421 OFFCURVE",
"285 569 OFFCURVE",
"287 624.5 CURVE SMOOTH",
"287.667 642.167 OFFCURVE",
"290.667 656.333 OFFCURVE",
"296 667 CURVE SMOOTH",
"313.333 699 OFFCURVE",
"352 706 OFFCURVE",
"380 710 CURVE",
"380 720 LINE",
"72 720 LINE",
"72 710 LINE",
"106.667 706 OFFCURVE",
"142.333 700.667 OFFCURVE",
"161 678 CURVE SMOOTH",
"171.425 665.837 OFFCURVE",
"175 622.022 OFFCURVE",
"175 594 CURVE SMOOTH",
"175 582 OFFCURVE",
"175 570 OFFCURVE",
"175 558 CURVE SMOOTH",
"175 363 LINE SMOOTH",
"175 342 OFFCURVE",
"174 177 OFFCURVE",
"174 156 CURVE SMOOTH",
"174 119 OFFCURVE",
"170 79.333 OFFCURVE",
"162 50 CURVE SMOOTH",
"152.667 19.333 OFFCURVE",
"132.333 -5 OFFCURVE",
"99 -5 CURVE SMOOTH",
"88.333 -5 OFFCURVE",
"74.667 -0.333 OFFCURVE",
"68 9 CURVE",
"68 12 LINE",
"96 16 OFFCURVE",
"117 28.333 OFFCURVE",
"117 59 CURVE SMOOTH",
"117 85.667 OFFCURVE",
"94.667 108 OFFCURVE",
"68 108 CURVE SMOOTH",
"37.333 108 OFFCURVE",
"9 86 OFFCURVE",
"9 54 CURVE SMOOTH",
"9 5.854 OFFCURVE",
"49.543 -15 OFFCURVE",
"96 -15 CURVE SMOOTH"
);
}
);
userData = {
assembly = "PUSHW[ ]	/* 1 value pushed */
64 
MDAP[1]	/* MoveDirectAbsPt */
PUSHW[ ]	/* 4 values pushed */
55 7 12 4 
CALL[ ]	/* CallFunction */
PUSHW[ ]	/* 1 value pushed */
55 
SRP0[ ]	/* SetRefPoint0 */
PUSHW[ ]	/* 1 value pushed */
12 
SRP0[ ]	/* SetRefPoint0 */
PUSHW[ ]	/* 1 value pushed */
10 
MDRP[10000]	/* MoveDirectRelPt */
PUSHW[ ]	/* 1 value pushed */
12 
SRP0[ ]	/* SetRefPoint0 */
PUSHW[ ]	/* 1 value pushed */
15 
MDRP[10000]	/* MoveDirectRelPt */
PUSHW[ ]	/* 1 value pushed */
12 
SRP0[ ]	/* SetRefPoint0 */
PUSHW[ ]	/* 1 value pushed */
17 
MDRP[10000]	/* MoveDirectRelPt */
PUSHW[ ]	/* 1 value pushed */
12 
SRP0[ ]	/* SetRefPoint0 */
PUSHW[ ]	/* 1 value pushed */
20 
MDRP[10000]	/* MoveDirectRelPt */
PUSHW[ ]	/* 1 value pushed */
20 
MDAP[1]	/* MoveDirectAbsPt */
PUSHW[ ]	/* 1 value pushed */
64 
SRP0[ ]	/* SetRefPoint0 */
PUSHW[ ]	/* 1 value pushed */
39 
MDRP[10000]	/* MoveDirectRelPt */
PUSHW[ ]	/* 1 value pushed */
39 
MDAP[1]	/* MoveDirectAbsPt */
PUSHW[ ]	/* 2 values pushed */
33 7 
MIRP[11100]	/* MoveIndirectRelPt */
NPUSHW[ ]	/* 13 values pushed */
6 33 22 33 38 33 54 33 70 33 86 33 6 
DELTAP1[ ]	/* DeltaExceptionP1 */
NPUSHW[ ]	/* 5 values pushed */
101 33 117 33 2 
DELTAP1[ ]	/* DeltaExceptionP1 */
PUSHW[ ]	/* 3 values pushed */
30 39 33 
SRP1[ ]	/* SetRefPoint1 */
SRP2[ ]	/* SetRefPoint2 */
IP[ ]	/* InterpolatePts */
PUSHW[ ]	/* 1 value pushed */
55 
SRP0[ ]	/* SetRefPoint0 */
PUSHW[ ]	/* 1 value pushed */
50 
MDRP[10000]	/* MoveDirectRelPt */
PUSHW[ ]	/* 1 value pushed */
55 
SRP0[ ]	/* SetRefPoint0 */
PUSHW[ ]	/* 1 value pushed */
53 
MDRP[10000]	/* MoveDirectRelPt */
PUSHW[ ]	/* 1 value pushed */
55 
SRP0[ ]	/* SetRefPoint0 */
PUSHW[ ]	/* 1 value pushed */
58 
MDRP[10000]	/* MoveDirectRelPt */
PUSHW[ ]	/* 1 value pushed */
58 
MDAP[1]	/* MoveDirectAbsPt */
SVTCA[0]	/* SetFreedomAndProjectionVectorToAxis */
PUSHW[ ]	/* 1 value pushed */
0 
RCVT[ ]	/* ReadCVT */
IF[ ]	/* If */
PUSHW[ ]	/* 1 value pushed */
1 
MDAP[1]	/* MoveDirectAbsPt */
ELSE[ ]	/* Else */
PUSHW[ ]	/* 2 values pushed */
1 14 
MIAP[0]	/* MoveIndirectAbsPt */
EIF[ ]	/* EndIf */
PUSHW[ ]	/* 4 values pushed */
36 4 44 4 
CALL[ ]	/* CallFunction */
PUSHW[ ]	/* 1 value pushed */
36 
SRP0[ ]	/* SetRefPoint0 */
PUSHW[ ]	/* 3 values pushed */
30 44 36 
SRP1[ ]	/* SetRefPoint1 */
SRP2[ ]	/* SetRefPoint2 */
IP[ ]	/* InterpolatePts */
IUP[0]	/* InterpolateUntPts */
IUP[1]	/* InterpolateUntPts */";
};
width = 399;
}
);
note = J;
unicode = 004A;
},
{
glyphname = K;
lastChange = "2020-12-31 20:49:03 +0000";
layers = (
{
layerId = "6873DD1C-7BCD-4DE2-A211-237E2294755D";
paths = (
{
closed = 1;
nodes = (
"365 0 LINE",
"365 10 LINE",
"336.864 12.814 OFFCURVE",
"286.846 23.506 OFFCURVE",
"269 49 CURVE",
"255.667 66.333 OFFCURVE",
"253.333 102.333 OFFCURVE",
"252 141 CURVE SMOOTH",
"251 180 OFFCURVE",
"251 280 OFFCURVE",
"251 319 CURVE",
"255 329.667 OFFCURVE",
"256.333 334 OFFCURVE",
"267 334 CURVE SMOOTH",
"271.667 334 OFFCURVE",
"277.167 331.667 OFFCURVE",
"283.5 327 CURVE SMOOTH",
"289.833 322.333 OFFCURVE",
"301.667 310.333 OFFCURVE",
"319 291 CURVE SMOOTH",
"371 234 OFFCURVE",
"509 74 OFFCURVE",
"560 16 CURVE SMOOTH",
"568 6.667 OFFCURVE",
"574.667 2.667 OFFCURVE",
"580 0 CURVE",
"805 0 LINE",
"805 10 LINE",
"767.667 12.667 OFFCURVE",
"736.333 20.333 OFFCURVE",
"719 27 CURVE",
"707.866 30.711 OFFCURVE",
"653.272 78.673 OFFCURVE",
"638 97 CURVE SMOOTH",
"582 159.667 OFFCURVE",
"518.333 231 OFFCURVE",
"465 291 CURVE SMOOTH",
"421.919 339.466 OFFCURVE",
"372.977 395.529 OFFCURVE",
"359 413 CURVE",
"392.492 448.463 OFFCURVE",
"497.062 553.722 OFFCURVE",
"525 579 CURVE SMOOTH",
"597 645.667 OFFCURVE",
"666 703.333 OFFCURVE",
"734 710 CURVE",
"734 720 LINE",
"466 720 LINE",
"466 710 LINE",
"500.667 704.667 OFFCURVE",
"532 689.667 OFFCURVE",
"532 651 CURVE SMOOTH",
"532 628.333 OFFCURVE",
"510.667 598.667 OFFCURVE",
"488 572 CURVE",
"427.043 505.963 OFFCURVE",
"306.034 379.02 OFFCURVE",
"252 346 CURVE",
"252 395 OFFCURVE",
"252 541 OFFCURVE",
"254 590 CURVE SMOOTH",
"256.374 689.695 OFFCURVE",
"294.479 703.419 OFFCURVE",
"357 710 CURVE",
"357 720 LINE",
"47 720 LINE",
"47 710 LINE",
"81.667 706 OFFCURVE",
"108.333 696.667 OFFCURVE",
"127 674 CURVE SMOOTH",
"141.667 655.333 OFFCURVE",
"143 608.667 OFFCURVE",
"143 558 CURVE SMOOTH",
"143 363 LINE SMOOTH",
"143 342 OFFCURVE",
"142 167 OFFCURVE",
"142 156 CURVE SMOOTH",
"142 118.832 OFFCURVE",
"140.28 59.936 OFFCURVE",
"127 44 CURVE SMOOTH",
"111 25.333 OFFCURVE",
"77.333 15.333 OFFCURVE",
"44 10 CURVE",
"44 0 LINE"
);
}
);
userData = {
assembly = "PUSHW[ ]	/* 4 values pushed */
40 7 57 4 
CALL[ ]	/* CallFunction */
PUSHW[ ]	/* 1 value pushed */
40 
SRP0[ ]	/* SetRefPoint0 */
PUSHW[ ]	/* 1 value pushed */
36 
MDRP[10000]	/* MoveDirectRelPt */
PUSHW[ ]	/* 1 value pushed */
40 
SRP0[ ]	/* SetRefPoint0 */
PUSHW[ ]	/* 1 value pushed */
38 
MDRP[10000]	/* MoveDirectRelPt */
PUSHW[ ]	/* 1 value pushed */
40 
SRP0[ ]	/* SetRefPoint0 */
PUSHW[ ]	/* 1 value pushed */
43 
MDRP[10000]	/* MoveDirectRelPt */
PUSHW[ ]	/* 1 value pushed */
43 
MDAP[1]	/* MoveDirectAbsPt */
PUSHW[ ]	/* 1 value pushed */
57 
SRP0[ ]	/* SetRefPoint0 */
PUSHW[ ]	/* 1 value pushed */
60 
MDRP[10000]	/* MoveDirectRelPt */
PUSHW[ ]	/* 1 value pushed */
57 
SRP0[ ]	/* SetRefPoint0 */
PUSHW[ ]	/* 1 value pushed */
62 
MDRP[10000]	/* MoveDirectRelPt */
PUSHW[ ]	/* 1 value pushed */
57 
SRP0[ ]	/* SetRefPoint0 */
PUSHW[ ]	/* 1 value pushed */
65 
MDRP[10000]	/* MoveDirectRelPt */
PUSHW[ ]	/* 1 value pushed */
65 
MDAP[1]	/* MoveDirectAbsPt */
PUSHW[ ]	/* 1 value pushed */
40 
SRP0[ ]	/* SetRefPoint0 */
PUSHW[ ]	/* 1 value pushed */
84 
MDRP[10000]	/* MoveDirectRelPt */
PUSHW[ ]	/* 1 value pushed */
40 
SRP0[ ]	/* SetRefPoint0 */
PUSHW[ ]	/* 1 value pushed */
86 
MDRP[10000]	/* MoveDirectRelPt */
PUSHW[ ]	/* 1 value pushed */
86 
MDAP[1]	/* MoveDirectAbsPt */
PUSHW[ ]	/* 1 value pushed */
40 
SRP0[ ]	/* SetRefPoint0 */
PUSHW[ ]	/* 1 value pushed */
88 
MDRP[10000]	/* MoveDirectRelPt */
PUSHW[ ]	/* 1 value pushed */
88 
MDAP[1]	/* MoveDirectAbsPt */
SVTCA[0]	/* SetFreedomAndProjectionVectorToAxis */
PUSHW[ ]	/* 1 value pushed */
0 
RCVT[ ]	/* ReadCVT */
IF[ ]	/* If */
PUSHW[ ]	/* 1 value pushed */
23 
MDAP[1]	/* MoveDirectAbsPt */
ELSE[ ]	/* Else */
PUSHW[ ]	/* 2 values pushed */
23 14 
MIAP[0]	/* MoveIndirectAbsPt */
EIF[ ]	/* EndIf */
PUSHW[ ]	/* 1 value pushed */
0 
RCVT[ ]	/* ReadCVT */
IF[ ]	/* If */
PUSHW[ ]	/* 1 value pushed */
49 
MDAP[1]	/* MoveDirectAbsPt */
ELSE[ ]	/* Else */
PUSHW[ ]	/* 2 values pushed */
49 14 
MIAP[0]	/* MoveIndirectAbsPt */
EIF[ ]	/* EndIf */
PUSHW[ ]	/* 1 value pushed */
0 
RCVT[ ]	/* ReadCVT */
IF[ ]	/* If */
PUSHW[ ]	/* 1 value pushed */
0 
MDAP[1]	/* MoveDirectAbsPt */
ELSE[ ]	/* Else */
PUSHW[ ]	/* 2 values pushed */
0 8 
MIAP[0]	/* MoveIndirectAbsPt */
EIF[ ]	/* EndIf */
PUSHW[ ]	/* 1 value pushed */
0 
RCVT[ ]	/* ReadCVT */
IF[ ]	/* If */
PUSHW[ ]	/* 1 value pushed */
74 
MDAP[1]	/* MoveDirectAbsPt */
ELSE[ ]	/* Else */
PUSHW[ ]	/* 2 values pushed */
74 8 
MIAP[0]	/* MoveIndirectAbsPt */
EIF[ ]	/* EndIf */
PUSHW[ ]	/* 3 values pushed */
36 0 23 
SRP1[ ]	/* SetRefPoint1 */
SRP2[ ]	/* SetRefPoint2 */
IP[ ]	/* InterpolatePts */
IUP[0]	/* InterpolateUntPts */
IUP[1]	/* InterpolateUntPts */";
};
width = 767;
}
);
note = K;
unicode = 004B;
},
{
glyphname = L;
lastChange = "2020-12-31 20:51:13 +0000";
layers = (
{
layerId = "6873DD1C-7BCD-4DE2-A211-237E2294755D";
paths = (
{
closed = 1;
nodes = (
"676 0 LINE",
"713 206 LINE",
"703 209 LINE",
"668.987 123.968 OFFCURVE",
"635 66 OFFCURVE",
"534 30 CURVE SMOOTH",
"495 16 OFFCURVE",
"411.496 15 OFFCURVE",
"388 15 CURVE SMOOTH",
"343.926 15 OFFCURVE",
"277 27 OFFCURVE",
"266 42 CURVE SMOOTH",
"253 60 OFFCURVE",
"253 103 OFFCURVE",
"253 146 CURVE SMOOTH",
"253 223 OFFCURVE",
"253 549 OFFCURVE",
"253 622 CURVE SMOOTH",
"253 649 OFFCURVE",
"263 668 OFFCURVE",
"279 681 CURVE SMOOTH",
"300 699 OFFCURVE",
"332 706 OFFCURVE",
"360 710 CURVE",
"360 720 LINE",
"41 720 LINE",
"41 710 LINE",
"70 707 OFFCURVE",
"90 702 OFFCURVE",
"105 692 CURVE SMOOTH",
"132 673 OFFCURVE",
"141 649 OFFCURVE",
"141 627 CURVE SMOOTH",
"141 156 LINE SMOOTH",
"141 120 OFFCURVE",
"135.189 63.827 OFFCURVE",
"122 48 CURVE SMOOTH",
"103.333 26.667 OFFCURVE",
"67.333 15.333 OFFCURVE",
"34 10 CURVE",
"34 0 LINE"
);
}
);
userData = {
assembly = "PUSHW[ ]	/* 4 values pushed */
19 7 52 4 
CALL[ ]	/* CallFunction */
PUSHW[ ]	/* 1 value pushed */
19 
SRP0[ ]	/* SetRefPoint0 */
NPUSHW[ ]	/* 13 values pushed */
6 19 22 19 38 19 54 19 70 19 86 19 6 
DELTAP1[ ]	/* DeltaExceptionP1 */
NPUSHW[ ]	/* 5 values pushed */
101 19 117 19 2 
DELTAP1[ ]	/* DeltaExceptionP1 */
PUSHW[ ]	/* 1 value pushed */
22 
MDRP[10000]	/* MoveDirectRelPt */
PUSHW[ ]	/* 1 value pushed */
22 
MDAP[1]	/* MoveDirectAbsPt */
PUSHW[ ]	/* 1 value pushed */
19 
SRP0[ ]	/* SetRefPoint0 */
PUSHW[ ]	/* 1 value pushed */
24 
MDRP[10000]	/* MoveDirectRelPt */
PUSHW[ ]	/* 1 value pushed */
24 
MDAP[1]	/* MoveDirectAbsPt */
PUSHW[ ]	/* 1 value pushed */
19 
SRP0[ ]	/* SetRefPoint0 */
PUSHW[ ]	/* 1 value pushed */
26 
MDRP[10000]	/* MoveDirectRelPt */
PUSHW[ ]	/* 1 value pushed */
26 
MDAP[1]	/* MoveDirectAbsPt */
PUSHW[ ]	/* 1 value pushed */
19 
SRP0[ ]	/* SetRefPoint0 */
PUSHW[ ]	/* 1 value pushed */
28 
MDRP[10000]	/* MoveDirectRelPt */
PUSHW[ ]	/* 1 value pushed */
28 
MDAP[1]	/* MoveDirectAbsPt */
PUSHW[ ]	/* 1 value pushed */
19 
SRP0[ ]	/* SetRefPoint0 */
PUSHW[ ]	/* 1 value pushed */
32 
MDRP[10000]	/* MoveDirectRelPt */
PUSHW[ ]	/* 1 value pushed */
32 
MDAP[1]	/* MoveDirectAbsPt */
PUSHW[ ]	/* 1 value pushed */
52 
SRP0[ ]	/* SetRefPoint0 */
PUSHW[ ]	/* 1 value pushed */
47 
MDRP[10000]	/* MoveDirectRelPt */
PUSHW[ ]	/* 1 value pushed */
52 
SRP0[ ]	/* SetRefPoint0 */
PUSHW[ ]	/* 1 value pushed */
49 
MDRP[10000]	/* MoveDirectRelPt */
PUSHW[ ]	/* 1 value pushed */
52 
SRP0[ ]	/* SetRefPoint0 */
PUSHW[ ]	/* 1 value pushed */
56 
MDRP[10000]	/* MoveDirectRelPt */
PUSHW[ ]	/* 1 value pushed */
56 
MDAP[1]	/* MoveDirectAbsPt */
SVTCA[0]	/* SetFreedomAndProjectionVectorToAxis */
PUSHW[ ]	/* 1 value pushed */
0 
RCVT[ ]	/* ReadCVT */
IF[ ]	/* If */
PUSHW[ ]	/* 1 value pushed */
38 
MDAP[1]	/* MoveDirectAbsPt */
ELSE[ ]	/* Else */
PUSHW[ ]	/* 2 values pushed */
38 14 
MIAP[0]	/* MoveIndirectAbsPt */
EIF[ ]	/* EndIf */
PUSHW[ ]	/* 1 value pushed */
0 
RCVT[ ]	/* ReadCVT */
IF[ ]	/* If */
PUSHW[ ]	/* 1 value pushed */
65 
MDAP[1]	/* MoveDirectAbsPt */
ELSE[ ]	/* Else */
PUSHW[ ]	/* 2 values pushed */
65 8 
MIAP[0]	/* MoveIndirectAbsPt */
EIF[ ]	/* EndIf */
IUP[0]	/* InterpolateUntPts */
IUP[1]	/* InterpolateUntPts */";
};
width = 708;
}
);
note = L;
unicode = 004C;
},
{
glyphname = M;
lastChange = "2020-12-31 20:52:59 +0000";
layers = (
{
layerId = "6873DD1C-7BCD-4DE2-A211-237E2294755D";
paths = (
{
closed = 1;
nodes = (
"286 0 LINE",
"286 10 LINE",
"171.338 26 OFFCURVE",
"164 79.953 OFFCURVE",
"164 206 CURVE SMOOTH",
"164 269 OFFCURVE",
"166 558 OFFCURVE",
"166 655 CURVE",
"180.294 623.553 OFFCURVE",
"242.46 484.417 OFFCURVE",
"266 431 CURVE SMOOTH",
"283.333 391.667 OFFCURVE",
"302 349.5 OFFCURVE",
"322 304.5 CURVE SMOOTH",
"355.129 229.959 OFFCURVE",
"412.22 97.429 OFFCURVE",
"447 17 CURVE",
"453 17 LINE",
"458.168 32.505 OFFCURVE",
"504.488 142.976 OFFCURVE",
"512 158 CURVE",
"556 256.667 OFFCURVE",
"591 335.333 OFFCURVE",
"627 414 CURVE SMOOTH",
"655.191 475.602 OFFCURVE",
"708.518 595.918 OFFCURVE",
"740 671 CURVE",
"740 332 OFFCURVE",
"740 194 OFFCURVE",
"740 138 CURVE SMOOTH",
"740 111 OFFCURVE",
"735 83.333 OFFCURVE",
"727 66 CURVE SMOOTH",
"713.667 38 OFFCURVE",
"673.333 13.667 OFFCURVE",
"616 11 CURVE",
"616 0 LINE",
"959 0 LINE",
"959 10 LINE",
"911.347 11.986 OFFCURVE",
"871.167 37.667 OFFCURVE",
"861 58 CURVE",
"853 72.667 OFFCURVE",
"850 102 OFFCURVE",
"849 127 CURVE SMOOTH",
"849 190 OFFCURVE",
"849 452 OFFCURVE",
"849 583 CURVE SMOOTH",
"849 620 OFFCURVE",
"856 647 OFFCURVE",
"861 655 CURVE SMOOTH",
"878 682 OFFCURVE",
"898.333 708.667 OFFCURVE",
"953 710 CURVE",
"953 720 LINE",
"740 720 LINE",
"732.62 700.319 OFFCURVE",
"695.905 615.323 OFFCURVE",
"660.5 535 CURVE SMOOTH",
"615.833 433.667 OFFCURVE",
"557.667 302.667 OFFCURVE",
"499 176 CURVE",
"260 720 LINE",
"47 720 LINE",
"47 710 LINE",
"71 706 OFFCURVE",
"98 699 OFFCURVE",
"117 682 CURVE SMOOTH",
"133 668 OFFCURVE",
"145 647 OFFCURVE",
"146 616 CURVE SMOOTH",
"148 550 OFFCURVE",
"146 268 OFFCURVE",
"143 214 CURVE SMOOTH",
"140.493 86.137 OFFCURVE",
"120.116 29.023 OFFCURVE",
"25 10 CURVE",
"25 0 LINE"
);
}
);
userData = {
assembly = "PUSHW[ ]	/* 4 values pushed */
17 7 86 4 
CALL[ ]	/* CallFunction */
PUSHW[ ]	/* 1 value pushed */
17 
SRP0[ ]	/* SetRefPoint0 */
PUSHW[ ]	/* 1 value pushed */
9 
MDRP[10000]	/* MoveDirectRelPt */
PUSHW[ ]	/* 1 value pushed */
17 
SRP0[ ]	/* SetRefPoint0 */
PUSHW[ ]	/* 1 value pushed */
11 
MDRP[10000]	/* MoveDirectRelPt */
PUSHW[ ]	/* 1 value pushed */
11 
MDAP[1]	/* MoveDirectAbsPt */
PUSHW[ ]	/* 1 value pushed */
17 
SRP0[ ]	/* SetRefPoint0 */
PUSHW[ ]	/* 1 value pushed */
13 
MDRP[10000]	/* MoveDirectRelPt */
PUSHW[ ]	/* 1 value pushed */
13 
MDAP[1]	/* MoveDirectAbsPt */
PUSHW[ ]	/* 1 value pushed */
17 
SRP0[ ]	/* SetRefPoint0 */
PUSHW[ ]	/* 1 value pushed */
15 
MDRP[10000]	/* MoveDirectRelPt */
PUSHW[ ]	/* 1 value pushed */
15 
MDAP[1]	/* MoveDirectAbsPt */
PUSHW[ ]	/* 1 value pushed */
86 
SRP0[ ]	/* SetRefPoint0 */
PUSHW[ ]	/* 1 value pushed */
89 
MDRP[10000]	/* MoveDirectRelPt */
PUSHW[ ]	/* 1 value pushed */
86 
SRP0[ ]	/* SetRefPoint0 */
PUSHW[ ]	/* 1 value pushed */
91 
MDRP[10000]	/* MoveDirectRelPt */
PUSHW[ ]	/* 1 value pushed */
91 
MDAP[1]	/* MoveDirectAbsPt */
PUSHW[ ]	/* 1 value pushed */
17 
SRP0[ ]	/* SetRefPoint0 */
PUSHW[ ]	/* 1 value pushed */
100 
MDRP[11100]	/* MoveDirectRelPt */
SVTCA[0]	/* SetFreedomAndProjectionVectorToAxis */
PUSHW[ ]	/* 1 value pushed */
0 
RCVT[ ]	/* ReadCVT */
IF[ ]	/* If */
PUSHW[ ]	/* 1 value pushed */
24 
MDAP[1]	/* MoveDirectAbsPt */
ELSE[ ]	/* Else */
PUSHW[ ]	/* 2 values pushed */
24 14 
MIAP[0]	/* MoveIndirectAbsPt */
EIF[ ]	/* EndIf */
PUSHW[ ]	/* 1 value pushed */
0 
RCVT[ ]	/* ReadCVT */
IF[ ]	/* If */
PUSHW[ ]	/* 1 value pushed */
31 
MDAP[1]	/* MoveDirectAbsPt */
ELSE[ ]	/* Else */
PUSHW[ ]	/* 2 values pushed */
31 14 
MIAP[0]	/* MoveIndirectAbsPt */
EIF[ ]	/* EndIf */
PUSHW[ ]	/* 1 value pushed */
0 
RCVT[ ]	/* ReadCVT */
IF[ ]	/* If */
PUSHW[ ]	/* 1 value pushed */
0 
MDAP[1]	/* MoveDirectAbsPt */
ELSE[ ]	/* Else */
PUSHW[ ]	/* 2 values pushed */
0 8 
MIAP[0]	/* MoveIndirectAbsPt */
EIF[ ]	/* EndIf */
PUSHW[ ]	/* 1 value pushed */
0 
RCVT[ ]	/* ReadCVT */
IF[ ]	/* If */
PUSHW[ ]	/* 1 value pushed */
55 
MDAP[1]	/* MoveDirectAbsPt */
ELSE[ ]	/* Else */
PUSHW[ ]	/* 2 values pushed */
55 8 
MIAP[0]	/* MoveIndirectAbsPt */
EIF[ ]	/* EndIf */
PUSHW[ ]	/* 3 values pushed */
30 0 24 
SRP1[ ]	/* SetRefPoint1 */
SRP2[ ]	/* SetRefPoint2 */
IP[ ]	/* InterpolatePts */
PUSHW[ ]	/* 3 values pushed */
68 0 24 
SRP1[ ]	/* SetRefPoint1 */
SRP2[ ]	/* SetRefPoint2 */
IP[ ]	/* InterpolatePts */
PUSHW[ ]	/* 3 values pushed */
76 0 24 
SRP1[ ]	/* SetRefPoint1 */
SRP2[ ]	/* SetRefPoint2 */
IP[ ]	/* InterpolatePts */
PUSHW[ ]	/* 3 values pushed */
86 0 24 
SRP1[ ]	/* SetRefPoint1 */
SRP2[ ]	/* SetRefPoint2 */
IP[ ]	/* InterpolatePts */
IUP[0]	/* InterpolateUntPts */
IUP[1]	/* InterpolateUntPts */";
};
width = 991;
}
);
note = M;
unicode = 004D;
},
{
glyphname = N;
lastChange = "2020-12-31 21:44:04 +0000";
layers = (
{
anchors = (
{
name = top;
position = "{438, 730}";
}
);
layerId = "6873DD1C-7BCD-4DE2-A211-237E2294755D";
paths = (
{
closed = 1;
nodes = (
"731.667 -3 OFFCURVE",
"735 0.667 OFFCURVE",
"735 6 CURVE SMOOTH",
"735 25.333 OFFCURVE",
"735 47 OFFCURVE",
"735 71 CURVE SMOOTH",
"735 95 OFFCURVE",
"734.833 119.167 OFFCURVE",
"734.5 143.5 CURVE SMOOTH",
"733 227 OFFCURVE",
"735 422 OFFCURVE",
"739 506 CURVE SMOOTH",
"741.667 567.333 OFFCURVE",
"742.667 628 OFFCURVE",
"752 648 CURVE",
"768 686.667 OFFCURVE",
"796.667 703.333 OFFCURVE",
"846 710 CURVE",
"846 720 LINE",
"598 720 LINE",
"598 710 LINE",
"662 700.667 OFFCURVE",
"693.667 677.333 OFFCURVE",
"707 640 CURVE SMOOTH",
"717.667 612 OFFCURVE",
"717 559.333 OFFCURVE",
"717 506 CURVE SMOOTH",
"717 166 LINE",
"243 720 LINE",
"40 720 LINE",
"40 710 LINE",
"91.79 703.526 OFFCURVE",
"143 684 OFFCURVE",
"146 612 CURVE SMOOTH",
"147 585 OFFCURVE",
"147 460.333 OFFCURVE",
"147 441 CURVE SMOOTH",
"147 351.667 OFFCURVE",
"145.667 271.333 OFFCURVE",
"143 214 CURVE SMOOTH",
"140.333 138 OFFCURVE",
"137.667 82 OFFCURVE",
"119 54 CURVE SMOOTH",
"100.333 24.667 OFFCURVE",
"65 14 OFFCURVE",
"33 10 CURVE",
"33 0 LINE",
"279 0 LINE",
"279 10 LINE",
"224.333 16.667 OFFCURVE",
"194.667 30.333 OFFCURVE",
"180 61 CURVE SMOOTH",
"166.667 87.667 OFFCURVE",
"165 146 OFFCURVE",
"165 214 CURVE SMOOTH",
"165 636 LINE",
"255.667 534.667 OFFCURVE",
"333.833 442.833 OFFCURVE",
"418.5 343.5 CURVE SMOOTH",
"503.167 244.167 OFFCURVE",
"593.667 137.667 OFFCURVE",
"707 7 CURVE",
"713.667 0.333 OFFCURVE",
"719.667 -3 OFFCURVE",
"725 -3 CURVE SMOOTH"
);
}
);
userData = {
assembly = "SVTCA[0]	/* SetFreedomAndProjectionVectorToAxis */
PUSHW[ ]	/* 1 value pushed */
0 
RCVT[ ]	/* ReadCVT */
IF[ ]	/* If */
PUSHW[ ]	/* 1 value pushed */
1 
MDAP[1]	/* MoveDirectAbsPt */
ELSE[ ]	/* Else */
PUSHW[ ]	/* 2 values pushed */
1 14 
MIAP[0]	/* MoveIndirectAbsPt */
EIF[ ]	/* EndIf */
PUSHW[ ]	/* 1 value pushed */
0 
RCVT[ ]	/* ReadCVT */
IF[ ]	/* If */
PUSHW[ ]	/* 1 value pushed */
11 
MDAP[1]	/* MoveDirectAbsPt */
ELSE[ ]	/* Else */
PUSHW[ ]	/* 2 values pushed */
11 14 
MIAP[0]	/* MoveIndirectAbsPt */
EIF[ ]	/* EndIf */
PUSHW[ ]	/* 1 value pushed */
0 
RCVT[ ]	/* ReadCVT */
IF[ ]	/* If */
PUSHW[ ]	/* 1 value pushed */
36 
MDAP[1]	/* MoveDirectAbsPt */
ELSE[ ]	/* Else */
PUSHW[ ]	/* 2 values pushed */
36 8 
MIAP[0]	/* MoveIndirectAbsPt */
EIF[ ]	/* EndIf */
PUSHW[ ]	/* 1 value pushed */
0 
RCVT[ ]	/* ReadCVT */
IF[ ]	/* If */
PUSHW[ ]	/* 1 value pushed */
52 
MDAP[1]	/* MoveDirectAbsPt */
ELSE[ ]	/* Else */
PUSHW[ ]	/* 2 values pushed */
52 8 
MIAP[0]	/* MoveIndirectAbsPt */
EIF[ ]	/* EndIf */
PUSHW[ ]	/* 3 values pushed */
10 52 1 
SRP1[ ]	/* SetRefPoint1 */
SRP2[ ]	/* SetRefPoint2 */
IP[ ]	/* InterpolatePts */
PUSHW[ ]	/* 3 values pushed */
45 52 1 
SRP1[ ]	/* SetRefPoint1 */
SRP2[ ]	/* SetRefPoint2 */
IP[ ]	/* InterpolatePts */
IUP[0]	/* InterpolateUntPts */
IUP[1]	/* InterpolateUntPts */";
};
width = 875;
}
);
note = N;
unicode = 004E;
},
{
glyphname = O;
lastChange = "2020-12-31 21:37:07 +0000";
layers = (
{
anchors = (
{
name = top;
position = "{417, 725}";
}
);
layerId = "6873DD1C-7BCD-4DE2-A211-237E2294755D";
paths = (
{
closed = 1;
nodes = (
"504.667 -5 OFFCURVE",
"598.833 32.333 OFFCURVE",
"667.5 99 CURVE SMOOTH",
"736.167 165.667 OFFCURVE",
"779 258.333 OFFCURVE",
"779 365 CURVE SMOOTH",
"779 461 OFFCURVE",
"744.667 552.167 OFFCURVE",
"682 619.5 CURVE SMOOTH",
"619.333 686.833 OFFCURVE",
"528.333 730 OFFCURVE",
"415 730 CURVE SMOOTH",
"311 730 OFFCURVE",
"213.5 694.833 OFFCURVE",
"143.5 631.5 CURVE SMOOTH",
"73.5 568.167 OFFCURVE",
"29 475.667 OFFCURVE",
"29 361 CURVE SMOOTH",
"29 253 OFFCURVE",
"71 161.167 OFFCURVE",
"139 96.5 CURVE SMOOTH",
"207 31.833 OFFCURVE",
"300.667 -5 OFFCURVE",
"402 -5 CURVE SMOOTH"
);
},
{
closed = 1;
nodes = (
"322 10 OFFCURVE",
"258.5 52 OFFCURVE",
"216.5 116 CURVE SMOOTH",
"174.5 180 OFFCURVE",
"153 267.333 OFFCURVE",
"153 358 CURVE SMOOTH",
"153 444.667 OFFCURVE",
"171.833 533.333 OFFCURVE",
"212.5 600 CURVE SMOOTH",
"253.167 666.667 OFFCURVE",
"316.333 713 OFFCURVE",
"403 713 CURVE SMOOTH",
"569.104 713 OFFCURVE",
"655 532.116 OFFCURVE",
"655 364 CURVE SMOOTH",
"655 280 OFFCURVE",
"634.333 191.833 OFFCURVE",
"593 124.5 CURVE SMOOTH",
"551.667 57.167 OFFCURVE",
"490 10 OFFCURVE",
"406 10 CURVE SMOOTH"
);
}
);
userData = {
assembly = "PUSHW[ ]	/* 1 value pushed */
40 
MDAP[1]	/* MoveDirectAbsPt */
PUSHW[ ]	/* 1 value pushed */
41 
MDAP[1]	/* MoveDirectAbsPt */
PUSHW[ ]	/* 1 value pushed */
0 
MDRP[11100]	/* MoveDirectRelPt */
PUSHW[ ]	/* 1 value pushed */
40 
SRP0[ ]	/* SetRefPoint0 */
PUSHW[ ]	/* 1 value pushed */
10 
MDRP[10000]	/* MoveDirectRelPt */
PUSHW[ ]	/* 1 value pushed */
10 
MDAP[1]	/* MoveDirectAbsPt */
PUSHW[ ]	/* 1 value pushed */
0 
SRP0[ ]	/* SetRefPoint0 */
PUSHW[ ]	/* 2 values pushed */
20 7 
MIRP[11100]	/* MoveIndirectRelPt */
NPUSHW[ ]	/* 5 values pushed */
106 20 122 20 2 
DELTAP1[ ]	/* DeltaExceptionP1 */
NPUSHW[ ]	/* 13 values pushed */
9 20 25 20 41 20 57 20 73 20 89 20 6 
DELTAP1[ ]	/* DeltaExceptionP1 */
PUSHW[ ]	/* 1 value pushed */
10 
SRP0[ ]	/* SetRefPoint0 */
PUSHW[ ]	/* 2 values pushed */
30 7 
MIRP[11100]	/* MoveIndirectRelPt */
NPUSHW[ ]	/* 13 values pushed */
6 30 22 30 38 30 54 30 70 30 86 30 6 
DELTAP1[ ]	/* DeltaExceptionP1 */
NPUSHW[ ]	/* 5 values pushed */
101 30 117 30 2 
DELTAP1[ ]	/* DeltaExceptionP1 */
SVTCA[0]	/* SetFreedomAndProjectionVectorToAxis */
PUSHW[ ]	/* 1 value pushed */
0 
RCVT[ ]	/* ReadCVT */
IF[ ]	/* If */
PUSHW[ ]	/* 1 value pushed */
5 
MDAP[1]	/* MoveDirectAbsPt */
ELSE[ ]	/* Else */
PUSHW[ ]	/* 2 values pushed */
5 14 
MIAP[0]	/* MoveIndirectAbsPt */
EIF[ ]	/* EndIf */
PUSHW[ ]	/* 1 value pushed */
0 
RCVT[ ]	/* ReadCVT */
IF[ ]	/* If */
PUSHW[ ]	/* 1 value pushed */
15 
MDAP[1]	/* MoveDirectAbsPt */
ELSE[ ]	/* Else */
PUSHW[ ]	/* 2 values pushed */
15 8 
MIAP[0]	/* MoveIndirectAbsPt */
EIF[ ]	/* EndIf */
IUP[0]	/* InterpolateUntPts */
IUP[1]	/* InterpolateUntPts */";
};
width = 808;
}
);
note = O;
unicode = 004F;
},
{
glyphname = P;
lastChange = "2020-12-31 20:54:44 +0000";
layers = (
{
layerId = "6873DD1C-7BCD-4DE2-A211-237E2294755D";
paths = (
{
closed = 1;
nodes = (
"361 0 LINE",
"361 10 LINE",
"306.333 12.667 OFFCURVE",
"277 34 OFFCURVE",
"266 51 CURVE SMOOTH",
"253 71 OFFCURVE",
"254 101 OFFCURVE",
"253 144 CURVE SMOOTH",
"253 182 OFFCURVE",
"252 263 OFFCURVE",
"252 301 CURVE",
"268 301 OFFCURVE",
"286 301 OFFCURVE",
"306 301 CURVE SMOOTH",
"359.193 301 OFFCURVE",
"444.984 308.494 OFFCURVE",
"494 326 CURVE SMOOTH",
"571.291 354.626 OFFCURVE",
"636 417.119 OFFCURVE",
"636 512 CURVE SMOOTH",
"636 592 OFFCURVE",
"592.667 652 OFFCURVE",
"534 684 CURVE SMOOTH",
"474 717.333 OFFCURVE",
"409 722 OFFCURVE",
"321 722 CURVE SMOOTH",
"309 722 OFFCURVE",
"294 722 OFFCURVE",
"276 722 CURVE SMOOTH",
"258.667 722 OFFCURVE",
"240.167 721.833 OFFCURVE",
"220.5 721.5 CURVE SMOOTH",
"200.833 721.167 OFFCURVE",
"181 721 OFFCURVE",
"161 721 CURVE SMOOTH",
"141 721 OFFCURVE",
"122.5 720.833 OFFCURVE",
"105.5 720.5 CURVE SMOOTH",
"88.5 720.167 OFFCURVE",
"73.667 720 OFFCURVE",
"61 720 CURVE SMOOTH",
"49 720 OFFCURVE",
"41 720 OFFCURVE",
"37 720 CURVE",
"37 710 LINE",
"73 704.667 OFFCURVE",
"106 700.333 OFFCURVE",
"126 679 CURVE SMOOTH",
"142.103 662.897 OFFCURVE",
"143 596.302 OFFCURVE",
"143 558 CURVE SMOOTH",
"143 317 OFFCURVE",
"143 202 OFFCURVE",
"143 156 CURVE SMOOTH",
"143 121 OFFCURVE",
"137.405 60.886 OFFCURVE",
"125 46 CURVE SMOOTH",
"107.667 24.667 OFFCURVE",
"74.333 15.333 OFFCURVE",
"41 10 CURVE",
"41 0 LINE"
);
},
{
closed = 1;
nodes = (
"252 320.333 OFFCURVE",
"252 335 OFFCURVE",
"252 359 CURVE SMOOTH",
"252 383 OFFCURVE",
"252 411 OFFCURVE",
"252 443 CURVE SMOOTH",
"252 507 OFFCURVE",
"253 571 OFFCURVE",
"254 618 CURVE SMOOTH",
"255 649 OFFCURVE",
"255 657 OFFCURVE",
"257 669 CURVE SMOOTH",
"258 677 OFFCURVE",
"260 687 OFFCURVE",
"263 703 CURVE",
"282 706 OFFCURVE",
"297 707 OFFCURVE",
"314 707 CURVE SMOOTH",
"353 707 OFFCURVE",
"389 702.667 OFFCURVE",
"421 688 CURVE SMOOTH",
"485 657.333 OFFCURVE",
"528 594.333 OFFCURVE",
"528 517 CURVE SMOOTH",
"528 433 OFFCURVE",
"481.333 360.333 OFFCURVE",
"396 331 CURVE SMOOTH",
"354.667 316.333 OFFCURVE",
"306.667 315 OFFCURVE",
"252 315 CURVE"
);
}
);
userData = {
assembly = "PUSHW[ ]	/* 1 value pushed */
94 
MDAP[1]	/* MoveDirectAbsPt */
PUSHW[ ]	/* 1 value pushed */
95 
MDAP[1]	/* MoveDirectAbsPt */
PUSHW[ ]	/* 1 value pushed */
0 
MDRP[11100]	/* MoveDirectRelPt */
PUSHW[ ]	/* 2 values pushed */
67 7 
MIRP[11100]	/* MoveIndirectRelPt */
NPUSHW[ ]	/* 5 values pushed */
106 67 122 67 2 
DELTAP1[ ]	/* DeltaExceptionP1 */
NPUSHW[ ]	/* 13 values pushed */
9 67 25 67 41 67 57 67 73 67 89 67 6 
DELTAP1[ ]	/* DeltaExceptionP1 */
PUSHW[ ]	/* 1 value pushed */
3 
MDRP[10000]	/* MoveDirectRelPt */
PUSHW[ ]	/* 1 value pushed */
3 
MDAP[1]	/* MoveDirectAbsPt */
PUSHW[ ]	/* 1 value pushed */
94 
SRP0[ ]	/* SetRefPoint0 */
PUSHW[ ]	/* 1 value pushed */
28 
MDRP[10000]	/* MoveDirectRelPt */
PUSHW[ ]	/* 1 value pushed */
28 
MDAP[1]	/* MoveDirectAbsPt */
PUSHW[ ]	/* 1 value pushed */
25 
MDRP[10000]	/* MoveDirectRelPt */
PUSHW[ ]	/* 1 value pushed */
28 
SRP0[ ]	/* SetRefPoint0 */
PUSHW[ ]	/* 1 value pushed */
32 
MDRP[10000]	/* MoveDirectRelPt */
PUSHW[ ]	/* 1 value pushed */
32 
MDAP[1]	/* MoveDirectAbsPt */
PUSHW[ ]	/* 1 value pushed */
28 
SRP0[ ]	/* SetRefPoint0 */
PUSHW[ ]	/* 2 values pushed */
49 7 
MIRP[11100]	/* MoveIndirectRelPt */
NPUSHW[ ]	/* 13 values pushed */
6 49 22 49 38 49 54 49 70 49 86 49 6 
DELTAP1[ ]	/* DeltaExceptionP1 */
NPUSHW[ ]	/* 5 values pushed */
101 49 117 49 2 
DELTAP1[ ]	/* DeltaExceptionP1 */
PUSHW[ ]	/* 1 value pushed */
52 
MDRP[10000]	/* MoveDirectRelPt */
PUSHW[ ]	/* 1 value pushed */
52 
MDAP[1]	/* MoveDirectAbsPt */
PUSHW[ ]	/* 1 value pushed */
49 
SRP0[ ]	/* SetRefPoint0 */
PUSHW[ ]	/* 1 value pushed */
54 
MDRP[10000]	/* MoveDirectRelPt */
PUSHW[ ]	/* 1 value pushed */
54 
MDAP[1]	/* MoveDirectAbsPt */
PUSHW[ ]	/* 1 value pushed */
49 
SRP0[ ]	/* SetRefPoint0 */
PUSHW[ ]	/* 1 value pushed */
56 
MDRP[10000]	/* MoveDirectRelPt */
PUSHW[ ]	/* 1 value pushed */
56 
MDAP[1]	/* MoveDirectAbsPt */
PUSHW[ ]	/* 1 value pushed */
49 
SRP0[ ]	/* SetRefPoint0 */
PUSHW[ ]	/* 1 value pushed */
73 
MDRP[10000]	/* MoveDirectRelPt */
PUSHW[ ]	/* 1 value pushed */
73 
MDAP[1]	/* MoveDirectAbsPt */
PUSHW[ ]	/* 1 value pushed */
49 
SRP0[ ]	/* SetRefPoint0 */
PUSHW[ ]	/* 1 value pushed */
75 
MDRP[10000]	/* MoveDirectRelPt */
PUSHW[ ]	/* 1 value pushed */
75 
MDAP[1]	/* MoveDirectAbsPt */
PUSHW[ ]	/* 1 value pushed */
49 
SRP0[ ]	/* SetRefPoint0 */
PUSHW[ ]	/* 1 value pushed */
77 
MDRP[10000]	/* MoveDirectRelPt */
PUSHW[ ]	/* 1 value pushed */
77 
MDAP[1]	/* MoveDirectAbsPt */
PUSHW[ ]	/* 1 value pushed */
49 
SRP0[ ]	/* SetRefPoint0 */
PUSHW[ ]	/* 1 value pushed */
80 
MDRP[10000]	/* MoveDirectRelPt */
PUSHW[ ]	/* 1 value pushed */
80 
MDAP[1]	/* MoveDirectAbsPt */
SVTCA[0]	/* SetFreedomAndProjectionVectorToAxis */
PUSHW[ ]	/* 1 value pushed */
0 
RCVT[ ]	/* ReadCVT */
IF[ ]	/* If */
PUSHW[ ]	/* 1 value pushed */
6 
MDAP[1]	/* MoveDirectAbsPt */
ELSE[ ]	/* Else */
PUSHW[ ]	/* 2 values pushed */
6 14 
MIAP[0]	/* MoveIndirectAbsPt */
EIF[ ]	/* EndIf */
PUSHW[ ]	/* 1 value pushed */
0 
RCVT[ ]	/* ReadCVT */
IF[ ]	/* If */
PUSHW[ ]	/* 1 value pushed */
8 
MDAP[1]	/* MoveDirectAbsPt */
ELSE[ ]	/* Else */
PUSHW[ ]	/* 2 values pushed */
8 14 
MIAP[0]	/* MoveIndirectAbsPt */
EIF[ ]	/* EndIf */
PUSHW[ ]	/* 1 value pushed */
0 
RCVT[ ]	/* ReadCVT */
IF[ ]	/* If */
PUSHW[ ]	/* 1 value pushed */
11 
MDAP[1]	/* MoveDirectAbsPt */
ELSE[ ]	/* Else */
PUSHW[ ]	/* 2 values pushed */
11 14 
MIAP[0]	/* MoveIndirectAbsPt */
EIF[ ]	/* EndIf */
PUSHW[ ]	/* 1 value pushed */
0 
RCVT[ ]	/* ReadCVT */
IF[ ]	/* If */
PUSHW[ ]	/* 1 value pushed */
14 
MDAP[1]	/* MoveDirectAbsPt */
ELSE[ ]	/* Else */
PUSHW[ ]	/* 2 values pushed */
14 14 
MIAP[0]	/* MoveIndirectAbsPt */
EIF[ ]	/* EndIf */
PUSHW[ ]	/* 1 value pushed */
0 
RCVT[ ]	/* ReadCVT */
IF[ ]	/* If */
PUSHW[ ]	/* 1 value pushed */
16 
MDAP[1]	/* MoveDirectAbsPt */
ELSE[ ]	/* Else */
PUSHW[ ]	/* 2 values pushed */
16 14 
MIAP[0]	/* MoveIndirectAbsPt */
EIF[ ]	/* EndIf */
PUSHW[ ]	/* 1 value pushed */
0 
RCVT[ ]	/* ReadCVT */
IF[ ]	/* If */
PUSHW[ ]	/* 1 value pushed */
41 
MDAP[1]	/* MoveDirectAbsPt */
ELSE[ ]	/* Else */
PUSHW[ ]	/* 2 values pushed */
41 8 
MIAP[0]	/* MoveIndirectAbsPt */
EIF[ ]	/* EndIf */
IUP[0]	/* InterpolateUntPts */
IUP[1]	/* InterpolateUntPts */";
};
width = 656;
}
);
note = P;
unicode = 0050;
},
{
glyphname = Q;
lastChange = "2020-12-28 02:01:01 +0000";
layers = (
{
layerId = "6873DD1C-7BCD-4DE2-A211-237E2294755D";
paths = (
{
closed = 1;
nodes = (
"589 -151 OFFCURVE",
"639.333 -128.667 OFFCURVE",
"678 -102 CURVE",
"673 -94 LINE",
"646.333 -104.667 OFFCURVE",
"625 -107 OFFCURVE",
"601 -107 CURVE SMOOTH",
"530.078 -107 OFFCURVE",
"468 -67.535 OFFCURVE",
"468 2 CURVE",
"556 18 OFFCURVE",
"634.167 61.167 OFFCURVE",
"689.5 124.5 CURVE SMOOTH",
"744.833 187.833 OFFCURVE",
"779 270.333 OFFCURVE",
"779 365 CURVE SMOOTH",
"779 461 OFFCURVE",
"744.667 552.167 OFFCURVE",
"682 619.5 CURVE SMOOTH",
"619.333 686.833 OFFCURVE",
"528.333 730 OFFCURVE",
"415 730 CURVE SMOOTH",
"319 730 OFFCURVE",
"229.667 701 OFFCURVE",
"159 641 CURVE SMOOTH",
"72.333 567 OFFCURVE",
"29 473.667 OFFCURVE",
"29 361 CURVE SMOOTH",
"29 266.333 OFFCURVE",
"62.5 185.5 OFFCURVE",
"116.5 123.5 CURVE SMOOTH",
"170.5 61.5 OFFCURVE",
"244.667 18.333 OFFCURVE",
"326 1 CURVE",
"339.313 -105.503 OFFCURVE",
"417.624 -151 OFFCURVE",
"525 -151 CURVE SMOOTH"
);
},
{
closed = 1;
nodes = (
"328.667 6 OFFCURVE",
"265 48.667 OFFCURVE",
"221 114 CURVE SMOOTH",
"177 179.333 OFFCURVE",
"153 267.333 OFFCURVE",
"153 358 CURVE SMOOTH",
"153 444.667 OFFCURVE",
"171.833 533.333 OFFCURVE",
"212.5 600 CURVE SMOOTH",
"253.167 666.667 OFFCURVE",
"316.333 713 OFFCURVE",
"403 713 CURVE SMOOTH",
"569.104 713 OFFCURVE",
"655 532.116 OFFCURVE",
"655 364 CURVE SMOOTH",
"655 194.052 OFFCURVE",
"581.26 6 OFFCURVE",
"406 6 CURVE SMOOTH"
);
}
);
userData = {
assembly = "PUSHW[ ]	/* 1 value pushed */
57 
MDAP[1]	/* MoveDirectAbsPt */
PUSHW[ ]	/* 1 value pushed */
58 
MDAP[1]	/* MoveDirectAbsPt */
PUSHW[ ]	/* 1 value pushed */
0 
MDRP[11100]	/* MoveDirectRelPt */
PUSHW[ ]	/* 1 value pushed */
57 
SRP0[ ]	/* SetRefPoint0 */
PUSHW[ ]	/* 1 value pushed */
10 
MDRP[10000]	/* MoveDirectRelPt */
PUSHW[ ]	/* 1 value pushed */
10 
MDAP[1]	/* MoveDirectAbsPt */
PUSHW[ ]	/* 2 values pushed */
47 7 
MIRP[11100]	/* MoveIndirectRelPt */
NPUSHW[ ]	/* 13 values pushed */
6 47 22 47 38 47 54 47 70 47 86 47 6 
DELTAP1[ ]	/* DeltaExceptionP1 */
NPUSHW[ ]	/* 5 values pushed */
101 47 117 47 2 
DELTAP1[ ]	/* DeltaExceptionP1 */
PUSHW[ ]	/* 1 value pushed */
8 
MDRP[10000]	/* MoveDirectRelPt */
PUSHW[ ]	/* 1 value pushed */
8 
MDAP[1]	/* MoveDirectAbsPt */
PUSHW[ ]	/* 1 value pushed */
0 
SRP0[ ]	/* SetRefPoint0 */
PUSHW[ ]	/* 2 values pushed */
37 7 
MIRP[11100]	/* MoveIndirectRelPt */
NPUSHW[ ]	/* 5 values pushed */
106 37 122 37 2 
DELTAP1[ ]	/* DeltaExceptionP1 */
NPUSHW[ ]	/* 13 values pushed */
9 37 25 37 41 37 57 37 73 37 89 37 6 
DELTAP1[ ]	/* DeltaExceptionP1 */
SVTCA[0]	/* SetFreedomAndProjectionVectorToAxis */
PUSHW[ ]	/* 1 value pushed */
0 
RCVT[ ]	/* ReadCVT */
IF[ ]	/* If */
PUSHW[ ]	/* 1 value pushed */
5 
MDAP[1]	/* MoveDirectAbsPt */
ELSE[ ]	/* Else */
PUSHW[ ]	/* 2 values pushed */
5 14 
MIAP[0]	/* MoveIndirectAbsPt */
EIF[ ]	/* EndIf */
PUSHW[ ]	/* 4 values pushed */
42 4 20 4 
CALL[ ]	/* CallFunction */
PUSHW[ ]	/* 1 value pushed */
42 
SRP0[ ]	/* SetRefPoint0 */
PUSHW[ ]	/* 1 value pushed */
15 
MDRP[10000]	/* MoveDirectRelPt */
PUSHW[ ]	/* 1 value pushed */
15 
MDAP[1]	/* MoveDirectAbsPt */
PUSHW[ ]	/* 1 value pushed */
20 
SRP0[ ]	/* SetRefPoint0 */
PUSHW[ ]	/* 2 values pushed */
27 3 
MIRP[11100]	/* MoveIndirectRelPt */
PUSHW[ ]	/* 1 value pushed */
42 
SRP0[ ]	/* SetRefPoint0 */
PUSHW[ ]	/* 1 value pushed */
32 
MDRP[10000]	/* MoveDirectRelPt */
PUSHW[ ]	/* 1 value pushed */
32 
MDAP[1]	/* MoveDirectAbsPt */
IUP[0]	/* InterpolateUntPts */
IUP[1]	/* InterpolateUntPts */";
};
width = 808;
}
);
note = Q;
unicode = 0051;
},
{
glyphname = R;
lastChange = "2021-01-01 23:35:44 +0000";
layers = (
{
layerId = "6873DD1C-7BCD-4DE2-A211-237E2294755D";
paths = (
{
closed = 1;
nodes = (
"361 0 LINE",
"361 10 LINE",
"306.333 12.667 OFFCURVE",
"282 35 OFFCURVE",
"271 52 CURVE SMOOTH",
"258 72 OFFCURVE",
"252 92 OFFCURVE",
"252 145 CURVE SMOOTH",
"252 339 LINE",
"272 338 OFFCURVE",
"280 339 OFFCURVE",
"304 334 CURVE SMOOTH",
"338.667 327.333 OFFCURVE",
"370.333 296.667 OFFCURVE",
"397 266 CURVE SMOOTH",
"429 228.667 OFFCURVE",
"451 200.333 OFFCURVE",
"471 171 CURVE SMOOTH",
"485.645 149.521 OFFCURVE",
"515.034 103.949 OFFCURVE",
"534 76 CURVE SMOOTH",
"559.681 39.084 OFFCURVE",
"569.226 22.774 OFFCURVE",
"592 0 CURVE",
"797 0 LINE",
"797 10 LINE",
"734.333 19.333 OFFCURVE",
"692.333 47.667 OFFCURVE",
"643 117 CURVE SMOOTH",
"611 162.333 OFFCURVE",
"566.667 226.333 OFFCURVE",
"532 277 CURVE SMOOTH",
"512 305 OFFCURVE",
"490.667 329 OFFCURVE",
"468 341 CURVE",
"468 344 LINE",
"558.048 374.016 OFFCURVE",
"633 430.251 OFFCURVE",
"633 528 CURVE SMOOTH",
"633 608 OFFCURVE",
"593.667 659.333 OFFCURVE",
"535 690 CURVE SMOOTH",
"477.667 720.667 OFFCURVE",
"410.333 721 OFFCURVE",
"321 721 CURVE SMOOTH",
"303 721 OFFCURVE",
"279.667 721 OFFCURVE",
"251 721 CURVE SMOOTH",
"222.333 721 OFFCURVE",
"193.667 720.833 OFFCURVE",
"165 720.5 CURVE SMOOTH",
"136.333 720.167 OFFCURVE",
"110.667 720 OFFCURVE",
"88 720 CURVE SMOOTH",
"66 720 OFFCURVE",
"52.333 720 OFFCURVE",
"47 720 CURVE",
"47 710 LINE",
"83 704.667 OFFCURVE",
"102 697 OFFCURVE",
"126 679 CURVE SMOOTH",
"138 670 OFFCURVE",
"143 626 OFFCURVE",
"143 558 CURVE SMOOTH",
"143 156 LINE SMOOTH",
"143 103 OFFCURVE",
"136 57 OFFCURVE",
"125 46 CURVE SMOOTH",
"105 26 OFFCURVE",
"74.333 15.333 OFFCURVE",
"41 10 CURVE",
"41 0 LINE"
);
},
{
closed = 1;
nodes = (
"252 626 LINE SMOOTH",
"252 665 OFFCURVE",
"255 687 OFFCURVE",
"261 697 CURVE SMOOTH",
"264 702 OFFCURVE",
"286 707 OFFCURVE",
"314 706 CURVE SMOOTH",
"353 705 OFFCURVE",
"388 699.667 OFFCURVE",
"420 685 CURVE SMOOTH",
"484 654.333 OFFCURVE",
"518 600.667 OFFCURVE",
"518 534 CURVE SMOOTH",
"518 459.664 OFFCURVE",
"478.433 395.448 OFFCURVE",
"397 370 CURVE SMOOTH",
"353 355.333 OFFCURVE",
"306.667 352 OFFCURVE",
"252 352 CURVE"
);
}
);
userData = {
assembly = "PUSHW[ ]	/* 1 value pushed */
113 
MDAP[1]	/* MoveDirectAbsPt */
PUSHW[ ]	/* 1 value pushed */
114 
MDAP[1]	/* MoveDirectAbsPt */
PUSHW[ ]	/* 1 value pushed */
113 
SRP0[ ]	/* SetRefPoint0 */
PUSHW[ ]	/* 1 value pushed */
41 
MDRP[10000]	/* MoveDirectRelPt */
PUSHW[ ]	/* 1 value pushed */
41 
MDAP[1]	/* MoveDirectAbsPt */
PUSHW[ ]	/* 1 value pushed */
45 
MDRP[10000]	/* MoveDirectRelPt */
PUSHW[ ]	/* 1 value pushed */
45 
MDAP[1]	/* MoveDirectAbsPt */
PUSHW[ ]	/* 1 value pushed */
114 
SRP0[ ]	/* SetRefPoint0 */
PUSHW[ ]	/* 1 value pushed */
16 
MDRP[11100]	/* MoveDirectRelPt */
PUSHW[ ]	/* 3 values pushed */
11 45 16 
SRP1[ ]	/* SetRefPoint1 */
SRP2[ ]	/* SetRefPoint2 */
IP[ ]	/* InterpolatePts */
PUSHW[ ]	/* 1 value pushed */
41 
SRP0[ ]	/* SetRefPoint0 */
PUSHW[ ]	/* 2 values pushed */
62 7 
MIRP[11100]	/* MoveIndirectRelPt */
NPUSHW[ ]	/* 13 values pushed */
6 62 22 62 38 62 54 62 70 62 86 62 6 
DELTAP1[ ]	/* DeltaExceptionP1 */
NPUSHW[ ]	/* 5 values pushed */
101 62 117 62 2 
DELTAP1[ ]	/* DeltaExceptionP1 */
PUSHW[ ]	/* 1 value pushed */
24 
MDRP[10000]	/* MoveDirectRelPt */
PUSHW[ ]	/* 1 value pushed */
24 
MDAP[1]	/* MoveDirectAbsPt */
PUSHW[ ]	/* 1 value pushed */
41 
SRP0[ ]	/* SetRefPoint0 */
PUSHW[ ]	/* 1 value pushed */
38 
MDRP[10000]	/* MoveDirectRelPt */
PUSHW[ ]	/* 1 value pushed */
62 
SRP0[ ]	/* SetRefPoint0 */
PUSHW[ ]	/* 1 value pushed */
64 
MDRP[10000]	/* MoveDirectRelPt */
PUSHW[ ]	/* 1 value pushed */
64 
MDAP[1]	/* MoveDirectAbsPt */
PUSHW[ ]	/* 1 value pushed */
62 
SRP0[ ]	/* SetRefPoint0 */
PUSHW[ ]	/* 1 value pushed */
66 
MDRP[10000]	/* MoveDirectRelPt */
PUSHW[ ]	/* 1 value pushed */
66 
MDAP[1]	/* MoveDirectAbsPt */
PUSHW[ ]	/* 1 value pushed */
16 
SRP0[ ]	/* SetRefPoint0 */
PUSHW[ ]	/* 2 values pushed */
84 7 
MIRP[11100]	/* MoveIndirectRelPt */
NPUSHW[ ]	/* 5 values pushed */
106 84 122 84 2 
DELTAP1[ ]	/* DeltaExceptionP1 */
NPUSHW[ ]	/* 13 values pushed */
9 84 25 84 41 84 57 84 73 84 89 84 6 
DELTAP1[ ]	/* DeltaExceptionP1 */
PUSHW[ ]	/* 1 value pushed */
62 
SRP0[ ]	/* SetRefPoint0 */
PUSHW[ ]	/* 1 value pushed */
92 
MDRP[10000]	/* MoveDirectRelPt */
PUSHW[ ]	/* 1 value pushed */
92 
MDAP[1]	/* MoveDirectAbsPt */
PUSHW[ ]	/* 1 value pushed */
62 
SRP0[ ]	/* SetRefPoint0 */
PUSHW[ ]	/* 1 value pushed */
94 
MDRP[10000]	/* MoveDirectRelPt */
PUSHW[ ]	/* 1 value pushed */
94 
MDAP[1]	/* MoveDirectAbsPt */
PUSHW[ ]	/* 1 value pushed */
62 
SRP0[ ]	/* SetRefPoint0 */
PUSHW[ ]	/* 1 value pushed */
96 
MDRP[10000]	/* MoveDirectRelPt */
PUSHW[ ]	/* 1 value pushed */
96 
MDAP[1]	/* MoveDirectAbsPt */
PUSHW[ ]	/* 1 value pushed */
62 
SRP0[ ]	/* SetRefPoint0 */
PUSHW[ ]	/* 1 value pushed */
99 
MDRP[10000]	/* MoveDirectRelPt */
PUSHW[ ]	/* 1 value pushed */
99 
MDAP[1]	/* MoveDirectAbsPt */
PUSHW[ ]	/* 1 value pushed */
62 
SRP0[ ]	/* SetRefPoint0 */
PUSHW[ ]	/* 1 value pushed */
104 
MDRP[10000]	/* MoveDirectRelPt */
PUSHW[ ]	/* 1 value pushed */
104 
MDAP[1]	/* MoveDirectAbsPt */
SVTCA[0]	/* SetFreedomAndProjectionVectorToAxis */
PUSHW[ ]	/* 1 value pushed */
0 
RCVT[ ]	/* ReadCVT */
IF[ ]	/* If */
PUSHW[ ]	/* 1 value pushed */
22 
MDAP[1]	/* MoveDirectAbsPt */
ELSE[ ]	/* Else */
PUSHW[ ]	/* 2 values pushed */
22 14 
MIAP[0]	/* MoveIndirectAbsPt */
EIF[ ]	/* EndIf */
PUSHW[ ]	/* 1 value pushed */
0 
RCVT[ ]	/* ReadCVT */
IF[ ]	/* If */
PUSHW[ ]	/* 1 value pushed */
24 
MDAP[1]	/* MoveDirectAbsPt */
ELSE[ ]	/* Else */
PUSHW[ ]	/* 2 values pushed */
24 14 
MIAP[0]	/* MoveIndirectAbsPt */
EIF[ ]	/* EndIf */
PUSHW[ ]	/* 1 value pushed */
0 
RCVT[ ]	/* ReadCVT */
IF[ ]	/* If */
PUSHW[ ]	/* 1 value pushed */
27 
MDAP[1]	/* MoveDirectAbsPt */
ELSE[ ]	/* Else */
PUSHW[ ]	/* 2 values pushed */
27 14 
MIAP[0]	/* MoveIndirectAbsPt */
EIF[ ]	/* EndIf */
PUSHW[ ]	/* 1 value pushed */
0 
RCVT[ ]	/* ReadCVT */
IF[ ]	/* If */
PUSHW[ ]	/* 1 value pushed */
29 
MDAP[1]	/* MoveDirectAbsPt */
ELSE[ ]	/* Else */
PUSHW[ ]	/* 2 values pushed */
29 14 
MIAP[0]	/* MoveIndirectAbsPt */
EIF[ ]	/* EndIf */
PUSHW[ ]	/* 1 value pushed */
0 
RCVT[ ]	/* ReadCVT */
IF[ ]	/* If */
PUSHW[ ]	/* 1 value pushed */
0 
MDAP[1]	/* MoveDirectAbsPt */
ELSE[ ]	/* Else */
PUSHW[ ]	/* 2 values pushed */
0 8 
MIAP[0]	/* MoveIndirectAbsPt */
EIF[ ]	/* EndIf */
PUSHW[ ]	/* 1 value pushed */
0 
RCVT[ ]	/* ReadCVT */
IF[ ]	/* If */
PUSHW[ ]	/* 1 value pushed */
54 
MDAP[1]	/* MoveDirectAbsPt */
ELSE[ ]	/* Else */
PUSHW[ ]	/* 2 values pushed */
54 8 
MIAP[0]	/* MoveIndirectAbsPt */
EIF[ ]	/* EndIf */
PUSHW[ ]	/* 3 values pushed */
11 0 22 
SRP1[ ]	/* SetRefPoint1 */
SRP2[ ]	/* SetRefPoint2 */
IP[ ]	/* InterpolatePts */
IUP[0]	/* InterpolateUntPts */
IUP[1]	/* InterpolateUntPts */";
};
width = 762;
}
);
note = R;
unicode = 0052;
},
{
glyphname = S;
lastChange = "2020-12-28 02:01:01 +0000";
layers = (
{
layerId = "6873DD1C-7BCD-4DE2-A211-237E2294755D";
paths = (
{
closed = 1;
nodes = (
"445.258 -7 OFFCURVE",
"558 63.98 OFFCURVE",
"558 197 CURVE SMOOTH",
"558 291.667 OFFCURVE",
"505.667 354.667 OFFCURVE",
"415 388 CURVE SMOOTH",
"374.766 402.823 OFFCURVE",
"311.282 422.287 OFFCURVE",
"272 438 CURVE SMOOTH",
"204 463.333 OFFCURVE",
"157 503.333 OFFCURVE",
"157 574 CURVE SMOOTH",
"157 664.037 OFFCURVE",
"220.816 715 OFFCURVE",
"307 715 CURVE SMOOTH",
"407.148 715 OFFCURVE",
"476.825 625.232 OFFCURVE",
"510 534 CURVE",
"521 534 LINE",
"521 719 LINE",
"510 719 LINE",
"499.333 703 OFFCURVE",
"484 683 OFFCURVE",
"480 683 CURVE SMOOTH",
"478.243 683 OFFCURVE",
"457.334 698.292 OFFCURVE",
"437.5 707 CURVE SMOOTH",
"410.167 719 OFFCURVE",
"368 731 OFFCURVE",
"308 731 CURVE SMOOTH",
"175.916 731 OFFCURVE",
"68 661.393 OFFCURVE",
"68 522 CURVE SMOOTH",
"68 438.938 OFFCURVE",
"128.973 368.318 OFFCURVE",
"200 341 CURVE SMOOTH",
"218.421 333.792 OFFCURVE",
"328.443 295.959 OFFCURVE",
"347 289 CURVE SMOOTH",
"412.891 264.291 OFFCURVE",
"462 230.664 OFFCURVE",
"462 157 CURVE SMOOTH",
"462 65 OFFCURVE",
"394.667 7 OFFCURVE",
"296 7 CURVE SMOOTH",
"244.134 7 OFFCURVE",
"191.424 32.503 OFFCURVE",
"161.5 60 CURVE SMOOTH",
"127.422 91.315 OFFCURVE",
"89.058 151.827 OFFCURVE",
"73 200 CURVE",
"63 200 LINE",
"66 1 LINE",
"75 1 LINE",
"85.667 15.667 OFFCURVE",
"102 36 OFFCURVE",
"106 36 CURVE SMOOTH",
"110.52 36 OFFCURVE",
"131.647 22.131 OFFCURVE",
"155 13.5 CURVE SMOOTH",
"185.667 2.167 OFFCURVE",
"231.667 -7 OFFCURVE",
"297 -7 CURVE SMOOTH"
);
}
);
userData = {
assembly = "PUSHW[ ]	/* 1 value pushed */
77 
MDAP[1]	/* MoveDirectAbsPt */
PUSHW[ ]	/* 1 value pushed */
78 
MDAP[1]	/* MoveDirectAbsPt */
PUSHW[ ]	/* 1 value pushed */
0 
MDRP[11100]	/* MoveDirectRelPt */
PUSHW[ ]	/* 1 value pushed */
77 
SRP0[ ]	/* SetRefPoint0 */
PUSHW[ ]	/* 1 value pushed */
37 
MDRP[10000]	/* MoveDirectRelPt */
PUSHW[ ]	/* 1 value pushed */
37 
MDAP[1]	/* MoveDirectAbsPt */
PUSHW[ ]	/* 2 values pushed */
11 6 
MIRP[11100]	/* MoveIndirectRelPt */
NPUSHW[ ]	/* 13 values pushed */
6 11 22 11 38 11 54 11 70 11 86 11 6 
DELTAP1[ ]	/* DeltaExceptionP1 */
NPUSHW[ ]	/* 5 values pushed */
101 11 117 11 2 
DELTAP1[ ]	/* DeltaExceptionP1 */
PUSHW[ ]	/* 1 value pushed */
0 
SRP0[ ]	/* SetRefPoint0 */
PUSHW[ ]	/* 2 values pushed */
51 7 
MIRP[11100]	/* MoveIndirectRelPt */
NPUSHW[ ]	/* 5 values pushed */
106 51 122 51 2 
DELTAP1[ ]	/* DeltaExceptionP1 */
NPUSHW[ ]	/* 13 values pushed */
9 51 25 51 41 51 57 51 73 51 89 51 6 
DELTAP1[ ]	/* DeltaExceptionP1 */
PUSHW[ ]	/* 1 value pushed */
37 
SRP0[ ]	/* SetRefPoint0 */
PUSHW[ ]	/* 1 value pushed */
61 
MDRP[10000]	/* MoveDirectRelPt */
PUSHW[ ]	/* 1 value pushed */
61 
MDAP[1]	/* MoveDirectAbsPt */
PUSHW[ ]	/* 1 value pushed */
37 
SRP0[ ]	/* SetRefPoint0 */
PUSHW[ ]	/* 1 value pushed */
62 
MDRP[10000]	/* MoveDirectRelPt */
PUSHW[ ]	/* 1 value pushed */
62 
MDAP[1]	/* MoveDirectAbsPt */
PUSHW[ ]	/* 1 value pushed */
37 
SRP0[ ]	/* SetRefPoint0 */
PUSHW[ ]	/* 1 value pushed */
64 
MDRP[10000]	/* MoveDirectRelPt */
PUSHW[ ]	/* 1 value pushed */
64 
MDAP[1]	/* MoveDirectAbsPt */
SVTCA[0]	/* SetFreedomAndProjectionVectorToAxis */
PUSHW[ ]	/* 1 value pushed */
0 
RCVT[ ]	/* ReadCVT */
IF[ ]	/* If */
PUSHW[ ]	/* 1 value pushed */
32 
MDAP[1]	/* MoveDirectAbsPt */
ELSE[ ]	/* Else */
PUSHW[ ]	/* 2 values pushed */
32 14 
MIAP[0]	/* MoveIndirectAbsPt */
EIF[ ]	/* EndIf */
PUSHW[ ]	/* 1 value pushed */
0 
RCVT[ ]	/* ReadCVT */
IF[ ]	/* If */
PUSHW[ ]	/* 1 value pushed */
72 
MDAP[1]	/* MoveDirectAbsPt */
ELSE[ ]	/* Else */
PUSHW[ ]	/* 2 values pushed */
72 8 
MIAP[0]	/* MoveIndirectAbsPt */
EIF[ ]	/* EndIf */
IUP[0]	/* InterpolateUntPts */
IUP[1]	/* InterpolateUntPts */";
};
width = 605;
}
);
note = S;
unicode = 0053;
},
{
glyphname = T;
lastChange = "2020-12-31 20:56:23 +0000";
layers = (
{
layerId = "6873DD1C-7BCD-4DE2-A211-237E2294755D";
paths = (
{
closed = 1;
nodes = (
"525 0 LINE",
"525 10 LINE",
"495.667 15.333 OFFCURVE",
"453 22.667 OFFCURVE",
"433 52 CURVE SMOOTH",
"422.333 66.667 OFFCURVE",
"422 106.333 OFFCURVE",
"422 145 CURVE SMOOTH",
"422 387.667 OFFCURVE",
"422.167 597.333 OFFCURVE",
"422.5 626 CURVE SMOOTH",
"422.833 654.667 OFFCURVE",
"423 677.333 OFFCURVE",
"423 694 CURVE",
"460 694 OFFCURVE",
"513 693 OFFCURVE",
"550 693 CURVE SMOOTH",
"600.667 691.667 OFFCURVE",
"630 685 OFFCURVE",
"658 659 CURVE SMOOTH",
"678 640 OFFCURVE",
"723.602 571.145 OFFCURVE",
"741 532 CURVE",
"750 535 LINE",
"718 730 LINE",
"687.333 720.667 OFFCURVE",
"663 714.333 OFFCURVE",
"619 713 CURVE SMOOTH",
"571 713 OFFCURVE",
"181 711 OFFCURVE",
"119 713 CURVE SMOOTH",
"69.667 714.333 OFFCURVE",
"50.667 718.333 OFFCURVE",
"20 725 CURVE",
"-10 535 LINE",
"-1 532 LINE",
"12.135 571.405 OFFCURVE",
"58 638 OFFCURVE",
"78 656 CURVE SMOOTH",
"106 682 OFFCURVE",
"135.333 691.667 OFFCURVE",
"186 693 CURVE SMOOTH",
"235 693 OFFCURVE",
"264 694 OFFCURVE",
"313 694 CURVE",
"313 317 OFFCURVE",
"311 206 OFFCURVE",
"311 160 CURVE SMOOTH",
"311 125.855 OFFCURVE",
"309.364 65.364 OFFCURVE",
"297 53 CURVE",
"266.333 18.333 OFFCURVE",
"234.667 14 OFFCURVE",
"200 10 CURVE",
"200 0 LINE"
);
}
);
userData = {
assembly = "PUSHW[ ]	/* 4 values pushed */
66 7 37 4 
CALL[ ]	/* CallFunction */
PUSHW[ ]	/* 1 value pushed */
66 
SRP0[ ]	/* SetRefPoint0 */
PUSHW[ ]	/* 1 value pushed */
37 
SRP0[ ]	/* SetRefPoint0 */
PUSHW[ ]	/* 1 value pushed */
40 
MDRP[10000]	/* MoveDirectRelPt */
PUSHW[ ]	/* 1 value pushed */
37 
SRP0[ ]	/* SetRefPoint0 */
PUSHW[ ]	/* 1 value pushed */
44 
MDRP[10000]	/* MoveDirectRelPt */
PUSHW[ ]	/* 1 value pushed */
44 
MDAP[1]	/* MoveDirectAbsPt */
PUSHW[ ]	/* 1 value pushed */
66 
SRP0[ ]	/* SetRefPoint0 */
PUSHW[ ]	/* 1 value pushed */
61 
MDRP[10000]	/* MoveDirectRelPt */
PUSHW[ ]	/* 1 value pushed */
66 
SRP0[ ]	/* SetRefPoint0 */
PUSHW[ ]	/* 1 value pushed */
64 
MDRP[10000]	/* MoveDirectRelPt */
PUSHW[ ]	/* 1 value pushed */
66 
SRP0[ ]	/* SetRefPoint0 */
PUSHW[ ]	/* 1 value pushed */
69 
MDRP[10000]	/* MoveDirectRelPt */
PUSHW[ ]	/* 1 value pushed */
69 
MDAP[1]	/* MoveDirectAbsPt */
SVTCA[0]	/* SetFreedomAndProjectionVectorToAxis */
PUSHW[ ]	/* 1 value pushed */
30 
MDAP[1]	/* MoveDirectAbsPt */
PUSHW[ ]	/* 1 value pushed */
33 
MDAP[1]	/* MoveDirectAbsPt */
PUSHW[ ]	/* 1 value pushed */
35 
MDAP[1]	/* MoveDirectAbsPt */
PUSHW[ ]	/* 1 value pushed */
37 
MDAP[1]	/* MoveDirectAbsPt */
PUSHW[ ]	/* 1 value pushed */
69 
MDAP[1]	/* MoveDirectAbsPt */
PUSHW[ ]	/* 1 value pushed */
71 
MDAP[1]	/* MoveDirectAbsPt */
PUSHW[ ]	/* 1 value pushed */
73 
MDAP[1]	/* MoveDirectAbsPt */
PUSHW[ ]	/* 1 value pushed */
76 
MDAP[1]	/* MoveDirectAbsPt */
PUSHW[ ]	/* 1 value pushed */
0 
RCVT[ ]	/* ReadCVT */
IF[ ]	/* If */
PUSHW[ ]	/* 1 value pushed */
1 
MDAP[1]	/* MoveDirectAbsPt */
ELSE[ ]	/* Else */
PUSHW[ ]	/* 2 values pushed */
1 14 
MIAP[0]	/* MoveIndirectAbsPt */
EIF[ ]	/* EndIf */
PUSHW[ ]	/* 1 value pushed */
0 
RCVT[ ]	/* ReadCVT */
IF[ ]	/* If */
PUSHW[ ]	/* 1 value pushed */
20 
MDAP[1]	/* MoveDirectAbsPt */
ELSE[ ]	/* Else */
PUSHW[ ]	/* 2 values pushed */
20 14 
MIAP[0]	/* MoveIndirectAbsPt */
EIF[ ]	/* EndIf */
PUSHW[ ]	/* 1 value pushed */
0 
RCVT[ ]	/* ReadCVT */
IF[ ]	/* If */
PUSHW[ ]	/* 1 value pushed */
53 
MDAP[1]	/* MoveDirectAbsPt */
ELSE[ ]	/* Else */
PUSHW[ ]	/* 2 values pushed */
53 8 
MIAP[0]	/* MoveIndirectAbsPt */
EIF[ ]	/* EndIf */
IUP[0]	/* InterpolateUntPts */
IUP[1]	/* InterpolateUntPts */";
};
width = 737;
}
);
note = T;
unicode = 0054;
},
{
glyphname = U;
lastChange = "2021-01-01 23:47:37 +0000";
layers = (
{
anchors = (
{
name = top;
position = "{445, 729}";
}
);
layerId = "6873DD1C-7BCD-4DE2-A211-237E2294755D";
paths = (
{
closed = 1;
nodes = (
"605 -10 OFFCURVE",
"718 96 OFFCURVE",
"718 281 CURVE SMOOTH",
"718 497 LINE SMOOTH",
"718 547 OFFCURVE",
"723.106 627.248 OFFCURVE",
"732 648 CURVE SMOOTH",
"748 686.667 OFFCURVE",
"774.667 703.333 OFFCURVE",
"824 710 CURVE",
"824 720 LINE",
"576 720 LINE",
"576 710 LINE",
"640 700.667 OFFCURVE",
"664 686 OFFCURVE",
"680 640 CURVE SMOOTH",
"686 623 OFFCURVE",
"690 547 OFFCURVE",
"690 497 CURVE SMOOTH",
"690 284 LINE SMOOTH",
"690 136 OFFCURVE",
"610 22 OFFCURVE",
"454 22 CURVE SMOOTH",
"321 22 OFFCURVE",
"241 115 OFFCURVE",
"241 256 CURVE SMOOTH",
"241 630 LINE SMOOTH",
"241 688 OFFCURVE",
"287.66 703.523 OFFCURVE",
"333 710 CURVE",
"333 720 LINE",
"35 720 LINE",
"35 710 LINE",
"69.667 706 OFFCURVE",
"97.333 697.667 OFFCURVE",
"116 675 CURVE SMOOTH",
"127.257 661.866 OFFCURVE",
"131 628 OFFCURVE",
"130 594 CURVE SMOOTH",
"130 252 LINE SMOOTH",
"130 166 OFFCURVE",
"154 96 OFFCURVE",
"217 45.5 CURVE SMOOTH",
"259.667 11.5 OFFCURVE",
"324 -10 OFFCURVE",
"420 -10 CURVE SMOOTH"
);
}
);
userData = {
assembly = "PUSHW[ ]	/* 4 values pushed */
31 7 63 4 
CALL[ ]	/* CallFunction */
PUSHW[ ]	/* 1 value pushed */
31 
SRP0[ ]	/* SetRefPoint0 */
PUSHW[ ]	/* 3 values pushed */
83 11 3 
CALL[ ]	/* CallFunction */
PUSHW[ ]	/* 1 value pushed */
83 
SRP0[ ]	/* SetRefPoint0 */
NPUSHW[ ]	/* 5 values pushed */
218 11 234 11 2 
DELTAP1[ ]	/* DeltaExceptionP1 */
NPUSHW[ ]	/* 27 values pushed */
9 11 25 11 41 11 57 11 73 11 89 11 105 11 121 11 137 11 153 11 169 11 185 11 201 11 13 
DELTAP1[ ]	/* DeltaExceptionP1 */
PUSHW[ ]	/* 1 value pushed */
11 
SRP0[ ]	/* SetRefPoint0 */
PUSHW[ ]	/* 1 value pushed */
13 
MDRP[10000]	/* MoveDirectRelPt */
PUSHW[ ]	/* 1 value pushed */
11 
SRP0[ ]	/* SetRefPoint0 */
PUSHW[ ]	/* 1 value pushed */
15 
MDRP[10000]	/* MoveDirectRelPt */
PUSHW[ ]	/* 1 value pushed */
11 
SRP0[ ]	/* SetRefPoint0 */
PUSHW[ ]	/* 1 value pushed */
17 
MDRP[10000]	/* MoveDirectRelPt */
PUSHW[ ]	/* 1 value pushed */
11 
SRP0[ ]	/* SetRefPoint0 */
PUSHW[ ]	/* 1 value pushed */
19 
MDRP[10000]	/* MoveDirectRelPt */
PUSHW[ ]	/* 1 value pushed */
31 
SRP0[ ]	/* SetRefPoint0 */
PUSHW[ ]	/* 1 value pushed */
34 
MDRP[10000]	/* MoveDirectRelPt */
PUSHW[ ]	/* 1 value pushed */
34 
MDAP[1]	/* MoveDirectAbsPt */
PUSHW[ ]	/* 1 value pushed */
31 
SRP0[ ]	/* SetRefPoint0 */
PUSHW[ ]	/* 1 value pushed */
36 
MDRP[10000]	/* MoveDirectRelPt */
PUSHW[ ]	/* 1 value pushed */
36 
MDAP[1]	/* MoveDirectAbsPt */
PUSHW[ ]	/* 1 value pushed */
31 
SRP0[ ]	/* SetRefPoint0 */
PUSHW[ ]	/* 1 value pushed */
38 
MDRP[10000]	/* MoveDirectRelPt */
PUSHW[ ]	/* 1 value pushed */
38 
MDAP[1]	/* MoveDirectAbsPt */
PUSHW[ ]	/* 1 value pushed */
31 
SRP0[ ]	/* SetRefPoint0 */
PUSHW[ ]	/* 1 value pushed */
40 
MDRP[10000]	/* MoveDirectRelPt */
PUSHW[ ]	/* 1 value pushed */
40 
MDAP[1]	/* MoveDirectAbsPt */
PUSHW[ ]	/* 1 value pushed */
31 
SRP0[ ]	/* SetRefPoint0 */
PUSHW[ ]	/* 1 value pushed */
42 
MDRP[10000]	/* MoveDirectRelPt */
PUSHW[ ]	/* 1 value pushed */
42 
MDAP[1]	/* MoveDirectAbsPt */
PUSHW[ ]	/* 1 value pushed */
31 
SRP0[ ]	/* SetRefPoint0 */
PUSHW[ ]	/* 1 value pushed */
45 
MDRP[10000]	/* MoveDirectRelPt */
PUSHW[ ]	/* 1 value pushed */
45 
MDAP[1]	/* MoveDirectAbsPt */
PUSHW[ ]	/* 1 value pushed */
63 
SRP0[ ]	/* SetRefPoint0 */
PUSHW[ ]	/* 1 value pushed */
60 
MDRP[10000]	/* MoveDirectRelPt */
PUSHW[ ]	/* 1 value pushed */
63 
SRP0[ ]	/* SetRefPoint0 */
PUSHW[ ]	/* 1 value pushed */
66 
MDRP[10000]	/* MoveDirectRelPt */
PUSHW[ ]	/* 1 value pushed */
66 
MDAP[1]	/* MoveDirectAbsPt */
PUSHW[ ]	/* 1 value pushed */
83 
SRP0[ ]	/* SetRefPoint0 */
PUSHW[ ]	/* 1 value pushed */
80 
MDRP[10000]	/* MoveDirectRelPt */
PUSHW[ ]	/* 1 value pushed */
80 
MDAP[1]	/* MoveDirectAbsPt */
PUSHW[ ]	/* 1 value pushed */
83 
SRP0[ ]	/* SetRefPoint0 */
PUSHW[ ]	/* 1 value pushed */
92 
MDRP[11100]	/* MoveDirectRelPt */
SVTCA[0]	/* SetFreedomAndProjectionVectorToAxis */
PUSHW[ ]	/* 1 value pushed */
0 
RCVT[ ]	/* ReadCVT */
IF[ ]	/* If */
PUSHW[ ]	/* 1 value pushed */
1 
MDAP[1]	/* MoveDirectAbsPt */
ELSE[ ]	/* Else */
PUSHW[ ]	/* 2 values pushed */
1 14 
MIAP[0]	/* MoveIndirectAbsPt */
EIF[ ]	/* EndIf */
PUSHW[ ]	/* 1 value pushed */
0 
RCVT[ ]	/* ReadCVT */
IF[ ]	/* If */
PUSHW[ ]	/* 1 value pushed */
51 
MDAP[1]	/* MoveDirectAbsPt */
ELSE[ ]	/* Else */
PUSHW[ ]	/* 2 values pushed */
51 14 
MIAP[0]	/* MoveIndirectAbsPt */
EIF[ ]	/* EndIf */
PUSHW[ ]	/* 1 value pushed */
0 
RCVT[ ]	/* ReadCVT */
IF[ ]	/* If */
PUSHW[ ]	/* 1 value pushed */
73 
MDAP[1]	/* MoveDirectAbsPt */
ELSE[ ]	/* Else */
PUSHW[ ]	/* 2 values pushed */
73 8 
MIAP[0]	/* MoveIndirectAbsPt */
EIF[ ]	/* EndIf */
PUSHW[ ]	/* 2 values pushed */
26 2 
MIRP[11100]	/* MoveIndirectRelPt */
NPUSHW[ ]	/* 33 values pushed */
7 26 23 26 39 26 55 26 71 26 87 26 103 26 119 26 135 26 151 26 167 26 183 26 199 26 215 26 231 26 247 26 16 
DELTAP1[ ]	/* DeltaExceptionP1 */
NPUSHW[ ]	/* 33 values pushed */
7 26 23 26 39 26 55 26 71 26 87 26 103 26 119 26 135 26 151 26 167 26 183 26 199 26 215 26 231 26 247 26 16 
DELTAP2[ ]	/* DeltaExceptionP2 */
NPUSHW[ ]	/* 33 values pushed */
7 26 23 26 39 26 55 26 71 26 87 26 103 26 119 26 135 26 151 26 167 26 183 26 199 26 215 26 231 26 247 26 16 
DELTAP3[ ]	/* DeltaExceptionP3 */
IUP[0]	/* InterpolateUntPts */
IUP[1]	/* InterpolateUntPts */";
};
width = 834;
}
);
note = U;
unicode = 0055;
},
{
glyphname = V;
lastChange = "2020-12-28 02:01:01 +0000";
layers = (
{
layerId = "6873DD1C-7BCD-4DE2-A211-237E2294755D";
paths = (
{
closed = 1;
nodes = (
"337 -7 LINE",
"386 93 LINE",
"410.801 157.257 OFFCURVE",
"454.388 270.417 OFFCURVE",
"482 340 CURVE SMOOTH",
"515.333 424 OFFCURVE",
"548.333 506 OFFCURVE",
"575 570 CURVE SMOOTH",
"596.128 621.06 OFFCURVE",
"618.382 662.382 OFFCURVE",
"634 678 CURVE",
"636 680.667 OFFCURVE",
"643.5 686 OFFCURVE",
"656.5 694 CURVE SMOOTH",
"669.5 702 OFFCURVE",
"684.667 707 OFFCURVE",
"702 709 CURVE",
"702 720 LINE",
"469 720 LINE",
"469 710 LINE",
"506.673 707.102 OFFCURVE",
"565 691.46 OFFCURVE",
"565 654 CURVE SMOOTH",
"565 646.667 OFFCURVE",
"563 633.5 OFFCURVE",
"559 614.5 CURVE SMOOTH",
"555 595.5 OFFCURVE",
"546.333 567.667 OFFCURVE",
"533 531 CURVE SMOOTH",
"497 435 OFFCURVE",
"462.833 344.333 OFFCURVE",
"435.5 275 CURVE SMOOTH",
"413.878 220.154 OFFCURVE",
"390.603 158.727 OFFCURVE",
"383 142 CURVE",
"375.667 162 OFFCURVE",
"365.667 187.667 OFFCURVE",
"353 219 CURVE SMOOTH",
"327.667 281.667 OFFCURVE",
"298.333 356.167 OFFCURVE",
"269 431.5 CURVE SMOOTH",
"248.802 483.372 OFFCURVE",
"190 624.379 OFFCURVE",
"190 659 CURVE SMOOTH",
"190 698.196 OFFCURVE",
"242.087 704.617 OFFCURVE",
"269 710 CURVE",
"269 720 LINE",
"-30 720 LINE",
"-30 709 LINE",
"21.746 706.75 OFFCURVE",
"47.202 676.595 OFFCURVE",
"59 653 CURVE SMOOTH",
"72.475 626.05 OFFCURVE",
"94.815 578.358 OFFCURVE",
"106 548 CURVE SMOOTH",
"139.333 462.667 OFFCURVE",
"172 379.667 OFFCURVE",
"208 289 CURVE SMOOTH",
"236.635 216.881 OFFCURVE",
"290.393 77.945 OFFCURVE",
"325 -7 CURVE"
);
}
);
userData = {
assembly = "SVTCA[0]	/* SetFreedomAndProjectionVectorToAxis */
PUSHW[ ]	/* 1 value pushed */
0 
RCVT[ ]	/* ReadCVT */
IF[ ]	/* If */
PUSHW[ ]	/* 1 value pushed */
1 
MDAP[1]	/* MoveDirectAbsPt */
ELSE[ ]	/* Else */
PUSHW[ ]	/* 2 values pushed */
1 14 
MIAP[0]	/* MoveIndirectAbsPt */
EIF[ ]	/* EndIf */
PUSHW[ ]	/* 1 value pushed */
0 
RCVT[ ]	/* ReadCVT */
IF[ ]	/* If */
PUSHW[ ]	/* 1 value pushed */
29 
MDAP[1]	/* MoveDirectAbsPt */
ELSE[ ]	/* Else */
PUSHW[ ]	/* 2 values pushed */
29 14 
MIAP[0]	/* MoveIndirectAbsPt */
EIF[ ]	/* EndIf */
PUSHW[ ]	/* 1 value pushed */
0 
RCVT[ ]	/* ReadCVT */
IF[ ]	/* If */
PUSHW[ ]	/* 1 value pushed */
46 
MDAP[1]	/* MoveDirectAbsPt */
ELSE[ ]	/* Else */
PUSHW[ ]	/* 2 values pushed */
46 8 
MIAP[0]	/* MoveIndirectAbsPt */
EIF[ ]	/* EndIf */
PUSHW[ ]	/* 3 values pushed */
16 46 1 
SRP1[ ]	/* SetRefPoint1 */
SRP2[ ]	/* SetRefPoint2 */
IP[ ]	/* InterpolatePts */
IUP[0]	/* InterpolateUntPts */
IUP[1]	/* InterpolateUntPts */";
};
width = 667;
}
);
note = V;
unicode = 0056;
},
{
glyphname = W;
lastChange = "2020-12-28 02:01:01 +0000";
layers = (
{
layerId = "6873DD1C-7BCD-4DE2-A211-237E2294755D";
paths = (
{
closed = 1;
nodes = (
"320 -3 LINE",
"364 95 LINE",
"386.667 157.667 OFFCURVE",
"411 225.667 OFFCURVE",
"435 295 CURVE SMOOTH",
"454.63 351.708 OFFCURVE",
"487.581 443.92 OFFCURVE",
"505 494 CURVE",
"527.451 434.131 OFFCURVE",
"564.793 326.426 OFFCURVE",
"587.5 262 CURVE SMOOTH",
"616.167 180.667 OFFCURVE",
"647 93 OFFCURVE",
"683 -3 CURVE",
"693 -3 LINE",
"735 93 LINE",
"756.488 157.463 OFFCURVE",
"796.103 271.442 OFFCURVE",
"819.5 340 CURVE SMOOTH",
"842.699 407.978 OFFCURVE",
"880.474 514.264 OFFCURVE",
"899 571 CURVE SMOOTH",
"917.721 625.292 OFFCURVE",
"938.601 661.601 OFFCURVE",
"958 681 CURVE",
"960 683.667 OFFCURVE",
"966.833 688.667 OFFCURVE",
"978.5 696 CURVE SMOOTH",
"990.167 703.333 OFFCURVE",
"1004.333 708 OFFCURVE",
"1021 710 CURVE",
"1021 720 LINE",
"801 720 LINE",
"801 710 LINE",
"835.563 707.12 OFFCURVE",
"887 691.573 OFFCURVE",
"887 655 CURVE SMOOTH",
"887 648.333 OFFCURVE",
"886.333 638 OFFCURVE",
"885 624 CURVE SMOOTH",
"883.667 610 OFFCURVE",
"878.333 587.667 OFFCURVE",
"869 557 CURVE SMOOTH",
"861.667 533 OFFCURVE",
"853.5 507.167 OFFCURVE",
"844.5 479.5 CURVE SMOOTH",
"829.783 434.258 OFFCURVE",
"805.305 358.868 OFFCURVE",
"790.5 315 CURVE SMOOTH",
"777.706 277.093 OFFCURVE",
"745.394 179.92 OFFCURVE",
"736 158 CURVE",
"731.333 170.667 OFFCURVE",
"723.833 191.167 OFFCURVE",
"713.5 219.5 CURVE SMOOTH",
"695.937 267.657 OFFCURVE",
"661.917 363.706 OFFCURVE",
"639 427 CURVE SMOOTH",
"619.456 480.978 OFFCURVE",
"562 625.763 OFFCURVE",
"562 659 CURVE SMOOTH",
"562 698.223 OFFCURVE",
"626.235 705.206 OFFCURVE",
"655 710 CURVE",
"655 720 LINE",
"342 720 LINE",
"342 709 LINE",
"399.292 706.613 OFFCURVE",
"425.764 682.472 OFFCURVE",
"440 654 CURVE SMOOTH",
"458.667 615.333 OFFCURVE",
"473 577.333 OFFCURVE",
"493 524 CURVE",
"463.667 432 OFFCURVE",
"433 344.833 OFFCURVE",
"409 277.5 CURVE SMOOTH",
"390.28 224.98 OFFCURVE",
"369.399 166.397 OFFCURVE",
"364 152 CURVE",
"356.667 172 OFFCURVE",
"347 197.5 OFFCURVE",
"335 228.5 CURVE SMOOTH",
"311 290.5 OFFCURVE",
"282.833 363.667 OFFCURVE",
"255.5 437 CURVE SMOOTH",
"236.763 487.271 OFFCURVE",
"180 625.096 OFFCURVE",
"180 659 CURVE SMOOTH",
"180 699.189 OFFCURVE",
"230.739 710 OFFCURVE",
"254 710 CURVE",
"254 720 LINE",
"-28 720 LINE",
"-28 709 LINE",
"22.003 706.727 OFFCURVE",
"44.471 677.058 OFFCURVE",
"56 654 CURVE SMOOTH",
"66.43 633.139 OFFCURVE",
"86.919 581.791 OFFCURVE",
"99 549 CURVE SMOOTH",
"131 465 OFFCURVE",
"162.5 381.5 OFFCURVE",
"196.5 291.5 CURVE SMOOTH",
"224.027 218.635 OFFCURVE",
"275.492 81.94 OFFCURVE",
"308 -3 CURVE"
);
}
);
userData = {
assembly = "SVTCA[0]	/* SetFreedomAndProjectionVectorToAxis */
PUSHW[ ]	/* 1 value pushed */
0 
RCVT[ ]	/* ReadCVT */
IF[ ]	/* If */
PUSHW[ ]	/* 1 value pushed */
1 
MDAP[1]	/* MoveDirectAbsPt */
ELSE[ ]	/* Else */
PUSHW[ ]	/* 2 values pushed */
1 14 
MIAP[0]	/* MoveIndirectAbsPt */
EIF[ ]	/* EndIf */
PUSHW[ ]	/* 1 value pushed */
0 
RCVT[ ]	/* ReadCVT */
IF[ ]	/* If */
PUSHW[ ]	/* 1 value pushed */
31 
MDAP[1]	/* MoveDirectAbsPt */
ELSE[ ]	/* Else */
PUSHW[ ]	/* 2 values pushed */
31 14 
MIAP[0]	/* MoveIndirectAbsPt */
EIF[ ]	/* EndIf */
PUSHW[ ]	/* 1 value pushed */
0 
RCVT[ ]	/* ReadCVT */
IF[ ]	/* If */
PUSHW[ ]	/* 1 value pushed */
59 
MDAP[1]	/* MoveDirectAbsPt */
ELSE[ ]	/* Else */
PUSHW[ ]	/* 2 values pushed */
59 14 
MIAP[0]	/* MoveIndirectAbsPt */
EIF[ ]	/* EndIf */
PUSHW[ ]	/* 1 value pushed */
0 
RCVT[ ]	/* ReadCVT */
IF[ ]	/* If */
PUSHW[ ]	/* 1 value pushed */
76 
MDAP[1]	/* MoveDirectAbsPt */
ELSE[ ]	/* Else */
PUSHW[ ]	/* 2 values pushed */
76 8 
MIAP[0]	/* MoveIndirectAbsPt */
EIF[ ]	/* EndIf */
PUSHW[ ]	/* 1 value pushed */
0 
RCVT[ ]	/* ReadCVT */
IF[ ]	/* If */
PUSHW[ ]	/* 1 value pushed */
88 
MDAP[1]	/* MoveDirectAbsPt */
ELSE[ ]	/* Else */
PUSHW[ ]	/* 2 values pushed */
88 8 
MIAP[0]	/* MoveIndirectAbsPt */
EIF[ ]	/* EndIf */
PUSHW[ ]	/* 3 values pushed */
18 76 1 
SRP1[ ]	/* SetRefPoint1 */
SRP2[ ]	/* SetRefPoint2 */
IP[ ]	/* InterpolatePts */
PUSHW[ ]	/* 3 values pushed */
46 76 1 
SRP1[ ]	/* SetRefPoint1 */
SRP2[ ]	/* SetRefPoint2 */
IP[ ]	/* InterpolatePts */
PUSHW[ ]	/* 3 values pushed */
83 76 1 
SRP1[ ]	/* SetRefPoint1 */
SRP2[ ]	/* SetRefPoint2 */
IP[ ]	/* InterpolatePts */
IUP[0]	/* InterpolateUntPts */
IUP[1]	/* InterpolateUntPts */";
};
width = 991;
}
);
note = W;
unicode = 0057;
},
{
glyphname = X;
lastChange = "2020-12-28 02:01:01 +0000";
layers = (
{
layerId = "6873DD1C-7BCD-4DE2-A211-237E2294755D";
paths = (
{
closed = 1;
nodes = (
"248 0 LINE",
"248 10 LINE",
"208.685 15.616 OFFCURVE",
"156 31.786 OFFCURVE",
"156 69 CURVE SMOOTH",
"156 93 OFFCURVE",
"173.333 120.333 OFFCURVE",
"192 147 CURVE SMOOTH",
"220.178 186.919 OFFCURVE",
"295.358 277.675 OFFCURVE",
"331 320 CURVE",
"381.667 249.333 OFFCURVE",
"420.333 194 OFFCURVE",
"451 146 CURVE SMOOTH",
"473.667 111.333 OFFCURVE",
"494 77.667 OFFCURVE",
"494 59 CURVE SMOOTH",
"494 21.698 OFFCURVE",
"442.351 15.764 OFFCURVE",
"402 10 CURVE",
"402 0 LINE",
"726 0 LINE",
"726 10 LINE",
"669.472 18.075 OFFCURVE",
"632.458 74.635 OFFCURVE",
"586 142 CURVE",
"572.188 163.705 OFFCURVE",
"515.752 241.654 OFFCURVE",
"492 275.5 CURVE SMOOTH",
"470.1 306.707 OFFCURVE",
"415.43 384.855 OFFCURVE",
"408 396 CURVE",
"424.454 415.745 OFFCURVE",
"540.458 556.833 OFFCURVE",
"561 581 CURVE SMOOTH",
"619.667 651.667 OFFCURVE",
"666 695.333 OFFCURVE",
"734 710 CURVE",
"734 720 LINE",
"473 720 LINE",
"473 710 LINE",
"508.917 704.474 OFFCURVE",
"564 688.182 OFFCURVE",
"564 652 CURVE SMOOTH",
"564 630.667 OFFCURVE",
"540 593.333 OFFCURVE",
"524 572 CURVE SMOOTH",
"506.667 550 OFFCURVE",
"486.5 524 OFFCURVE",
"463.5 494 CURVE SMOOTH",
"440.5 464 OFFCURVE",
"418 436.333 OFFCURVE",
"396 411 CURVE",
"371.333 446.333 OFFCURVE",
"350.333 476.5 OFFCURVE",
"333 501.5 CURVE SMOOTH",
"315.667 526.5 OFFCURVE",
"298.667 551 OFFCURVE",
"282 575 CURVE SMOOTH",
"258 609.667 OFFCURVE",
"236 642.333 OFFCURVE",
"236 661 CURVE SMOOTH",
"236 696.316 OFFCURVE",
"292.812 707.062 OFFCURVE",
"331 710 CURVE",
"331 720 LINE",
"5 720 LINE",
"5 710 LINE",
"68.785 690.587 OFFCURVE",
"96.275 649.43 OFFCURVE",
"148 578 CURVE SMOOTH",
"180.573 533.212 OFFCURVE",
"305.344 355.541 OFFCURVE",
"320 336 CURVE",
"301.73 314.076 OFFCURVE",
"174.981 160.779 OFFCURVE",
"154 137 CURVE SMOOTH",
"94 69 OFFCURVE",
"36.333 24.667 OFFCURVE",
"-17 10 CURVE",
"-17 0 LINE"
);
}
);
userData = {
assembly = "SVTCA[0]	/* SetFreedomAndProjectionVectorToAxis */
PUSHW[ ]	/* 1 value pushed */
0 
RCVT[ ]	/* ReadCVT */
IF[ ]	/* If */
PUSHW[ ]	/* 1 value pushed */
1 
MDAP[1]	/* MoveDirectAbsPt */
ELSE[ ]	/* Else */
PUSHW[ ]	/* 2 values pushed */
1 14 
MIAP[0]	/* MoveIndirectAbsPt */
EIF[ ]	/* EndIf */
PUSHW[ ]	/* 1 value pushed */
0 
RCVT[ ]	/* ReadCVT */
IF[ ]	/* If */
PUSHW[ ]	/* 1 value pushed */
26 
MDAP[1]	/* MoveDirectAbsPt */
ELSE[ ]	/* Else */
PUSHW[ ]	/* 2 values pushed */
26 14 
MIAP[0]	/* MoveIndirectAbsPt */
EIF[ ]	/* EndIf */
PUSHW[ ]	/* 1 value pushed */
0 
RCVT[ ]	/* ReadCVT */
IF[ ]	/* If */
PUSHW[ ]	/* 1 value pushed */
47 
MDAP[1]	/* MoveDirectAbsPt */
ELSE[ ]	/* Else */
PUSHW[ ]	/* 2 values pushed */
47 8 
MIAP[0]	/* MoveIndirectAbsPt */
EIF[ ]	/* EndIf */
PUSHW[ ]	/* 1 value pushed */
0 
RCVT[ ]	/* ReadCVT */
IF[ ]	/* If */
PUSHW[ ]	/* 1 value pushed */
74 
MDAP[1]	/* MoveDirectAbsPt */
ELSE[ ]	/* Else */
PUSHW[ ]	/* 2 values pushed */
74 8 
MIAP[0]	/* MoveIndirectAbsPt */
EIF[ ]	/* EndIf */
IUP[0]	/* InterpolateUntPts */
IUP[1]	/* InterpolateUntPts */";
};
width = 708;
}
);
note = X;
unicode = 0058;
},
{
glyphname = Y;
lastChange = "2020-12-31 21:51:13 +0000";
layers = (
{
anchors = (
{
name = top;
position = "{371, 728}";
}
);
layerId = "6873DD1C-7BCD-4DE2-A211-237E2294755D";
paths = (
{
closed = 1;
nodes = (
"473 0 LINE",
"473 10 LINE",
"443.667 15.333 OFFCURVE",
"408 20.667 OFFCURVE",
"388 50 CURVE SMOOTH",
"377.333 64.667 OFFCURVE",
"377 106.333 OFFCURVE",
"377 145 CURVE SMOOTH",
"377 346 LINE",
"395.857 374.285 OFFCURVE",
"500.448 533.626 OFFCURVE",
"531 582 CURVE SMOOTH",
"576.893 653.39 OFFCURVE",
"608.417 699.488 OFFCURVE",
"682 710 CURVE",
"682 720 LINE",
"451 720 LINE",
"451 710 LINE",
"491.396 704.229 OFFCURVE",
"536 699.211 OFFCURVE",
"536 659 CURVE SMOOTH",
"536 634.962 OFFCURVE",
"511.549 591.479 OFFCURVE",
"500 573 CURVE",
"476.954 532.029 OFFCURVE",
"396.895 407.155 OFFCURVE",
"366 362 CURVE",
"362.387 368.097 OFFCURVE",
"240.708 567.296 OFFCURVE",
"236 575 CURVE SMOOTH",
"214.667 611 OFFCURVE",
"191 650.667 OFFCURVE",
"191 668 CURVE SMOOTH",
"191 701.024 OFFCURVE",
"238.91 707.394 OFFCURVE",
"278 710 CURVE",
"278 720 LINE",
"-25 720 LINE",
"-25 710 LINE",
"29.537 707.273 OFFCURVE",
"65.161 643.386 OFFCURVE",
"108 578 CURVE SMOOTH",
"126.309 550.536 OFFCURVE",
"172.916 475.054 OFFCURVE",
"199.5 431 CURVE SMOOTH",
"220.49 396.217 OFFCURVE",
"260.597 331.104 OFFCURVE",
"268 320 CURVE",
"268 246.667 OFFCURVE",
"266 197 OFFCURVE",
"266 160 CURVE SMOOTH",
"266 125.787 OFFCURVE",
"264.767 63.767 OFFCURVE",
"252 51 CURVE",
"222.667 17.667 OFFCURVE",
"199.667 14 OFFCURVE",
"165 10 CURVE",
"165 0 LINE"
);
}
);
userData = {
assembly = "PUSHW[ ]	/* 4 values pushed */
67 7 46 4 
CALL[ ]	/* CallFunction */
PUSHW[ ]	/* 1 value pushed */
67 
SRP0[ ]	/* SetRefPoint0 */
PUSHW[ ]	/* 3 values pushed */
18 46 67 
SRP1[ ]	/* SetRefPoint1 */
SRP2[ ]	/* SetRefPoint2 */
IP[ ]	/* InterpolatePts */
PUSHW[ ]	/* 1 value pushed */
46 
SRP0[ ]	/* SetRefPoint0 */
PUSHW[ ]	/* 1 value pushed */
49 
MDRP[10000]	/* MoveDirectRelPt */
PUSHW[ ]	/* 1 value pushed */
49 
MDAP[1]	/* MoveDirectAbsPt */
SVTCA[0]	/* SetFreedomAndProjectionVectorToAxis */
PUSHW[ ]	/* 1 value pushed */
0 
RCVT[ ]	/* ReadCVT */
IF[ ]	/* If */
PUSHW[ ]	/* 1 value pushed */
1 
MDAP[1]	/* MoveDirectAbsPt */
ELSE[ ]	/* Else */
PUSHW[ ]	/* 2 values pushed */
1 14 
MIAP[0]	/* MoveIndirectAbsPt */
EIF[ ]	/* EndIf */
PUSHW[ ]	/* 1 value pushed */
0 
RCVT[ ]	/* ReadCVT */
IF[ ]	/* If */
PUSHW[ ]	/* 1 value pushed */
32 
MDAP[1]	/* MoveDirectAbsPt */
ELSE[ ]	/* Else */
PUSHW[ ]	/* 2 values pushed */
32 14 
MIAP[0]	/* MoveIndirectAbsPt */
EIF[ ]	/* EndIf */
PUSHW[ ]	/* 1 value pushed */
0 
RCVT[ ]	/* ReadCVT */
IF[ ]	/* If */
PUSHW[ ]	/* 1 value pushed */
58 
MDAP[1]	/* MoveDirectAbsPt */
ELSE[ ]	/* Else */
PUSHW[ ]	/* 2 values pushed */
58 8 
MIAP[0]	/* MoveIndirectAbsPt */
EIF[ ]	/* EndIf */
PUSHW[ ]	/* 3 values pushed */
18 58 1 
SRP1[ ]	/* SetRefPoint1 */
SRP2[ ]	/* SetRefPoint2 */
IP[ ]	/* InterpolatePts */
IUP[0]	/* InterpolateUntPts */
IUP[1]	/* InterpolateUntPts */";
};
width = 649;
}
);
note = Y;
unicode = 0059;
},
{
glyphname = Z;
lastChange = "2020-12-31 20:58:01 +0000";
layers = (
{
layerId = "6873DD1C-7BCD-4DE2-A211-237E2294755D";
paths = (
{
closed = 1;
nodes = (
"623 0 LINE",
"695 225 LINE",
"684 229 LINE",
"617.333 114.333 OFFCURVE",
"532 34 OFFCURVE",
"424 22 CURVE SMOOTH",
"371 17 OFFCURVE",
"203 17 OFFCURVE",
"154 18 CURVE",
"659 712 LINE",
"656 718 LINE",
"631.333 718 OFFCURVE",
"601.333 718 OFFCURVE",
"566 718 CURVE SMOOTH",
"531.333 718 OFFCURVE",
"494.333 718 OFFCURVE",
"455 718 CURVE SMOOTH",
"415.667 718 OFFCURVE",
"376 718 OFFCURVE",
"336 718 CURVE SMOOTH",
"250.988 718 OFFCURVE",
"123.394 718.4 OFFCURVE",
"87 721 CURVE",
"14 508 LINE",
"25 504 LINE",
"52.672 549.281 OFFCURVE",
"118.228 623.857 OFFCURVE",
"152 652 CURVE SMOOTH",
"185.333 678.667 OFFCURVE",
"225.333 697.333 OFFCURVE",
"276 700 CURVE SMOOTH",
"308 702 OFFCURVE",
"490 702 OFFCURVE",
"522 702 CURVE",
"16 7 LINE",
"20 0 LINE"
);
}
);
userData = {
assembly = "SVTCA[0]	/* SetFreedomAndProjectionVectorToAxis */
PUSHW[ ]	/* 1 value pushed */
0 
RCVT[ ]	/* ReadCVT */
IF[ ]	/* If */
PUSHW[ ]	/* 1 value pushed */
13 
MDAP[1]	/* MoveDirectAbsPt */
ELSE[ ]	/* Else */
PUSHW[ ]	/* 2 values pushed */
13 14 
MIAP[0]	/* MoveIndirectAbsPt */
EIF[ ]	/* EndIf */
PUSHW[ ]	/* 1 value pushed */
0 
RCVT[ ]	/* ReadCVT */
IF[ ]	/* If */
PUSHW[ ]	/* 1 value pushed */
15 
MDAP[1]	/* MoveDirectAbsPt */
ELSE[ ]	/* Else */
PUSHW[ ]	/* 2 values pushed */
15 14 
MIAP[0]	/* MoveIndirectAbsPt */
EIF[ ]	/* EndIf */
PUSHW[ ]	/* 1 value pushed */
0 
RCVT[ ]	/* ReadCVT */
IF[ ]	/* If */
PUSHW[ ]	/* 1 value pushed */
17 
MDAP[1]	/* MoveDirectAbsPt */
ELSE[ ]	/* Else */
PUSHW[ ]	/* 2 values pushed */
17 14 
MIAP[0]	/* MoveIndirectAbsPt */
EIF[ ]	/* EndIf */
PUSHW[ ]	/* 1 value pushed */
0 
RCVT[ ]	/* ReadCVT */
IF[ ]	/* If */
PUSHW[ ]	/* 1 value pushed */
19 
MDAP[1]	/* MoveDirectAbsPt */
ELSE[ ]	/* Else */
PUSHW[ ]	/* 2 values pushed */
19 14 
MIAP[0]	/* MoveIndirectAbsPt */
EIF[ ]	/* EndIf */
PUSHW[ ]	/* 1 value pushed */
0 
RCVT[ ]	/* ReadCVT */
IF[ ]	/* If */
PUSHW[ ]	/* 1 value pushed */
23 
MDAP[1]	/* MoveDirectAbsPt */
ELSE[ ]	/* Else */
PUSHW[ ]	/* 2 values pushed */
23 14 
MIAP[0]	/* MoveIndirectAbsPt */
EIF[ ]	/* EndIf */
PUSHW[ ]	/* 1 value pushed */
0 
RCVT[ ]	/* ReadCVT */
IF[ ]	/* If */
PUSHW[ ]	/* 1 value pushed */
42 
MDAP[1]	/* MoveDirectAbsPt */
ELSE[ ]	/* Else */
PUSHW[ ]	/* 2 values pushed */
42 8 
MIAP[0]	/* MoveIndirectAbsPt */
EIF[ ]	/* EndIf */
PUSHW[ ]	/* 3 values pushed */
11 42 23 
SRP1[ ]	/* SetRefPoint1 */
SRP2[ ]	/* SetRefPoint2 */
IP[ ]	/* InterpolatePts */
PUSHW[ ]	/* 3 values pushed */
40 42 23 
SRP1[ ]	/* SetRefPoint1 */
SRP2[ ]	/* SetRefPoint2 */
IP[ ]	/* InterpolatePts */
IUP[0]	/* InterpolateUntPts */
IUP[1]	/* InterpolateUntPts */";
};
width = 694;
}
);
note = Z;
unicode = 005A;
},
{
glyphname = bracketleft;
lastChange = "2020-12-31 22:43:30 +0000";
layers = (
{
layerId = "6873DD1C-7BCD-4DE2-A211-237E2294755D";
paths = (
{
closed = 1;
nodes = (
"276 -106 LINE",
"276 -82 LINE",
"97 -82 LINE",
"97 696 LINE",
"276 696 LINE",
"276 720 LINE",
"49 720 LINE",
"49 -106 LINE"
);
}
);
userData = {
assembly = "PUSHW[ ]	/* 3 values pushed */
3 6 3 
CALL[ ]	/* CallFunction */
PUSHW[ ]	/* 1 value pushed */
3 
SRP0[ ]	/* SetRefPoint0 */
SVTCA[0]	/* SetFreedomAndProjectionVectorToAxis */
PUSHW[ ]	/* 1 value pushed */
0 
RCVT[ ]	/* ReadCVT */
IF[ ]	/* If */
PUSHW[ ]	/* 1 value pushed */
5 
MDAP[1]	/* MoveDirectAbsPt */
ELSE[ ]	/* Else */
PUSHW[ ]	/* 2 values pushed */
5 14 
MIAP[0]	/* MoveIndirectAbsPt */
EIF[ ]	/* EndIf */
PUSHW[ ]	/* 4 values pushed */
1 2 0 4 
CALL[ ]	/* CallFunction */
PUSHW[ ]	/* 1 value pushed */
1 
SRP0[ ]	/* SetRefPoint0 */
PUSHW[ ]	/* 1 value pushed */
5 
SRP0[ ]	/* SetRefPoint0 */
PUSHW[ ]	/* 2 values pushed */
3 2 
MIRP[11100]	/* MoveIndirectRelPt */
IUP[0]	/* InterpolateUntPts */
IUP[1]	/* InterpolateUntPts */";
};
width = 286;
}
);
note = bracketleft;
unicode = 005B;
},
{
glyphname = backslash;
lastChange = "2020-12-28 02:01:01 +0000";
layers = (
{
layerId = "6873DD1C-7BCD-4DE2-A211-237E2294755D";
paths = (
{
closed = 1;
nodes = (
"362 -131 LINE",
"-8 760 LINE",
"-41 747 LINE",
"329 -143 LINE"
);
}
);
userData = {
assembly = "SVTCA[0]	/* SetFreedomAndProjectionVectorToAxis */
PUSHW[ ]	/* 1 value pushed */
1 
MDAP[1]	/* MoveDirectAbsPt */
PUSHW[ ]	/* 1 value pushed */
3 
MDAP[1]	/* MoveDirectAbsPt */
IUP[0]	/* InterpolateUntPts */
IUP[1]	/* InterpolateUntPts */";
};
width = 311;
}
);
note = backslash;
unicode = 005C;
},
{
glyphname = bracketright;
lastChange = "2020-12-31 22:43:39 +0000";
layers = (
{
layerId = "6873DD1C-7BCD-4DE2-A211-237E2294755D";
paths = (
{
closed = 1;
nodes = (
"237 -106 LINE",
"237 720 LINE",
"10 720 LINE",
"10 696 LINE",
"189 696 LINE",
"189 -82 LINE",
"10 -82 LINE",
"10 -106 LINE"
);
}
);
userData = {
assembly = "PUSHW[ ]	/* 3 values pushed */
1 4 3 
CALL[ ]	/* CallFunction */
PUSHW[ ]	/* 1 value pushed */
1 
SRP0[ ]	/* SetRefPoint0 */
PUSHW[ ]	/* 1 value pushed */
9 
MDRP[11100]	/* MoveDirectRelPt */
SVTCA[0]	/* SetFreedomAndProjectionVectorToAxis */
PUSHW[ ]	/* 1 value pushed */
0 
RCVT[ ]	/* ReadCVT */
IF[ ]	/* If */
PUSHW[ ]	/* 1 value pushed */
1 
MDAP[1]	/* MoveDirectAbsPt */
ELSE[ ]	/* Else */
PUSHW[ ]	/* 2 values pushed */
1 14 
MIAP[0]	/* MoveIndirectAbsPt */
EIF[ ]	/* EndIf */
PUSHW[ ]	/* 4 values pushed */
5 2 0 4 
CALL[ ]	/* CallFunction */
PUSHW[ ]	/* 1 value pushed */
5 
SRP0[ ]	/* SetRefPoint0 */
PUSHW[ ]	/* 1 value pushed */
1 
SRP0[ ]	/* SetRefPoint0 */
PUSHW[ ]	/* 2 values pushed */
3 2 
MIRP[11100]	/* MoveIndirectRelPt */
IUP[0]	/* InterpolateUntPts */
IUP[1]	/* InterpolateUntPts */";
};
width = 286;
}
);
note = bracketright;
unicode = 005D;
},
{
glyphname = asciicircum;
lastChange = "2020-12-28 02:01:01 +0000";
layers = (
{
layerId = "6873DD1C-7BCD-4DE2-A211-237E2294755D";
paths = (
{
closed = 1;
nodes = (
"218 527 LINE",
"129 698 LINE",
"114 698 LINE",
"23 528 LINE",
"35 521 LINE",
"121 633 LINE",
"206 520 LINE"
);
}
);
userData = {
assembly = "SVTCA[0]	/* SetFreedomAndProjectionVectorToAxis */
PUSHW[ ]	/* 1 value pushed */
4 
MDAP[1]	/* MoveDirectAbsPt */
PUSHW[ ]	/* 1 value pushed */
6 
MDAP[1]	/* MoveDirectAbsPt */
PUSHW[ ]	/* 1 value pushed */
1 
MDAP[1]	/* MoveDirectAbsPt */
PUSHW[ ]	/* 3 values pushed */
5 6 1 
SRP1[ ]	/* SetRefPoint1 */
SRP2[ ]	/* SetRefPoint2 */
IP[ ]	/* InterpolatePts */
IUP[0]	/* InterpolateUntPts */
IUP[1]	/* InterpolateUntPts */";
};
width = 254;
}
);
note = asciicircum;
unicode = 005E;
},
{
glyphname = underscore;
lastChange = "2020-12-28 02:01:01 +0000";
layers = (
{
layerId = "6873DD1C-7BCD-4DE2-A211-237E2294755D";
paths = (
{
closed = 1;
nodes = (
"500 -130 LINE",
"500 -96 LINE",
"0 -96 LINE",
"0 -130 LINE"
);
}
);
userData = {
assembly = "SVTCA[0]	/* SetFreedomAndProjectionVectorToAxis */
PUSHW[ ]	/* 4 values pushed */
1 2 0 4 
CALL[ ]	/* CallFunction */
PUSHW[ ]	/* 1 value pushed */
1 
SRP0[ ]	/* SetRefPoint0 */
IUP[0]	/* InterpolateUntPts */
IUP[1]	/* InterpolateUntPts */";
};
width = 500;
}
);
note = underscore;
unicode = 005F;
},
{
glyphname = grave;
lastChange = "2020-12-31 21:30:33 +0000";
layers = (
{
anchors = (
{
name = _top;
position = "{4, 481}";
}
);
layerId = "6873DD1C-7BCD-4DE2-A211-237E2294755D";
paths = (
{
closed = 1;
nodes = (
"5 520 LINE",
"-96 696 LINE",
"-125 696 OFFCURVE",
"-134 683 OFFCURVE",
"-142 672 CURVE",
"-142 667 LINE",
"-5 514 LINE"
);
}
);
userData = {
assembly = "SVTCA[0]	/* SetFreedomAndProjectionVectorToAxis */
PUSHW[ ]	/* 1 value pushed */
6 
MDAP[1]	/* MoveDirectAbsPt */
PUSHW[ ]	/* 1 value pushed */
1 
MDAP[1]	/* MoveDirectAbsPt */
IUP[0]	/* InterpolateUntPts */
IUP[1]	/* InterpolateUntPts */";
};
width = 0;
}
);
note = grave;
unicode = 0060;
},
